IntelOneMono-MediumItalic.ufo
<glyph name="exclam" format="2">
  <advance width="614"/>
  <unicode hex="0021"/>
  <outline>
    <contour>
      <point x="351" y="258" type="line"/>
      <point x="277" y="258" type="line"/>
      <point x="339" y="710" type="line"/>
      <point x="549" y="710" type="line"/>
    </contour>
    <contour>
      <point x="150" y="40" type="qcurve"/>
      <point x="150" y="85"/>
      <point x="211" y="135"/>
      <point x="268" y="135" type="qcurve"/>
      <point x="312" y="135"/>
      <point x="356" y="107"/>
      <point x="356" y="80" type="qcurve"/>
      <point x="356" y="35"/>
      <point x="295" y="-15"/>
      <point x="238" y="-15" type="qcurve"/>
      <point x="194" y="-15"/>
      <point x="150" y="12"/>
    </contour>
  </outline>
</glyph>
<glyph name="quotedbl" format="2">
  <advance width="614"/>
  <unicode hex="0022"/>
  <outline>
    <contour>
      <point x="430" y="385" type="line"/>
      <point x="531" y="385" type="line"/>
      <point x="643" y="710" type="line"/>
      <point x="505" y="710" type="line"/>
    </contour>
    <contour>
      <point x="165" y="385" type="line"/>
      <point x="266" y="385" type="line"/>
      <point x="378" y="710" type="line"/>
      <point x="240" y="710" type="line"/>
    </contour>
  </outline>
</glyph>
<glyph name="numbersign" format="2">
  <advance width="614"/>
  <unicode hex="0023"/>
  <outline>
    <contour>
      <point x="139" y="158" type="line"/>
      <point x="43" y="158" type="line"/>
      <point x="43" y="263" type="line"/>
      <point x="180" y="263" type="line"/>
      <point x="232" y="398" type="line"/>
      <point x="119" y="398" type="line"/>
      <point x="119" y="503" type="line"/>
      <point x="273" y="503" type="line"/>
      <point x="336" y="666" type="line"/>
      <point x="412" y="666" type="line"/>
      <point x="347" y="502" type="line"/>
      <point x="457" y="502" type="line"/>
      <point x="522" y="666" type="line"/>
      <point x="597" y="666" type="line"/>
      <point x="533" y="503" type="line"/>
      <point x="627" y="503" type="line"/>
      <point x="627" y="398" type="line"/>
      <point x="492" y="398" type="line"/>
      <point x="439" y="263" type="line"/>
      <point x="551" y="263" type="line"/>
      <point x="551" y="158" type="line"/>
      <point x="398" y="158" type="line"/>
      <point x="332" y="-12" type="line"/>
      <point x="257" y="-12" type="line"/>
      <point x="324" y="159" type="line"/>
      <point x="213" y="159" type="line"/>
      <point x="147" y="-12" type="line"/>
      <point x="73" y="-12" type="line"/>
    </contour>
    <contour>
      <point x="227" y="225" type="line"/>
      <point x="360" y="225" type="line"/>
      <point x="442" y="434" type="line"/>
      <point x="309" y="434" type="line"/>
    </contour>
  </outline>
</glyph>
<glyph name="dollar" format="2">
  <advance width="614"/>
  <unicode hex="0024"/>
  <outline>
    <contour>
      <point x="251" y="1" type="qcurve"/>
      <point x="202" y="-142" type="line"/>
      <point x="126" y="-142" type="line"/>
      <point x="177" y="12" type="line"/>
      <point x="144" y="18"/>
      <point x="71" y="41"/>
      <point x="23" y="61" type="qcurve"/>
      <point x="58" y="153" type="line"/>
      <point x="134" y="121"/>
      <point x="251" y="92"/>
      <point x="300" y="92" type="qcurve"/>
      <point x="361" y="92"/>
      <point x="424" y="136"/>
      <point x="424" y="178" type="qcurve"/>
      <point x="424" y="208"/>
      <point x="386" y="250"/>
      <point x="340" y="275" type="qcurve"/>
      <point x="274" y="310" type="line"/>
      <point x="210" y="346"/>
      <point x="155" y="421"/>
      <point x="155" y="475" type="qcurve"/>
      <point x="155" y="555"/>
      <point x="285" y="655"/>
      <point x="394" y="655" type="qcurve"/>
      <point x="409" y="655"/>
      <point x="424" y="655"/>
      <point x="430" y="654" type="qcurve"/>
      <point x="478" y="797" type="line"/>
      <point x="555" y="797" type="line"/>
      <point x="503" y="645" type="line"/>
      <point x="531" y="640"/>
      <point x="589" y="625"/>
      <point x="621" y="614" type="qcurve"/>
      <point x="592" y="522" type="line"/>
      <point x="532" y="543"/>
      <point x="436" y="563"/>
      <point x="392" y="563" type="qcurve"/>
      <point x="332" y="563"/>
      <point x="269" y="521"/>
      <point x="269" y="482" type="qcurve"/>
      <point x="269" y="456"/>
      <point x="301" y="417"/>
      <point x="339" y="397" type="qcurve"/>
      <point x="404" y="362" type="line"/>
      <point x="482" y="320"/>
      <point x="539" y="248"/>
      <point x="539" y="188" type="qcurve"/>
      <point x="539" y="100"/>
      <point x="413" y="-1"/>
      <point x="302" y="-1" type="qcurve"/>
      <point x="292" y="-1"/>
      <point x="270" y="0"/>
    </contour>
  </outline>
</glyph>
<glyph name="ampersand" format="2">
  <advance width="614"/>
  <unicode hex="0026"/>
  <outline>
    <contour>
      <point x="284" y="297" type="line"/>
      <point x="228" y="279"/>
      <point x="178" y="255"/>
      <point x="161" y="238" type="qcurve"/>
      <point x="146" y="223"/>
      <point x="132" y="180"/>
      <point x="132" y="150" type="qcurve"/>
      <point x="132" y="117"/>
      <point x="166" y="83"/>
      <point x="199" y="83" type="qcurve"/>
      <point x="237" y="83"/>
      <point x="291" y="122"/>
      <point x="332" y="176" type="qcurve"/>
    </contour>
    <contour>
      <point x="23" y="132" type="qcurve"/>
      <point x="23" y="186"/>
      <point x="48" y="258"/>
      <point x="76" y="286" type="qcurve"/>
      <point x="101" y="311"/>
      <point x="184" y="348"/>
      <point x="256" y="367" type="qcurve"/>
      <point x="237" y="415"/>
      <point x="222" y="473"/>
      <point x="222" y="498" type="qcurve"/>
      <point x="222" y="573"/>
      <point x="331" y="669"/>
      <point x="418" y="669" type="qcurve"/>
      <point x="455" y="669"/>
      <point x="531" y="661"/>
      <point x="581" y="652" type="qcurve"/>
      <point x="560" y="566" type="line"/>
      <point x="519" y="574"/>
      <point x="458" y="581"/>
      <point x="430" y="581" type="qcurve"/>
      <point x="385" y="581"/>
      <point x="330" y="534"/>
      <point x="330" y="495" type="qcurve"/>
      <point x="330" y="481"/>
      <point x="337" y="453"/>
      <point x="344" y="435" type="qcurve"/>
      <point x="407" y="269" type="line"/>
      <point x="523" y="428" type="line"/>
      <point x="595" y="376" type="line"/>
      <point x="446" y="183" type="line"/>
      <point x="519" y="-1" type="line"/>
      <point x="406" y="-1" type="line"/>
      <point x="369" y="99" type="line"/>
      <point x="315" y="37"/>
      <point x="230" y="-11"/>
      <point x="172" y="-11" type="qcurve"/>
      <point x="101" y="-11"/>
      <point x="23" y="65"/>
    </contour>
  </outline>
</glyph>
<glyph name="parenleft" format="2">
  <advance width="614"/>
  <unicode hex="0028"/>
  <outline>
    <contour>
      <point x="121" y="232" type="qcurve"/>
      <point x="121" y="399"/>
      <point x="377" y="691"/>
      <point x="626" y="807" type="qcurve"/>
      <point x="681" y="731" type="line"/>
      <point x="453" y="619"/>
      <point x="235" y="377"/>
      <point x="235" y="232" type="qcurve"/>
      <point x="235" y="149"/>
      <point x="344" y="-9"/>
      <point x="449" y="-76" type="qcurve"/>
      <point x="380" y="-149" type="line"/>
      <point x="250" y="-66"/>
      <point x="121" y="125"/>
    </contour>
  </outline>
</glyph>
<glyph name="parenright" format="2">
  <advance width="614"/>
  <unicode hex="0029"/>
  <outline>
    <contour>
      <point x="548" y="426" type="qcurve"/>
      <point x="548" y="259"/>
      <point x="291" y="-33"/>
      <point x="42" y="-149" type="qcurve"/>
      <point x="-12" y="-73" type="line"/>
      <point x="216" y="39"/>
      <point x="434" y="281"/>
      <point x="434" y="426" type="qcurve"/>
      <point x="434" y="509"/>
      <point x="325" y="667"/>
      <point x="220" y="734" type="qcurve"/>
      <point x="288" y="807" type="line"/>
      <point x="418" y="723"/>
      <point x="548" y="533"/>
    </contour>
  </outline>
</glyph>
<glyph name="zero" format="2">
  <advance width="614"/>
  <unicode hex="0030"/>
  <outline>
    <contour>
      <point x="227" y="594" type="qcurve"/>
      <point x="264" y="631"/>
      <point x="357" y="670"/>
      <point x="410" y="670" type="qcurve"/>
      <point x="504" y="670"/>
      <point x="601" y="577"/>
      <point x="601" y="486" type="qcurve"/>
      <point x="601" y="374"/>
      <point x="506" y="129"/>
      <point x="438" y="61" type="qcurve"/>
      <point x="402" y="24"/>
      <point x="308" y="-15"/>
      <point x="255" y="-15" type="qcurve"/>
      <point x="161" y="-15"/>
      <point x="64" y="78"/>
      <point x="64" y="169" type="qcurve"/>
      <point x="64" y="280"/>
      <point x="159" y="526"/>
    </contour>
    <contour>
      <point x="404" y="573" type="qcurve"/>
      <point x="374" y="573"/>
      <point x="321" y="551"/>
      <point x="298" y="528" type="qcurve"/>
      <point x="262" y="492"/>
      <point x="200" y="355"/>
      <point x="184" y="280" type="qcurve"/>
      <point x="493" y="463" type="line"/>
      <point x="493" y="471" type="line"/>
      <point x="493" y="522"/>
      <point x="449" y="573"/>
    </contour>
    <contour>
      <point x="172" y="184" type="line"/>
      <point x="172" y="132"/>
      <point x="216" y="82"/>
      <point x="262" y="82" type="qcurve"/>
      <point x="292" y="82"/>
      <point x="343" y="104"/>
      <point x="367" y="127" type="qcurve"/>
      <point x="402" y="162"/>
      <point x="465" y="298"/>
      <point x="481" y="374" type="qcurve"/>
      <point x="172" y="191" type="line"/>
    </contour>
  </outline>
</glyph>
<glyph name="one" format="2">
  <advance width="614"/>
  <unicode hex="0031"/>
  <outline>
    <contour>
      <point x="466" y="0" type="line"/>
      <point x="38" y="0" type="line"/>
      <point x="65" y="94" type="line"/>
      <point x="217" y="94" type="line"/>
      <point x="370" y="513" type="line"/>
      <point x="191" y="432" type="line"/>
      <point x="223" y="545" type="line"/>
      <point x="491" y="665" type="line"/>
      <point x="534" y="665" type="line"/>
      <point x="329" y="94" type="line"/>
      <point x="492" y="94" type="line"/>
    </contour>
  </outline>
</glyph>
<glyph name="three" format="2">
  <advance width="614"/>
  <unicode hex="0033"/>
  <outline>
    <contour>
      <point x="451" y="561" type="line"/>
      <point x="162" y="561" type="line"/>
      <point x="189" y="655" type="line"/>
      <point x="623" y="655" type="line"/>
      <point x="623" y="598" type="line"/>
      <point x="367" y="385" type="line"/>
      <point x="367" y="382" type="line"/>
      <point x="456" y="373"/>
      <point x="539" y="303"/>
      <point x="539" y="238" type="qcurve"/>
      <point x="539" y="129"/>
      <point x="355" y="11"/>
      <point x="168" y="-1" type="qcurve"/>
      <point x="19" y="-10" type="line"/>
      <point x="38" y="92" type="line"/>
      <point x="158" y="100" type="line"/>
      <point x="288" y="109"/>
      <point x="420" y="172"/>
      <point x="420" y="225" type="qcurve"/>
      <point x="420" y="256"/>
      <point x="377" y="290"/>
      <point x="327" y="297" type="qcurve"/>
      <point x="305" y="300"/>
      <point x="246" y="303"/>
      <point x="210" y="303" type="qcurve"/>
      <point x="206" y="355" type="line"/>
      <point x="451" y="559" type="line"/>
    </contour>
  </outline>
</glyph>
<glyph name="four" format="2">
  <advance width="614"/>
  <unicode hex="0034"/>
  <outline>
    <contour>
      <point x="324" y="164" type="line"/>
      <point x="24" y="164" type="line"/>
      <point x="46" y="242" type="line"/>
      <point x="451" y="655" type="line"/>
      <point x="598" y="655" type="line"/>
      <point x="463" y="254" type="line"/>
      <point x="593" y="254" type="line"/>
      <point x="567" y="164" type="line"/>
      <point x="432" y="164" type="line"/>
      <point x="377" y="0" type="line"/>
      <point x="270" y="0" type="line"/>
    </contour>
    <contour>
      <point x="359" y="244" type="line"/>
      <point x="473" y="576" type="line"/>
      <point x="153" y="247" type="line"/>
      <point x="153" y="244" type="line"/>
    </contour>
  </outline>
</glyph>
<glyph name="six" format="2">
  <advance width="614"/>
  <unicode hex="0036"/>
  <outline>
    <contour>
      <point x="591" y="653" type="line"/>
      <point x="427" y="526" type="line"/>
      <point x="395" y="501"/>
      <point x="344" y="458"/>
      <point x="323" y="439" type="qcurve"/>
      <point x="443" y="417"/>
      <point x="549" y="328"/>
      <point x="549" y="248" type="qcurve"/>
      <point x="549" y="142"/>
      <point x="383" y="-15"/>
      <point x="265" y="-15" type="qcurve"/>
      <point x="169" y="-15"/>
      <point x="60" y="84"/>
      <point x="60" y="171" type="qcurve"/>
      <point x="60" y="268"/>
      <point x="182" y="448"/>
      <point x="319" y="557" type="qcurve"/>
      <point x="444" y="655" type="line"/>
      <point x="591" y="655" type="line"/>
    </contour>
    <contour>
      <point x="259" y="373" type="qcurve"/>
      <point x="215" y="322"/>
      <point x="173" y="230"/>
      <point x="173" y="182" type="qcurve"/>
      <point x="173" y="132"/>
      <point x="225" y="77"/>
      <point x="272" y="77" type="qcurve"/>
      <point x="339" y="77"/>
      <point x="434" y="176"/>
      <point x="434" y="241" type="qcurve"/>
      <point x="434" y="299"/>
      <point x="354" y="358"/>
    </contour>
  </outline>
</glyph>
<glyph name="seven" format="2">
  <advance width="614"/>
  <unicode hex="0037"/>
  <outline>
    <contour>
      <point x="631" y="563" type="line"/>
      <point x="201" y="0" type="line"/>
      <point x="67" y="0" type="line"/>
      <point x="67" y="2" type="line"/>
      <point x="506" y="554" type="line"/>
      <point x="506" y="560" type="line"/>
      <point x="153" y="560" type="line"/>
      <point x="180" y="655" type="line"/>
      <point x="653" y="655" type="line"/>
    </contour>
  </outline>
</glyph>
<glyph name="eight" format="2">
  <advance width="614"/>
  <unicode hex="0038"/>
  <outline>
    <contour>
      <point x="531" y="189" type="qcurve"/>
      <point x="531" y="101"/>
      <point x="383" y="-15"/>
      <point x="273" y="-15" type="qcurve"/>
      <point x="170" y="-15"/>
      <point x="47" y="76"/>
      <point x="47" y="153" type="qcurve"/>
      <point x="47" y="226"/>
      <point x="155" y="331"/>
      <point x="246" y="345" type="qcurve"/>
      <point x="246" y="350" type="line"/>
      <point x="204" y="369"/>
      <point x="159" y="434"/>
      <point x="159" y="475" type="qcurve"/>
      <point x="159" y="555"/>
      <point x="292" y="670"/>
      <point x="392" y="670" type="qcurve"/>
      <point x="489" y="670"/>
      <point x="603" y="583"/>
      <point x="603" y="510" type="qcurve"/>
      <point x="603" y="441"/>
      <point x="511" y="344"/>
      <point x="432" y="330" type="qcurve"/>
      <point x="432" y="325" type="line"/>
      <point x="479" y="304"/>
      <point x="531" y="233"/>
    </contour>
    <contour>
      <point x="394" y="582" type="qcurve"/>
      <point x="339" y="582"/>
      <point x="262" y="508"/>
      <point x="262" y="455" type="qcurve"/>
      <point x="262" y="417"/>
      <point x="314" y="373"/>
      <point x="357" y="373" type="qcurve"/>
      <point x="412" y="373"/>
      <point x="493" y="449"/>
      <point x="493" y="500" type="qcurve"/>
      <point x="493" y="538"/>
      <point x="440" y="582"/>
    </contour>
    <contour>
      <point x="311" y="298" type="qcurve"/>
      <point x="246" y="298"/>
      <point x="159" y="220"/>
      <point x="159" y="163" type="qcurve"/>
      <point x="159" y="121"/>
      <point x="220" y="72"/>
      <point x="272" y="72" type="qcurve"/>
      <point x="337" y="72"/>
      <point x="425" y="151"/>
      <point x="425" y="209" type="qcurve"/>
      <point x="425" y="249"/>
      <point x="363" y="298"/>
    </contour>
  </outline>
</glyph>
<glyph name="nine" format="2">
  <advance width="614"/>
  <unicode hex="0039"/>
  <outline>
    <contour>
      <point x="80" y="2" type="line"/>
      <point x="244" y="128" type="line"/>
      <point x="273" y="151"/>
      <point x="325" y="195"/>
      <point x="348" y="216" type="qcurve"/>
      <point x="228" y="238"/>
      <point x="122" y="327"/>
      <point x="122" y="407" type="qcurve"/>
      <point x="122" y="512"/>
      <point x="288" y="670"/>
      <point x="407" y="670" type="qcurve"/>
      <point x="503" y="670"/>
      <point x="612" y="571"/>
      <point x="612" y="483" type="qcurve"/>
      <point x="612" y="386"/>
      <point x="489" y="207"/>
      <point x="352" y="98" type="qcurve"/>
      <point x="227" y="0" type="line"/>
      <point x="80" y="0" type="line"/>
    </contour>
    <contour>
      <point x="399" y="578" type="qcurve"/>
      <point x="333" y="578"/>
      <point x="237" y="478"/>
      <point x="237" y="414" type="qcurve"/>
      <point x="237" y="357"/>
      <point x="316" y="298"/>
      <point x="412" y="281" type="qcurve"/>
      <point x="456" y="333"/>
      <point x="498" y="425"/>
      <point x="498" y="472" type="qcurve"/>
      <point x="498" y="523"/>
      <point x="446" y="578"/>
    </contour>
  </outline>
</glyph>
<glyph name="colon" format="2">
  <advance width="614"/>
  <unicode hex="003A"/>
  <outline>
    <contour>
      <point x="462" y="419" type="qcurve"/>
      <point x="462" y="370"/>
      <point x="393" y="308"/>
      <point x="337" y="308" type="qcurve"/>
      <point x="292" y="308"/>
      <point x="245" y="342"/>
      <point x="245" y="374" type="qcurve"/>
      <point x="245" y="422"/>
      <point x="314" y="484"/>
      <point x="369" y="484" type="qcurve"/>
      <point x="415" y="484"/>
      <point x="462" y="451"/>
    </contour>
    <contour>
      <point x="370" y="96" type="qcurve"/>
      <point x="370" y="47"/>
      <point x="301" y="-15"/>
      <point x="245" y="-15" type="qcurve"/>
      <point x="200" y="-15"/>
      <point x="153" y="18"/>
      <point x="153" y="50" type="qcurve"/>
      <point x="153" y="98"/>
      <point x="222" y="160"/>
      <point x="277" y="160" type="qcurve"/>
      <point x="323" y="160"/>
      <point x="370" y="127"/>
    </contour>
  </outline>
</glyph>
<glyph name="equal" format="2">
  <advance width="614"/>
  <unicode hex="003D"/>
  <outline>
    <contour>
      <point x="573" y="387" type="line"/>
      <point x="127" y="387" type="line"/>
      <point x="153" y="478" type="line"/>
      <point x="599" y="478" type="line"/>
    </contour>
    <contour>
      <point x="514" y="179" type="line"/>
      <point x="68" y="179" type="line"/>
      <point x="94" y="270" type="line"/>
      <point x="540" y="270" type="line"/>
    </contour>
  </outline>
</glyph>
<glyph name="greater" format="2">
  <advance width="614"/>
  <unicode hex="003E"/>
  <outline>
    <contour>
      <point x="589" y="371" type="line"/>
      <point x="560" y="269" type="line"/>
      <point x="25" y="67" type="line"/>
      <point x="57" y="178" type="line"/>
      <point x="473" y="327" type="line"/>
      <point x="142" y="477" type="line"/>
      <point x="170" y="575" type="line"/>
    </contour>
  </outline>
</glyph>
<glyph name="question" format="2">
  <advance width="614"/>
  <unicode hex="003F"/>
  <outline>
    <contour>
      <point x="292" y="258" type="qcurve"/>
      <point x="218" y="258" type="line"/>
      <point x="221" y="301"/>
      <point x="226" y="346"/>
      <point x="230" y="359" type="qcurve"/>
      <point x="235" y="378"/>
      <point x="267" y="404"/>
      <point x="304" y="419" type="qcurve"/>
      <point x="402" y="458" type="line"/>
      <point x="465" y="483"/>
      <point x="518" y="530"/>
      <point x="518" y="566" type="qcurve"/>
      <point x="518" y="597"/>
      <point x="475" y="631"/>
      <point x="436" y="631" type="qcurve"/>
      <point x="393" y="631"/>
      <point x="288" y="599"/>
      <point x="191" y="558" type="qcurve"/>
      <point x="161" y="646" type="line"/>
      <point x="258" y="689"/>
      <point x="392" y="725"/>
      <point x="459" y="725" type="qcurve"/>
      <point x="543" y="725"/>
      <point x="637" y="648"/>
      <point x="637" y="580" type="qcurve"/>
      <point x="637" y="509"/>
      <point x="554" y="420"/>
      <point x="454" y="379" type="qcurve"/>
      <point x="358" y="340" type="line"/>
      <point x="333" y="330"/>
      <point x="310" y="302"/>
    </contour>
    <contour>
      <point x="95" y="40" type="qcurve"/>
      <point x="95" y="85"/>
      <point x="156" y="135"/>
      <point x="212" y="135" type="qcurve"/>
      <point x="257" y="135"/>
      <point x="301" y="108"/>
      <point x="301" y="80" type="qcurve"/>
      <point x="301" y="36"/>
      <point x="240" y="-15"/>
      <point x="183" y="-15" type="qcurve"/>
      <point x="139" y="-15"/>
      <point x="95" y="12"/>
    </contour>
  </outline>
</glyph>
<glyph name="F" format="2">
  <advance width="614"/>
  <unicode hex="0046"/>
  <outline>
    <contour>
      <point x="31" y="0" type="line"/>
      <point x="219" y="655" type="line"/>
      <point x="656" y="655" type="line"/>
      <point x="630" y="561" type="line"/>
      <point x="305" y="561" type="line"/>
      <point x="243" y="345" type="line"/>
      <point x="536" y="345" type="line"/>
      <point x="509" y="251" type="line"/>
      <point x="216" y="251" type="line"/>
      <point x="144" y="0" type="line"/>
    </contour>
  </outline>
</glyph>
<glyph name="H" format="2">
  <advance width="614"/>
  <unicode hex="0048"/>
  <outline>
    <contour>
      <point x="17" y="0" type="line"/>
      <point x="205" y="655" type="line"/>
      <point x="317" y="655" type="line"/>
      <point x="238" y="377" type="line"/>
      <point x="458" y="377" type="line"/>
      <point x="538" y="655" type="line"/>
      <point x="650" y="655" type="line"/>
      <point x="462" y="0" type="line"/>
      <point x="350" y="0" type="line"/>
      <point x="431" y="283" type="line"/>
      <point x="211" y="283" type="line"/>
      <point x="130" y="0" type="line"/>
    </contour>
  </outline>
</glyph>
<glyph name="I" format="2">
  <advance width="614"/>
  <unicode hex="0049"/>
  <outline>
    <contour>
      <point x="58" y="0" type="line"/>
      <point x="75" y="59" type="line"/>
      <point x="203" y="85" type="line"/>
      <point x="354" y="573" type="line"/>
      <point x="225" y="596" type="line"/>
      <point x="242" y="655" type="line"/>
      <point x="610" y="655" type="line"/>
      <point x="593" y="596" type="line"/>
      <point x="465" y="570" type="line"/>
      <point x="314" y="82" type="line"/>
      <point x="443" y="59" type="line"/>
      <point x="426" y="0" type="line"/>
    </contour>
  </outline>
</glyph>
<glyph name="K" format="2">
  <advance width="614"/>
  <unicode hex="004B"/>
  <outline>
    <contour>
      <point x="208" y="655" type="line"/>
      <point x="321" y="655" type="line"/>
      <point x="231" y="340" type="line"/>
      <point x="567" y="655" type="line"/>
      <point x="711" y="655" type="line"/>
      <point x="711" y="653" type="line"/>
      <point x="351" y="325" type="line"/>
      <point x="529" y="2" type="line"/>
      <point x="529" y="0" type="line"/>
      <point x="400" y="0" type="line"/>
      <point x="224" y="318" type="line"/>
      <point x="133" y="0" type="line"/>
      <point x="20" y="0" type="line"/>
    </contour>
  </outline>
</glyph>
<glyph name="N" format="2">
  <advance width="614"/>
  <unicode hex="004E"/>
  <outline>
    <contour>
      <point x="256" y="495" type="line"/>
      <point x="119" y="0" type="line"/>
      <point x="16" y="0" type="line"/>
      <point x="203" y="655" type="line"/>
      <point x="324" y="655" type="line"/>
      <point x="414" y="168" type="line"/>
      <point x="548" y="655" type="line"/>
      <point x="652" y="655" type="line"/>
      <point x="464" y="0" type="line"/>
      <point x="347" y="0" type="line"/>
    </contour>
  </outline>
</glyph>
<glyph name="O" format="2">
  <advance width="614"/>
  <unicode hex="004F"/>
  <outline>
    <contour>
      <point x="80" y="364" type="qcurve"/>
      <point x="122" y="509"/>
      <point x="294" y="670"/>
      <point x="407" y="670" type="qcurve"/>
      <point x="509" y="670"/>
      <point x="617" y="561"/>
      <point x="617" y="458" type="qcurve"/>
      <point x="617" y="412"/>
      <point x="606" y="339"/>
      <point x="593" y="291" type="qcurve"/>
      <point x="551" y="146"/>
      <point x="379" y="-15"/>
      <point x="266" y="-15" type="qcurve"/>
      <point x="164" y="-15"/>
      <point x="57" y="94"/>
      <point x="57" y="197" type="qcurve"/>
      <point x="57" y="245"/>
      <point x="67" y="318"/>
    </contour>
    <contour>
      <point x="172" y="200" type="qcurve"/>
      <point x="172" y="141"/>
      <point x="223" y="79"/>
      <point x="273" y="79" type="qcurve"/>
      <point x="340" y="79"/>
      <point x="446" y="194"/>
      <point x="477" y="302" type="qcurve"/>
      <point x="490" y="346"/>
      <point x="502" y="422"/>
      <point x="502" y="455" type="qcurve"/>
      <point x="502" y="514"/>
      <point x="450" y="576"/>
      <point x="400" y="576" type="qcurve"/>
      <point x="333" y="576"/>
      <point x="228" y="461"/>
      <point x="196" y="353" type="qcurve"/>
      <point x="184" y="311"/>
      <point x="172" y="235"/>
    </contour>
  </outline>
</glyph>
<glyph name="Q" format="2">
  <advance width="614"/>
  <unicode hex="0051"/>
  <outline>
    <contour>
      <point x="435" y="45" type="qcurve"/>
      <point x="535" y="-121" type="line"/>
      <point x="413" y="-173" type="line"/>
      <point x="348" y="2" type="line"/>
      <point x="328" y="-3"/>
      <point x="286" y="-9"/>
      <point x="266" y="-9" type="qcurve"/>
      <point x="165" y="-9"/>
      <point x="57" y="97"/>
      <point x="57" y="197" type="qcurve"/>
      <point x="57" y="245"/>
      <point x="67" y="318"/>
      <point x="80" y="364" type="qcurve"/>
      <point x="122" y="509"/>
      <point x="294" y="670"/>
      <point x="407" y="670" type="qcurve"/>
      <point x="509" y="670"/>
      <point x="617" y="561"/>
      <point x="617" y="458" type="qcurve"/>
      <point x="617" y="412"/>
      <point x="606" y="339"/>
      <point x="593" y="291" type="qcurve"/>
      <point x="569" y="208"/>
      <point x="489" y="83"/>
    </contour>
    <contour>
      <point x="172" y="200" type="qcurve"/>
      <point x="172" y="141"/>
      <point x="223" y="79"/>
      <point x="273" y="79" type="qcurve"/>
      <point x="340" y="79"/>
      <point x="446" y="194"/>
      <point x="477" y="302" type="qcurve"/>
      <point x="490" y="346"/>
      <point x="502" y="422"/>
      <point x="502" y="455" type="qcurve"/>
      <point x="502" y="514"/>
      <point x="450" y="576"/>
      <point x="400" y="576" type="qcurve"/>
      <point x="333" y="576"/>
      <point x="228" y="461"/>
      <point x="196" y="353" type="qcurve"/>
      <point x="184" y="311"/>
      <point x="172" y="235"/>
    </contour>
  </outline>
</glyph>
<glyph name="S" format="2">
  <advance width="614"/>
  <unicode hex="0053"/>
  <outline>
    <contour>
      <point x="301" y="83" type="qcurve"/>
      <point x="363" y="83"/>
      <point x="428" y="128"/>
      <point x="428" y="172" type="qcurve"/>
      <point x="428" y="203"/>
      <point x="389" y="246"/>
      <point x="341" y="273" type="qcurve"/>
      <point x="274" y="309" type="line"/>
      <point x="209" y="344"/>
      <point x="154" y="423"/>
      <point x="154" y="480" type="qcurve"/>
      <point x="154" y="563"/>
      <point x="285" y="666"/>
      <point x="395" y="666" type="qcurve"/>
      <point x="449" y="666"/>
      <point x="552" y="647"/>
      <point x="625" y="623" type="qcurve"/>
      <point x="596" y="527" type="line"/>
      <point x="533" y="549"/>
      <point x="436" y="570"/>
      <point x="392" y="570" type="qcurve"/>
      <point x="331" y="570"/>
      <point x="267" y="526"/>
      <point x="267" y="486" type="qcurve"/>
      <point x="267" y="459"/>
      <point x="300" y="419"/>
      <point x="338" y="398" type="qcurve"/>
      <point x="405" y="361" type="line"/>
      <point x="483" y="318"/>
      <point x="541" y="244"/>
      <point x="541" y="183" type="qcurve"/>
      <point x="541" y="92"/>
      <point x="413" y="-13"/>
      <point x="301" y="-13" type="qcurve"/>
      <point x="232" y="-13"/>
      <point x="97" y="17"/>
      <point x="19" y="50" type="qcurve"/>
      <point x="54" y="147" type="line"/>
      <point x="132" y="114"/>
      <point x="251" y="83"/>
    </contour>
  </outline>
</glyph>
<glyph name="X" format="2">
  <advance width="614"/>
  <unicode hex="0058"/>
  <outline>
    <contour>
      <point x="92" y="0" type="line"/>
      <point x="-32" y="0" type="line"/>
      <point x="273" y="342" type="line"/>
      <point x="170" y="655" type="line"/>
      <point x="288" y="655" type="line"/>
      <point x="355" y="422" type="line"/>
      <point x="548" y="655" type="line"/>
      <point x="682" y="655" type="line"/>
      <point x="393" y="332" type="line"/>
      <point x="510" y="0" type="line"/>
      <point x="383" y="0" type="line"/>
      <point x="310" y="252" type="line"/>
    </contour>
  </outline>
</glyph>
<glyph name="bracketright" format="2">
  <advance width="614"/>
  <unicode hex="005D"/>
  <outline>
    <contour>
      <point x="461" y="699" type="line"/>
      <point x="214" y="699" type="line"/>
      <point x="241" y="792" type="line"/>
      <point x="601" y="792" type="line"/>
      <point x="333" y="-141" type="line"/>
      <point x="-27" y="-141" type="line"/>
      <point x="0" y="-47" type="line"/>
      <point x="247" y="-47" type="line"/>
    </contour>
  </outline>
</glyph>
<glyph name="asciicircum" format="2">
  <advance width="614"/>
  <unicode hex="005E"/>
  <outline>
    <contour>
      <point x="174" y="271" type="line"/>
      <point x="55" y="271" type="line"/>
      <point x="360" y="655" type="line"/>
      <point x="495" y="655" type="line"/>
      <point x="578" y="271" type="line"/>
      <point x="468" y="271" type="line"/>
      <point x="411" y="581" type="line"/>
    </contour>
  </outline>
</glyph>
<glyph name="d" format="2">
  <advance width="614"/>
  <unicode hex="0064"/>
  <outline>
    <contour>
      <point x="463" y="0" type="line"/>
      <point x="379" y="0" type="line"/>
      <point x="379" y="68" type="line"/>
      <point x="333" y="29"/>
      <point x="249" y="-8"/>
      <point x="202" y="-8" type="qcurve"/>
      <point x="132" y="-8"/>
      <point x="41" y="92"/>
      <point x="41" y="174" type="qcurve"/>
      <point x="41" y="307"/>
      <point x="232" y="482"/>
      <point x="382" y="482" type="qcurve"/>
      <point x="409" y="482"/>
      <point x="460" y="476"/>
      <point x="486" y="470" type="qcurve"/>
      <point x="555" y="710" type="line"/>
      <point x="667" y="710" type="line"/>
    </contour>
    <contour>
      <point x="380" y="389" type="qcurve"/>
      <point x="282" y="389"/>
      <point x="158" y="272"/>
      <point x="158" y="188" type="qcurve"/>
      <point x="158" y="140"/>
      <point x="206" y="85"/>
      <point x="248" y="85" type="qcurve"/>
      <point x="282" y="85"/>
      <point x="350" y="119"/>
      <point x="397" y="158" type="qcurve"/>
      <point x="459" y="374" type="line"/>
      <point x="440" y="381"/>
      <point x="400" y="389"/>
    </contour>
  </outline>
</glyph>
<glyph name="g" format="2">
  <advance width="614"/>
  <unicode hex="0067"/>
  <outline>
    <contour>
      <point x="365" y="42" type="qcurve"/>
      <point x="378" y="87" type="line"/>
      <point x="334" y="50"/>
      <point x="252" y="16"/>
      <point x="207" y="16" type="qcurve"/>
      <point x="135" y="16"/>
      <point x="42" y="112"/>
      <point x="42" y="191" type="qcurve"/>
      <point x="42" y="317"/>
      <point x="233" y="482"/>
      <point x="383" y="482" type="qcurve"/>
      <point x="436" y="482"/>
      <point x="538" y="458"/>
      <point x="588" y="433" type="qcurve"/>
      <point x="473" y="31" type="line"/>
      <point x="449" y="-54"/>
      <point x="396" y="-149"/>
      <point x="357" y="-176" type="qcurve"/>
      <point x="321" y="-201"/>
      <point x="212" y="-228"/>
      <point x="124" y="-233" type="qcurve"/>
      <point x="3" y="-239" type="line"/>
      <point x="3" y="-144" type="line"/>
      <point x="125" y="-138" type="line"/>
      <point x="241" y="-132"/>
      <point x="335" y="-62"/>
    </contour>
    <contour>
      <point x="380" y="389" type="qcurve"/>
      <point x="282" y="389"/>
      <point x="160" y="283"/>
      <point x="160" y="206" type="qcurve"/>
      <point x="160" y="161"/>
      <point x="210" y="109"/>
      <point x="253" y="109" type="qcurve"/>
      <point x="288" y="109"/>
      <point x="357" y="144"/>
      <point x="406" y="185" type="qcurve"/>
      <point x="459" y="374" type="line"/>
      <point x="441" y="381"/>
      <point x="401" y="389"/>
    </contour>
  </outline>
</glyph>
<glyph name="j" format="2">
  <advance width="614"/>
  <unicode hex="006A"/>
  <outline>
    <contour>
      <point x="578" y="678" type="qcurve"/>
      <point x="578" y="639"/>
      <point x="522" y="592"/>
      <point x="474" y="592" type="qcurve"/>
      <point x="435" y="592"/>
      <point x="393" y="624"/>
      <point x="393" y="654" type="qcurve"/>
      <point x="393" y="692"/>
      <point x="449" y="740"/>
      <point x="498" y="740" type="qcurve"/>
      <point x="537" y="740"/>
      <point x="578" y="708"/>
    </contour>
    <contour>
      <point x="512" y="471" type="line"/>
      <point x="385" y="26" type="line"/>
      <point x="362" y="-55"/>
      <point x="311" y="-148"/>
      <point x="277" y="-175" type="qcurve"/>
      <point x="243" y="-201"/>
      <point x="140" y="-228"/>
      <point x="55" y="-233" type="qcurve"/>
      <point x="-30" y="-237" type="line"/>
      <point x="-30" y="-141" type="line"/>
      <point x="58" y="-136" type="line"/>
      <point x="113" y="-133"/>
      <point x="187" y="-114"/>
      <point x="211" y="-91" type="qcurve"/>
      <point x="233" y="-72"/>
      <point x="263" y="-9"/>
      <point x="276" y="38" type="qcurve"/>
      <point x="373" y="376" type="line"/>
      <point x="158" y="376" type="line"/>
      <point x="185" y="471" type="line"/>
    </contour>
  </outline>
</glyph>
<glyph name="m" format="2">
  <advance width="614"/>
  <unicode hex="006D"/>
  <outline>
    <contour>
      <point x="115" y="471" type="line"/>
      <point x="195" y="471" type="line"/>
      <point x="172" y="352" type="line"/>
      <point x="179" y="352" type="line"/>
      <point x="239" y="423"/>
      <point x="314" y="482"/>
      <point x="347" y="482" type="qcurve"/>
      <point x="375" y="482"/>
      <point x="404" y="455"/>
      <point x="404" y="429" type="qcurve"/>
      <point x="404" y="421"/>
      <point x="400" y="399"/>
      <point x="396" y="384" type="qcurve"/>
      <point x="387" y="352" type="line"/>
      <point x="396" y="352" type="line"/>
      <point x="454" y="424"/>
      <point x="525" y="482"/>
      <point x="559" y="482" type="qcurve"/>
      <point x="588" y="482"/>
      <point x="619" y="454"/>
      <point x="619" y="428" type="qcurve"/>
      <point x="619" y="420"/>
      <point x="616" y="402"/>
      <point x="610" y="376" type="qcurve"/>
      <point x="502" y="0" type="line"/>
      <point x="404" y="0" type="line"/>
      <point x="492" y="309" type="line"/>
      <point x="495" y="320"/>
      <point x="498" y="333"/>
      <point x="498" y="339" type="qcurve"/>
      <point x="498" y="351"/>
      <point x="485" y="363"/>
      <point x="472" y="363" type="qcurve"/>
      <point x="454" y="363"/>
      <point x="407" y="329"/>
      <point x="371" y="291" type="qcurve"/>
      <point x="288" y="0" type="line"/>
      <point x="195" y="0" type="line"/>
      <point x="284" y="309" type="line"/>
      <point x="287" y="317"/>
      <point x="289" y="332"/>
      <point x="289" y="340" type="qcurve"/>
      <point x="289" y="352"/>
      <point x="277" y="363"/>
      <point x="265" y="363" type="qcurve"/>
      <point x="246" y="363"/>
      <point x="199" y="328"/>
      <point x="161" y="288" type="qcurve"/>
      <point x="78" y="0" type="line"/>
      <point x="-20" y="0" type="line"/>
    </contour>
  </outline>
</glyph>
<glyph name="r" format="2">
  <advance width="614"/>
  <unicode hex="0072"/>
  <outline>
    <contour>
      <point x="-13" y="0" type="line"/>
      <point x="14" y="95" type="line"/>
      <point x="127" y="95" type="line"/>
      <point x="208" y="376" type="line"/>
      <point x="115" y="376" type="line"/>
      <point x="142" y="471" type="line"/>
      <point x="334" y="471" type="line"/>
      <point x="298" y="323" type="line"/>
      <point x="389" y="416"/>
      <point x="476" y="471"/>
      <point x="541" y="473" type="qcurve"/>
      <point x="606" y="475" type="line"/>
      <point x="597" y="360" type="line"/>
      <point x="517" y="357" type="line"/>
      <point x="484" y="356"/>
      <point x="439" y="348"/>
      <point x="415" y="336" type="qcurve"/>
      <point x="391" y="323"/>
      <point x="327" y="273"/>
      <point x="277" y="231" type="qcurve"/>
      <point x="238" y="95" type="line"/>
      <point x="378" y="95" type="line"/>
      <point x="350" y="0" type="line"/>
    </contour>
  </outline>
</glyph>
<glyph name="s" format="2">
  <advance width="614"/>
  <unicode hex="0073"/>
  <outline>
    <contour>
      <point x="505" y="137" type="qcurve"/>
      <point x="505" y="68"/>
      <point x="378" y="-12"/>
      <point x="264" y="-12" type="qcurve"/>
      <point x="203" y="-12"/>
      <point x="95" y="-1"/>
      <point x="22" y="14" type="qcurve"/>
      <point x="45" y="106" type="line"/>
      <point x="110" y="92"/>
      <point x="227" y="77"/>
      <point x="269" y="77" type="qcurve"/>
      <point x="330" y="77"/>
      <point x="392" y="102"/>
      <point x="392" y="127" type="qcurve"/>
      <point x="392" y="146"/>
      <point x="366" y="169"/>
      <point x="326" y="184" type="qcurve"/>
      <point x="260" y="208" type="line"/>
      <point x="181" y="237"/>
      <point x="122" y="293"/>
      <point x="122" y="343" type="qcurve"/>
      <point x="122" y="412"/>
      <point x="240" y="482"/>
      <point x="355" y="482" type="qcurve"/>
      <point x="399" y="482"/>
      <point x="511" y="470"/>
      <point x="565" y="460" type="qcurve"/>
      <point x="539" y="368" type="line"/>
      <point x="485" y="380"/>
      <point x="389" y="393"/>
      <point x="352" y="393" type="qcurve"/>
      <point x="292" y="393"/>
      <point x="236" y="373"/>
      <point x="236" y="351" type="qcurve"/>
      <point x="236" y="333"/>
      <point x="257" y="315"/>
      <point x="299" y="298" type="qcurve"/>
      <point x="363" y="273" type="line"/>
      <point x="448" y="242"/>
      <point x="505" y="188"/>
    </contour>
  </outline>
</glyph>
<glyph name="t" format="2">
  <advance width="614"/>
  <unicode hex="0074"/>
  <outline>
    <contour>
      <point x="364" y="376" type="line"/>
      <point x="312" y="239" type="line"/>
      <point x="301" y="211"/>
      <point x="291" y="170"/>
      <point x="291" y="156" type="qcurve"/>
      <point x="291" y="128"/>
      <point x="325" y="100"/>
      <point x="362" y="98" type="qcurve"/>
      <point x="482" y="90" type="line"/>
      <point x="455" y="-6" type="line"/>
      <point x="348" y="-2" type="line"/>
      <point x="260" y="1"/>
      <point x="174" y="66"/>
      <point x="174" y="129" type="qcurve"/>
      <point x="174" y="155"/>
      <point x="187" y="209"/>
      <point x="202" y="246" type="qcurve"/>
      <point x="252" y="376" type="line"/>
      <point x="92" y="376" type="line"/>
      <point x="119" y="471" type="line"/>
      <point x="290" y="471" type="line"/>
      <point x="355" y="639" type="line"/>
      <point x="464" y="639" type="line"/>
      <point x="400" y="471" type="line"/>
      <point x="579" y="471" type="line"/>
      <point x="552" y="376" type="line"/>
    </contour>
  </outline>
</glyph>
<glyph name="w" format="2">
  <advance width="614"/>
  <unicode hex="0077"/>
  <outline>
    <contour>
      <point x="645" y="471" type="line"/>
      <point x="419" y="0" type="line"/>
      <point x="312" y="0" type="line"/>
      <point x="302" y="224" type="line"/>
      <point x="163" y="0" type="line"/>
      <point x="59" y="0" type="line"/>
      <point x="105" y="471" type="line"/>
      <point x="208" y="471" type="line"/>
      <point x="165" y="128" type="line"/>
      <point x="346" y="411" type="line"/>
      <point x="361" y="411" type="line"/>
      <point x="379" y="131" type="line"/>
      <point x="534" y="471" type="line"/>
    </contour>
  </outline>
</glyph>
<glyph name="x" format="2">
  <advance width="614"/>
  <unicode hex="0078"/>
  <outline>
    <contour>
      <point x="125" y="0" type="line"/>
      <point x="-9" y="0" type="line"/>
      <point x="241" y="250" type="line"/>
      <point x="122" y="471" type="line"/>
      <point x="248" y="471" type="line"/>
      <point x="322" y="315" type="line"/>
      <point x="466" y="471" type="line"/>
      <point x="608" y="471" type="line"/>
      <point x="370" y="234" type="line"/>
      <point x="505" y="0" type="line"/>
      <point x="373" y="0" type="line"/>
      <point x="289" y="175" type="line"/>
    </contour>
  </outline>
</glyph>
<glyph name="y" format="2">
  <advance width="614"/>
  <unicode hex="0079"/>
  <outline>
    <contour>
      <point x="635" y="471" type="line"/>
      <point x="217" y="-136" type="line"/>
      <point x="176" y="-195"/>
      <point x="110" y="-226"/>
      <point x="34" y="-229" type="qcurve"/>
      <point x="-88" y="-235" type="line"/>
      <point x="-89" y="-141" type="line"/>
      <point x="24" y="-135" type="line"/>
      <point x="71" y="-133"/>
      <point x="107" y="-113"/>
      <point x="132" y="-77" type="qcurve"/>
      <point x="178" y="-12" type="line"/>
      <point x="112" y="471" type="line"/>
      <point x="226" y="471" type="line"/>
      <point x="265" y="106" type="line"/>
      <point x="505" y="471" type="line"/>
    </contour>
  </outline>
</glyph>
<glyph name="z" format="2">
  <advance width="614"/>
  <unicode hex="007A"/>
  <outline>
    <contour>
      <point x="469" y="0" type="line"/>
      <point x="38" y="0" type="line"/>
      <point x="38" y="54" type="line"/>
      <point x="395" y="379" type="line"/>
      <point x="395" y="382" type="line"/>
      <point x="133" y="382" type="line"/>
      <point x="159" y="471" type="line"/>
      <point x="567" y="471" type="line"/>
      <point x="567" y="416" type="line"/>
      <point x="213" y="92" type="line"/>
      <point x="213" y="89" type="line"/>
      <point x="495" y="89" type="line"/>
    </contour>
  </outline>
</glyph>
<glyph name="braceleft" format="2">
  <advance width="614"/>
  <unicode hex="007B"/>
  <outline>
    <contour>
      <point x="119" y="-27" type="qcurve"/>
      <point x="119" y="3"/>
      <point x="152" y="51"/>
      <point x="195" y="88" type="qcurve"/>
      <point x="255" y="140" type="line"/>
      <point x="282" y="163"/>
      <point x="299" y="183"/>
      <point x="299" y="193" type="qcurve"/>
      <point x="299" y="212"/>
      <point x="200" y="251"/>
      <point x="82" y="282" type="qcurve"/>
      <point x="110" y="380" type="line"/>
      <point x="157" y="392"/>
      <point x="230" y="411"/>
      <point x="257" y="419" type="qcurve"/>
      <point x="330" y="439"/>
      <point x="386" y="466"/>
      <point x="386" y="484" type="qcurve"/>
      <point x="386" y="491"/>
      <point x="378" y="511"/>
      <point x="368" y="526" type="qcurve"/>
      <point x="335" y="580" type="line"/>
      <point x="320" y="605"/>
      <point x="307" y="639"/>
      <point x="307" y="655" type="qcurve"/>
      <point x="307" y="702"/>
      <point x="375" y="757"/>
      <point x="445" y="767" type="qcurve"/>
      <point x="729" y="805" type="line"/>
      <point x="702" y="711" type="line"/>
      <point x="474" y="680" type="line"/>
      <point x="449" y="677"/>
      <point x="426" y="662"/>
      <point x="426" y="649" type="qcurve"/>
      <point x="426" y="641"/>
      <point x="433" y="624"/>
      <point x="442" y="610" type="qcurve"/>
      <point x="476" y="556" type="line"/>
      <point x="497" y="523"/>
      <point x="511" y="490"/>
      <point x="511" y="476" type="qcurve"/>
      <point x="511" y="442"/>
      <point x="446" y="399"/>
      <point x="370" y="377" type="qcurve"/>
      <point x="335" y="366"/>
      <point x="245" y="345"/>
      <point x="189" y="333" type="qcurve"/>
      <point x="185" y="319" type="line"/>
      <point x="228" y="308"/>
      <point x="295" y="289"/>
      <point x="321" y="281" type="qcurve"/>
      <point x="376" y="262"/>
      <point x="423" y="227"/>
      <point x="423" y="200" type="qcurve"/>
      <point x="423" y="179"/>
      <point x="390" y="137"/>
      <point x="345" y="99" type="qcurve"/>
      <point x="286" y="50" type="line"/>
      <point x="263" y="32"/>
      <point x="247" y="13"/>
      <point x="247" y="2" type="qcurve"/>
      <point x="247" y="-7"/>
      <point x="260" y="-17"/>
      <point x="273" y="-19" type="qcurve"/>
      <point x="483" y="-50" type="line"/>
      <point x="457" y="-143" type="line"/>
      <point x="239" y="-111" type="line"/>
      <point x="176" y="-102"/>
      <point x="119" y="-63"/>
    </contour>
  </outline>
</glyph>
<glyph name="braceright" format="2">
  <advance width="614"/>
  <unicode hex="007D"/>
  <outline>
    <contour>
      <point x="371" y="7" type="qcurve"/>
      <point x="371" y="-41"/>
      <point x="303" y="-95"/>
      <point x="233" y="-105" type="qcurve"/>
      <point x="-50" y="-143" type="line"/>
      <point x="-23" y="-49" type="line"/>
      <point x="205" y="-18" type="line"/>
      <point x="230" y="-15"/>
      <point x="252" y="0"/>
      <point x="252" y="13" type="qcurve"/>
      <point x="252" y="21"/>
      <point x="245" y="38"/>
      <point x="236" y="52" type="qcurve"/>
      <point x="202" y="106" type="line"/>
      <point x="183" y="137"/>
      <point x="168" y="172"/>
      <point x="168" y="186" type="qcurve"/>
      <point x="168" y="220"/>
      <point x="233" y="263"/>
      <point x="308" y="285" type="qcurve"/>
      <point x="343" y="296"/>
      <point x="433" y="317"/>
      <point x="489" y="329" type="qcurve"/>
      <point x="493" y="343" type="line"/>
      <point x="450" y="354"/>
      <point x="383" y="373"/>
      <point x="357" y="381" type="qcurve"/>
      <point x="302" y="400"/>
      <point x="255" y="435"/>
      <point x="255" y="462" type="qcurve"/>
      <point x="255" y="483"/>
      <point x="289" y="525"/>
      <point x="334" y="563" type="qcurve"/>
      <point x="392" y="612" type="line"/>
      <point x="415" y="630"/>
      <point x="431" y="649"/>
      <point x="431" y="660" type="qcurve"/>
      <point x="431" y="669"/>
      <point x="419" y="679"/>
      <point x="406" y="681" type="qcurve"/>
      <point x="195" y="712" type="line"/>
      <point x="222" y="805" type="line"/>
      <point x="440" y="773" type="line"/>
      <point x="502" y="764"/>
      <point x="559" y="725"/>
      <point x="559" y="689" type="qcurve"/>
      <point x="559" y="659"/>
      <point x="526" y="611"/>
      <point x="483" y="574" type="qcurve"/>
      <point x="423" y="522" type="line"/>
      <point x="396" y="499"/>
      <point x="379" y="479"/>
      <point x="379" y="469" type="qcurve"/>
      <point x="379" y="450"/>
      <point x="478" y="411"/>
      <point x="596" y="380" type="qcurve"/>
      <point x="568" y="282" type="line"/>
      <point x="521" y="270"/>
      <point x="448" y="251"/>
      <point x="421" y="243" type="qcurve"/>
      <point x="348" y="223"/>
      <point x="292" y="196"/>
      <point x="292" y="178" type="qcurve"/>
      <point x="292" y="171"/>
      <point x="300" y="151"/>
      <point x="310" y="136" type="qcurve"/>
      <point x="343" y="82" type="line"/>
      <point x="358" y="57"/>
      <point x="371" y="23"/>
    </contour>
  </outline>
</glyph>
<glyph name="asciitilde" format="2">
  <advance width="614"/>
  <unicode hex="007E"/>
  <outline>
    <contour>
      <point x="229" y="449" type="qcurve"/>
      <point x="255" y="449"/>
      <point x="298" y="423"/>
      <point x="346" y="380" type="qcurve"/>
      <point x="390" y="342"/>
      <point x="418" y="322"/>
      <point x="429" y="322" type="qcurve"/>
      <point x="442" y="322"/>
      <point x="474" y="363"/>
      <point x="533" y="458" type="qcurve"/>
      <point x="613" y="410" type="line"/>
      <point x="548" y="298"/>
      <point x="471" y="215"/>
      <point x="425" y="215" type="qcurve"/>
      <point x="400" y="215"/>
      <point x="358" y="240"/>
      <point x="308" y="284" type="qcurve"/>
      <point x="267" y="321"/>
      <point x="237" y="343"/>
      <point x="225" y="343" type="qcurve"/>
      <point x="212" y="343"/>
      <point x="179" y="301"/>
      <point x="122" y="207" type="qcurve"/>
      <point x="41" y="254" type="line"/>
      <point x="106" y="366"/>
      <point x="183" y="449"/>
    </contour>
  </outline>
</glyph>
<glyph name="sterling" format="2">
  <advance width="614"/>
  <unicode hex="00A3"/>
  <outline>
    <contour>
      <point x="491" y="0" type="line"/>
      <point x="8" y="0" type="line"/>
      <point x="8" y="57" type="line"/>
      <point x="102" y="130"/>
      <point x="211" y="223"/>
      <point x="232" y="249" type="qcurve"/>
      <point x="82" y="249" type="line"/>
      <point x="101" y="315" type="line"/>
      <point x="243" y="315" type="line"/>
      <point x="240" y="322"/>
      <point x="229" y="339"/>
      <point x="216" y="356" type="qcurve"/>
      <point x="187" y="394"/>
      <point x="167" y="448"/>
      <point x="167" y="480" type="qcurve"/>
      <point x="167" y="559"/>
      <point x="302" y="670"/>
      <point x="410" y="670" type="qcurve"/>
      <point x="484" y="670"/>
      <point x="590" y="622"/>
      <point x="652" y="559" type="qcurve"/>
      <point x="582" y="484" type="line"/>
      <point x="534" y="536"/>
      <point x="458" y="576"/>
      <point x="407" y="576" type="qcurve"/>
      <point x="352" y="576"/>
      <point x="280" y="518"/>
      <point x="280" y="478" type="qcurve"/>
      <point x="280" y="461"/>
      <point x="292" y="426"/>
      <point x="312" y="395" type="qcurve"/>
      <point x="329" y="367"/>
      <point x="342" y="338"/>
      <point x="344" y="323" type="qcurve"/>
      <point x="535" y="323" type="line"/>
      <point x="516" y="256" type="line"/>
      <point x="336" y="256" type="line"/>
      <point x="323" y="227"/>
      <point x="245" y="151"/>
      <point x="169" y="94" type="qcurve"/>
      <point x="518" y="94" type="line"/>
    </contour>
  </outline>
</glyph>
<glyph name="section" format="2">
  <advance width="614"/>
  <unicode hex="00A7"/>
  <outline>
    <contour>
      <point x="34" y="180" type="qcurve"/>
      <point x="34" y="210"/>
      <point x="54" y="260"/>
      <point x="77" y="283" type="qcurve"/>
      <point x="101" y="307"/>
      <point x="182" y="356"/>
      <point x="241" y="385" type="qcurve"/>
      <point x="207" y="411"/>
      <point x="177" y="468"/>
      <point x="177" y="508" type="qcurve"/>
      <point x="177" y="583"/>
      <point x="300" y="668"/>
      <point x="412" y="668" type="qcurve"/>
      <point x="465" y="668"/>
      <point x="572" y="652"/>
      <point x="635" y="635" type="qcurve"/>
      <point x="608" y="542" type="line"/>
      <point x="550" y="559"/>
      <point x="454" y="575"/>
      <point x="410" y="575" type="qcurve"/>
      <point x="348" y="575"/>
      <point x="289" y="546"/>
      <point x="289" y="515" type="qcurve"/>
      <point x="289" y="493"/>
      <point x="319" y="463"/>
      <point x="363" y="438" type="qcurve"/>
      <point x="451" y="387" type="line"/>
      <point x="514" y="350"/>
      <point x="563" y="290"/>
      <point x="563" y="248" type="qcurve"/>
      <point x="563" y="215"/>
      <point x="540" y="163"/>
      <point x="514" y="138" type="qcurve"/>
      <point x="489" y="116"/>
      <point x="411" y="70"/>
      <point x="355" y="43" type="qcurve"/>
      <point x="391" y="17"/>
      <point x="421" y="-40"/>
      <point x="421" y="-80" type="qcurve"/>
      <point x="421" y="-155"/>
      <point x="297" y="-240"/>
      <point x="185" y="-240" type="qcurve"/>
      <point x="132" y="-240"/>
      <point x="25" y="-224"/>
      <point x="-37" y="-207" type="qcurve"/>
      <point x="-11" y="-114" type="line"/>
      <point x="47" y="-131"/>
      <point x="143" y="-147"/>
      <point x="187" y="-147" type="qcurve"/>
      <point x="250" y="-147"/>
      <point x="309" y="-118"/>
      <point x="309" y="-87" type="qcurve"/>
      <point x="309" y="-66"/>
      <point x="279" y="-35"/>
      <point x="235" y="-10" type="qcurve"/>
      <point x="146" y="42" type="line"/>
      <point x="83" y="78"/>
      <point x="34" y="138"/>
    </contour>
    <contour>
      <point x="147" y="201" type="qcurve"/>
      <point x="147" y="180"/>
      <point x="183" y="148"/>
      <point x="241" y="114" type="qcurve"/>
      <point x="281" y="90" type="line"/>
      <point x="330" y="116"/>
      <point x="396" y="154"/>
      <point x="415" y="170" type="qcurve"/>
      <point x="435" y="185"/>
      <point x="451" y="212"/>
      <point x="451" y="227" type="qcurve"/>
      <point x="451" y="248"/>
      <point x="415" y="280"/>
      <point x="356" y="314" type="qcurve"/>
      <point x="316" y="338" type="line"/>
      <point x="265" y="311"/>
      <point x="199" y="273"/>
      <point x="181" y="258" type="qcurve"/>
      <point x="162" y="243"/>
      <point x="147" y="216"/>
    </contour>
  </outline>
</glyph>
<glyph name="ordfeminine" format="2">
  <advance width="614"/>
  <unicode hex="00AA"/>
  <outline>
    <contour>
      <point x="555" y="564" type="qcurve"/>
      <point x="514" y="443" type="line"/>
      <point x="511" y="433"/>
      <point x="508" y="419"/>
      <point x="508" y="413" type="qcurve"/>
      <point x="508" y="405"/>
      <point x="518" y="396"/>
      <point x="532" y="394" type="qcurve"/>
      <point x="559" y="389" type="line"/>
      <point x="540" y="325" type="line"/>
      <point x="504" y="329" type="line"/>
      <point x="471" y="332"/>
      <point x="431" y="354"/>
      <point x="423" y="373" type="qcurve"/>
      <point x="419" y="373" type="line"/>
      <point x="376" y="347"/>
      <point x="296" y="324"/>
      <point x="249" y="324" type="qcurve"/>
      <point x="205" y="324"/>
      <point x="158" y="364"/>
      <point x="158" y="401" type="qcurve"/>
      <point x="158" y="429"/>
      <point x="176" y="482"/>
      <point x="192" y="498" type="qcurve"/>
      <point x="214" y="519"/>
      <point x="287" y="539"/>
      <point x="358" y="544" type="qcurve"/>
      <point x="466" y="551" type="line"/>
      <point x="474" y="575"/>
      <point x="476" y="585"/>
      <point x="476" y="590" type="qcurve"/>
      <point x="476" y="606"/>
      <point x="437" y="621"/>
      <point x="393" y="621" type="qcurve"/>
      <point x="369" y="621"/>
      <point x="291" y="614"/>
      <point x="245" y="607" type="qcurve"/>
      <point x="264" y="680" type="line"/>
      <point x="309" y="686"/>
      <point x="384" y="692"/>
      <point x="417" y="692" type="qcurve"/>
      <point x="492" y="692"/>
      <point x="565" y="653"/>
      <point x="565" y="613" type="qcurve"/>
      <point x="565" y="602"/>
      <point x="560" y="577"/>
    </contour>
    <contour>
      <point x="247" y="419" type="qcurve"/>
      <point x="247" y="405"/>
      <point x="267" y="391"/>
      <point x="287" y="391" type="qcurve"/>
      <point x="322" y="391"/>
      <point x="397" y="415"/>
      <point x="429" y="436" type="qcurve"/>
      <point x="448" y="494" type="line"/>
      <point x="369" y="488" type="line"/>
      <point x="320" y="484"/>
      <point x="274" y="474"/>
      <point x="265" y="465" type="qcurve"/>
      <point x="257" y="457"/>
      <point x="247" y="432"/>
    </contour>
    <contour>
      <point x="103" y="171" type="line"/>
      <point x="122" y="238" type="line"/>
      <point x="505" y="238" type="line"/>
      <point x="486" y="171" type="line"/>
    </contour>
  </outline>
</glyph>
<glyph name="registered" format="2">
  <advance width="614"/>
  <unicode hex="00AE"/>
  <outline>
    <contour>
      <point x="623" y="538" type="qcurve"/>
      <point x="623" y="476"/>
      <point x="581" y="357"/>
      <point x="542" y="311" type="qcurve"/>
      <point x="500" y="261"/>
      <point x="390" y="208"/>
      <point x="327" y="208" type="qcurve"/>
      <point x="231" y="208"/>
      <point x="123" y="307"/>
      <point x="123" y="395" type="qcurve"/>
      <point x="123" y="457"/>
      <point x="165" y="575"/>
      <point x="204" y="622" type="qcurve"/>
      <point x="245" y="672"/>
      <point x="355" y="725"/>
      <point x="418" y="725" type="qcurve"/>
      <point x="515" y="725"/>
      <point x="623" y="627"/>
    </contour>
    <contour>
      <point x="583" y="534" type="qcurve"/>
      <point x="583" y="610"/>
      <point x="499" y="689"/>
      <point x="419" y="689" type="qcurve"/>
      <point x="365" y="689"/>
      <point x="270" y="640"/>
      <point x="236" y="600" type="qcurve"/>
      <point x="203" y="560"/>
      <point x="164" y="456"/>
      <point x="164" y="399" type="qcurve"/>
      <point x="164" y="323"/>
      <point x="247" y="244"/>
      <point x="327" y="244" type="qcurve"/>
      <point x="380" y="244"/>
      <point x="473" y="290"/>
      <point x="507" y="329" type="qcurve"/>
      <point x="542" y="369"/>
      <point x="583" y="476"/>
    </contour>
    <contour>
      <point x="432" y="401" type="qcurve"/>
      <point x="462" y="345" type="line"/>
      <point x="461" y="343" type="line"/>
      <point x="398" y="343" type="line"/>
      <point x="368" y="408" type="line"/>
      <point x="358" y="427"/>
      <point x="343" y="440"/>
      <point x="330" y="442" type="qcurve"/>
      <point x="302" y="343" type="line"/>
      <point x="248" y="343" type="line"/>
      <point x="323" y="604" type="line"/>
      <point x="423" y="604" type="line"/>
      <point x="461" y="604"/>
      <point x="502" y="572"/>
      <point x="502" y="543" type="qcurve"/>
      <point x="502" y="502"/>
      <point x="446" y="457"/>
      <point x="392" y="453" type="qcurve"/>
      <point x="392" y="450" type="line"/>
      <point x="405" y="442"/>
      <point x="421" y="422"/>
    </contour>
    <contour>
      <point x="444" y="533" type="qcurve"/>
      <point x="444" y="546"/>
      <point x="427" y="560"/>
      <point x="410" y="560" type="qcurve"/>
      <point x="364" y="560" type="line"/>
      <point x="342" y="482" type="line"/>
      <point x="364" y="483" type="line"/>
      <point x="404" y="486"/>
      <point x="444" y="510"/>
    </contour>
  </outline>
</glyph>
<glyph name="degree" format="2">
  <advance width="614"/>
  <unicode hex="00B0"/>
  <outline>
    <contour>
      <point x="598" y="527" type="qcurve"/>
      <point x="598" y="428"/>
      <point x="457" y="287"/>
      <point x="355" y="287" type="qcurve"/>
      <point x="267" y="287"/>
      <point x="163" y="377"/>
      <point x="163" y="452" type="qcurve"/>
      <point x="163" y="551"/>
      <point x="304" y="692"/>
      <point x="405" y="692" type="qcurve"/>
      <point x="494" y="692"/>
      <point x="598" y="602"/>
    </contour>
    <contour>
      <point x="505" y="522" type="qcurve"/>
      <point x="505" y="563"/>
      <point x="451" y="613"/>
      <point x="406" y="613" type="qcurve"/>
      <point x="345" y="613"/>
      <point x="255" y="520"/>
      <point x="255" y="457" type="qcurve"/>
      <point x="255" y="416"/>
      <point x="310" y="366"/>
      <point x="355" y="366" type="qcurve"/>
      <point x="416" y="366"/>
      <point x="505" y="460"/>
    </contour>
  </outline>
</glyph>
<glyph name="mu" format="2">
  <advance width="614"/>
  <unicode hex="00B5"/>
  <outline>
    <contour>
      <point x="178" y="-9" type="qcurve"/>
      <point x="158" y="-9"/>
      <point x="126" y="7"/>
      <point x="115" y="22" type="qcurve"/>
      <point x="73" y="-213" type="line"/>
      <point x="68" y="-230" type="line"/>
      <point x="-50" y="-230" type="line"/>
      <point x="152" y="471" type="line"/>
      <point x="264" y="471" type="line"/>
      <point x="176" y="166" type="line"/>
      <point x="173" y="158"/>
      <point x="171" y="143"/>
      <point x="171" y="134" type="qcurve"/>
      <point x="171" y="115"/>
      <point x="193" y="96"/>
      <point x="216" y="96" type="qcurve"/>
      <point x="245" y="96"/>
      <point x="324" y="151"/>
      <point x="414" y="232" type="qcurve"/>
      <point x="482" y="471" type="line"/>
      <point x="594" y="471" type="line"/>
      <point x="459" y="0" type="line"/>
      <point x="359" y="0" type="line"/>
      <point x="386" y="116" type="line"/>
      <point x="304" y="43"/>
      <point x="220" y="-9"/>
    </contour>
  </outline>
</glyph>
<glyph name="paragraph" format="2">
  <advance width="614"/>
  <unicode hex="00B6"/>
  <outline>
    <contour>
      <point x="419" y="599" type="line"/>
      <point x="326" y="273" type="line"/>
      <point x="322" y="273" type="line"/>
      <point x="227" y="273"/>
      <point x="127" y="354"/>
      <point x="127" y="431" type="qcurve"/>
      <point x="127" y="550"/>
      <point x="293" y="686"/>
      <point x="444" y="686" type="qcurve"/>
      <point x="657" y="686" type="line"/>
      <point x="460" y="0" type="line"/>
      <point x="348" y="0" type="line"/>
      <point x="520" y="599" type="line"/>
    </contour>
  </outline>
</glyph>
<glyph name="ordmasculine" format="2">
  <advance width="614"/>
  <unicode hex="00BA"/>
  <outline>
    <contour>
      <point x="186" y="471" type="qcurve"/>
      <point x="186" y="566"/>
      <point x="318" y="692"/>
      <point x="420" y="692" type="qcurve"/>
      <point x="495" y="692"/>
      <point x="584" y="612"/>
      <point x="584" y="545" type="qcurve"/>
      <point x="584" y="450"/>
      <point x="452" y="324"/>
      <point x="350" y="324" type="qcurve"/>
      <point x="275" y="324"/>
      <point x="186" y="404"/>
    </contour>
    <contour>
      <point x="275" y="475" type="qcurve"/>
      <point x="275" y="440"/>
      <point x="320" y="398"/>
      <point x="359" y="398" type="qcurve"/>
      <point x="416" y="398"/>
      <point x="494" y="481"/>
      <point x="494" y="541" type="qcurve"/>
      <point x="494" y="577"/>
      <point x="450" y="618"/>
      <point x="411" y="618" type="qcurve"/>
      <point x="354" y="618"/>
      <point x="275" y="535"/>
    </contour>
    <contour>
      <point x="107" y="171" type="line"/>
      <point x="126" y="238" type="line"/>
      <point x="498" y="238" type="line"/>
      <point x="478" y="171" type="line"/>
    </contour>
  </outline>
</glyph>
<glyph name="guillemetright" format="2">
  <advance width="614"/>
  <unicode hex="00BB"/>
  <outline>
    <contour>
      <point x="570" y="280" type="line"/>
      <point x="544" y="188" type="line"/>
      <point x="254" y="-15" type="line"/>
      <point x="287" y="101" type="line"/>
      <point x="463" y="246" type="line"/>
      <point x="372" y="394" type="line"/>
      <point x="398" y="484" type="line"/>
    </contour>
    <contour>
      <point x="314" y="300" type="line"/>
      <point x="288" y="208" type="line"/>
      <point x="-2" y="-15" type="line"/>
      <point x="30" y="101" type="line"/>
      <point x="206" y="262" type="line"/>
      <point x="115" y="394" type="line"/>
      <point x="141" y="484" type="line"/>
    </contour>
  </outline>
</glyph>
<glyph name="questiondown" format="2">
  <advance width="614"/>
  <unicode hex="00BF"/>
  <outline>
    <contour>
      <point x="592" y="670" type="qcurve"/>
      <point x="592" y="625"/>
      <point x="531" y="575"/>
      <point x="475" y="575" type="qcurve"/>
      <point x="430" y="575"/>
      <point x="386" y="602"/>
      <point x="386" y="630" type="qcurve"/>
      <point x="386" y="674"/>
      <point x="447" y="725"/>
      <point x="504" y="725" type="qcurve"/>
      <point x="548" y="725"/>
      <point x="592" y="698"/>
    </contour>
    <contour>
      <point x="395" y="452" type="qcurve"/>
      <point x="469" y="452" type="line"/>
      <point x="466" y="409"/>
      <point x="461" y="364"/>
      <point x="457" y="351" type="qcurve"/>
      <point x="452" y="332"/>
      <point x="420" y="306"/>
      <point x="383" y="291" type="qcurve"/>
      <point x="285" y="252" type="line"/>
      <point x="222" y="227"/>
      <point x="169" y="180"/>
      <point x="169" y="144" type="qcurve"/>
      <point x="169" y="113"/>
      <point x="212" y="79"/>
      <point x="251" y="79" type="qcurve"/>
      <point x="294" y="79"/>
      <point x="399" y="111"/>
      <point x="496" y="152" type="qcurve"/>
      <point x="526" y="64" type="line"/>
      <point x="429" y="21"/>
      <point x="295" y="-15"/>
      <point x="228" y="-15" type="qcurve"/>
      <point x="144" y="-15"/>
      <point x="50" y="62"/>
      <point x="50" y="130" type="qcurve"/>
      <point x="50" y="201"/>
      <point x="133" y="290"/>
      <point x="233" y="331" type="qcurve"/>
      <point x="330" y="370" type="line"/>
      <point x="355" y="380"/>
      <point x="377" y="408"/>
    </contour>
  </outline>
</glyph>
<glyph name="Aring" format="2">
  <advance width="614"/>
  <unicode hex="00C5"/>
  <outline>
    <contour>
      <point x="178" y="155" type="line"/>
      <point x="87" y="0" type="line"/>
      <point x="-32" y="0" type="line"/>
      <point x="321" y="593" type="line"/>
      <point x="296" y="607"/>
      <point x="271" y="651"/>
      <point x="271" y="679" type="qcurve"/>
      <point x="271" y="744"/>
      <point x="370" y="824"/>
      <point x="454" y="824" type="qcurve"/>
      <point x="525" y="824"/>
      <point x="606" y="765"/>
      <point x="606" y="715" type="qcurve"/>
      <point x="606" y="667"/>
      <point x="549" y="595"/>
      <point x="498" y="579" type="qcurve"/>
      <point x="513" y="0" type="line"/>
      <point x="404" y="0" type="line"/>
      <point x="402" y="155" type="line"/>
    </contour>
    <contour>
      <point x="525" y="711" type="qcurve"/>
      <point x="525" y="734"/>
      <point x="483" y="759"/>
      <point x="444" y="759" type="qcurve"/>
      <point x="402" y="759"/>
      <point x="351" y="717"/>
      <point x="351" y="683" type="qcurve"/>
      <point x="351" y="659"/>
      <point x="393" y="634"/>
      <point x="432" y="634" type="qcurve"/>
      <point x="475" y="634"/>
      <point x="525" y="677"/>
    </contour>
    <contour>
      <point x="400" y="545" type="line"/>
      <point x="228" y="244" type="line"/>
      <point x="404" y="244" type="line"/>
    </contour>
  </outline>
</glyph>
<glyph name="AE" format="2">
  <advance width="614"/>
  <unicode hex="00C6"/>
  <outline>
    <contour>
      <point x="127" y="164" type="line"/>
      <point x="31" y="0" type="line"/>
      <point x="-71" y="0" type="line"/>
      <point x="325" y="655" type="line"/>
      <point x="701" y="655" type="line"/>
      <point x="676" y="566" type="line"/>
      <point x="496" y="566" type="line"/>
      <point x="441" y="374" type="line"/>
      <point x="601" y="374" type="line"/>
      <point x="576" y="287" type="line"/>
      <point x="416" y="287" type="line"/>
      <point x="359" y="89" type="line"/>
      <point x="539" y="89" type="line"/>
      <point x="513" y="0" type="line"/>
      <point x="227" y="0" type="line"/>
      <point x="274" y="164" type="line"/>
    </contour>
    <contour>
      <point x="364" y="566" type="line"/>
      <point x="176" y="247" type="line"/>
      <point x="298" y="247" type="line"/>
      <point x="389" y="566" type="line"/>
    </contour>
  </outline>
</glyph>
<glyph name="Ccedilla" format="2">
  <advance width="614"/>
  <unicode hex="00C7"/>
  <outline>
    <contour>
      <point x="387" y="-144" type="qcurve"/>
      <point x="387" y="-188"/>
      <point x="332" y="-232"/>
      <point x="268" y="-246" type="qcurve"/>
      <point x="236" y="-253"/>
      <point x="150" y="-265"/>
      <point x="95" y="-270" type="qcurve"/>
      <point x="94" y="-212" type="line"/>
      <point x="130" y="-209"/>
      <point x="187" y="-203"/>
      <point x="208" y="-200" type="qcurve"/>
      <point x="261" y="-192"/>
      <point x="303" y="-174"/>
      <point x="303" y="-155" type="qcurve"/>
      <point x="303" y="-139"/>
      <point x="247" y="-122"/>
      <point x="179" y="-117" type="qcurve"/>
      <point x="176" y="-107" type="line"/>
      <point x="234" y="-12" type="line"/>
      <point x="150" y="-1"/>
      <point x="63" y="111"/>
      <point x="63" y="209" type="qcurve"/>
      <point x="63" y="294"/>
      <point x="117" y="457"/>
      <point x="166" y="522" type="qcurve"/>
      <point x="220" y="594"/>
      <point x="367" y="670"/>
      <point x="452" y="670" type="qcurve"/>
      <point x="515" y="670"/>
      <point x="610" y="632"/>
      <point x="662" y="587" type="qcurve"/>
      <point x="599" y="505" type="line"/>
      <point x="554" y="545"/>
      <point x="489" y="576"/>
      <point x="445" y="576" type="qcurve"/>
      <point x="389" y="576"/>
      <point x="285" y="509"/>
      <point x="246" y="448" type="qcurve"/>
      <point x="214" y="398"/>
      <point x="179" y="277"/>
      <point x="179" y="214" type="qcurve"/>
      <point x="179" y="151"/>
      <point x="236" y="79"/>
      <point x="285" y="79" type="qcurve"/>
      <point x="326" y="79"/>
      <point x="414" y="111"/>
      <point x="480" y="150" type="qcurve"/>
      <point x="528" y="68" type="line"/>
      <point x="460" y="26"/>
      <point x="346" y="-13"/>
      <point x="289" y="-15" type="qcurve"/>
      <point x="259" y="-64" type="line"/>
      <point x="327" y="-73"/>
      <point x="387" y="-109"/>
    </contour>
  </outline>
</glyph>
<glyph name="multiply" format="2">
  <advance width="614"/>
  <unicode hex="00D7"/>
  <outline>
    <contour>
      <point x="322" y="264" type="line"/>
      <point x="104" y="92" type="line"/>
      <point x="48" y="167" type="line"/>
      <point x="270" y="337" type="line"/>
      <point x="143" y="505" type="line"/>
      <point x="227" y="567" type="line"/>
      <point x="346" y="396" type="line"/>
      <point x="562" y="567" type="line"/>
      <point x="619" y="493" type="line"/>
      <point x="398" y="323" type="line"/>
      <point x="527" y="152" type="line"/>
      <point x="444" y="89" type="line"/>
    </contour>
  </outline>
</glyph>
<glyph name="Oslash" format="2">
  <advance width="614"/>
  <unicode hex="00D8"/>
  <outline>
    <contour>
      <point x="80" y="364" type="qcurve"/>
      <point x="122" y="509"/>
      <point x="294" y="670"/>
      <point x="407" y="670" type="qcurve"/>
      <point x="448" y="670"/>
      <point x="517" y="649"/>
      <point x="543" y="629" type="qcurve"/>
      <point x="622" y="726" type="line"/>
      <point x="723" y="726" type="line"/>
      <point x="588" y="578" type="line"/>
      <point x="602" y="553"/>
      <point x="617" y="493"/>
      <point x="617" y="458" type="qcurve"/>
      <point x="617" y="412"/>
      <point x="606" y="339"/>
      <point x="593" y="291" type="qcurve"/>
      <point x="551" y="146"/>
      <point x="379" y="-15"/>
      <point x="266" y="-15" type="qcurve"/>
      <point x="225" y="-15"/>
      <point x="154" y="8"/>
      <point x="127" y="30" type="qcurve"/>
      <point x="44" y="-71" type="line"/>
      <point x="-55" y="-71" type="line"/>
      <point x="83" y="83" type="line"/>
      <point x="70" y="106"/>
      <point x="57" y="164"/>
      <point x="57" y="197" type="qcurve"/>
      <point x="57" y="245"/>
      <point x="67" y="318"/>
    </contour>
    <contour>
      <point x="172" y="200" type="qcurve"/>
      <point x="172" y="141"/>
      <point x="223" y="79"/>
      <point x="273" y="79" type="qcurve"/>
      <point x="340" y="79"/>
      <point x="446" y="194"/>
      <point x="477" y="302" type="qcurve"/>
      <point x="490" y="346"/>
      <point x="502" y="422"/>
      <point x="502" y="455" type="qcurve"/>
      <point x="502" y="514"/>
      <point x="450" y="576"/>
      <point x="400" y="576" type="qcurve"/>
      <point x="333" y="576"/>
      <point x="228" y="461"/>
      <point x="196" y="353" type="qcurve"/>
      <point x="184" y="311"/>
      <point x="172" y="235"/>
    </contour>
  </outline>
</glyph>
<glyph name="ccedilla" format="2">
  <advance width="614"/>
  <unicode hex="00E7"/>
  <outline>
    <contour>
      <point x="376" y="390" type="qcurve"/>
      <point x="337" y="390"/>
      <point x="266" y="360"/>
      <point x="238" y="332" type="qcurve"/>
      <point x="209" y="303"/>
      <point x="174" y="222"/>
      <point x="174" y="183" type="qcurve"/>
      <point x="174" y="135"/>
      <point x="232" y="80"/>
      <point x="281" y="80" type="qcurve"/>
      <point x="320" y="80"/>
      <point x="407" y="105"/>
      <point x="475" y="135" type="qcurve"/>
      <point x="509" y="48" type="line"/>
      <point x="445" y="15"/>
      <point x="330" y="-14"/>
      <point x="256" y="-14" type="qcurve"/>
      <point x="226" y="-64" type="line"/>
      <point x="293" y="-73"/>
      <point x="353" y="-109"/>
      <point x="353" y="-144" type="qcurve"/>
      <point x="353" y="-188"/>
      <point x="299" y="-232"/>
      <point x="235" y="-246" type="qcurve"/>
      <point x="203" y="-253"/>
      <point x="117" y="-265"/>
      <point x="62" y="-270" type="qcurve"/>
      <point x="61" y="-212" type="line"/>
      <point x="97" y="-209"/>
      <point x="154" y="-203"/>
      <point x="175" y="-200" type="qcurve"/>
      <point x="228" y="-192"/>
      <point x="270" y="-174"/>
      <point x="270" y="-155" type="qcurve"/>
      <point x="270" y="-139"/>
      <point x="214" y="-122"/>
      <point x="146" y="-117" type="qcurve"/>
      <point x="143" y="-107" type="line"/>
      <point x="204" y="-9" type="line"/>
      <point x="130" y="5"/>
      <point x="51" y="99"/>
      <point x="51" y="172" type="qcurve"/>
      <point x="51" y="233"/>
      <point x="99" y="348"/>
      <point x="143" y="392" type="qcurve"/>
      <point x="188" y="437"/>
      <point x="302" y="484"/>
      <point x="366" y="484" type="qcurve"/>
      <point x="429" y="484"/>
      <point x="531" y="455"/>
      <point x="590" y="422" type="qcurve"/>
      <point x="543" y="333" type="line"/>
      <point x="483" y="366"/>
      <point x="412" y="390"/>
    </contour>
  </outline>
</glyph>
<glyph name="Aogonek" format="2">
  <advance width="614"/>
  <unicode hex="0104"/>
  <outline>
    <contour>
      <point x="178" y="155" type="line"/>
      <point x="87" y="0" type="line"/>
      <point x="-32" y="0" type="line"/>
      <point x="358" y="655" type="line"/>
      <point x="496" y="655" type="line"/>
      <point x="513" y="0" type="line"/>
      <point x="487" y="0" type="line"/>
      <point x="435" y="-54"/>
      <point x="390" y="-113"/>
      <point x="390" y="-133" type="qcurve"/>
      <point x="390" y="-145"/>
      <point x="409" y="-155"/>
      <point x="433" y="-156" type="qcurve"/>
      <point x="491" y="-160" type="line"/>
      <point x="462" y="-234" type="line"/>
      <point x="389" y="-231" type="line"/>
      <point x="337" y="-229"/>
      <point x="291" y="-200"/>
      <point x="291" y="-168" type="qcurve"/>
      <point x="291" y="-136"/>
      <point x="351" y="-64"/>
      <point x="428" y="0" type="qcurve"/>
      <point x="404" y="0" type="line"/>
      <point x="402" y="155" type="line"/>
    </contour>
    <contour>
      <point x="400" y="545" type="line"/>
      <point x="228" y="244" type="line"/>
      <point x="404" y="244" type="line"/>
    </contour>
  </outline>
</glyph>
<glyph name="eogonek" format="2">
  <advance width="614"/>
  <unicode hex="0119"/>
  <outline>
    <contour>
      <point x="423" y="81" type="line"/>
      <point x="272" y="81"/>
      <point x="170" y="117"/>
      <point x="170" y="172" type="qcurve"/>
      <point x="170" y="173"/>
      <point x="170" y="176"/>
      <point x="170" y="177" type="qcurve"/>
      <point x="331" y="190" type="line"/>
      <point x="458" y="202"/>
      <point x="576" y="278"/>
      <point x="576" y="352" type="qcurve"/>
      <point x="576" y="414"/>
      <point x="481" y="486"/>
      <point x="397" y="486" type="qcurve"/>
      <point x="332" y="486"/>
      <point x="212" y="438"/>
      <point x="163" y="394" type="qcurve"/>
      <point x="113" y="348"/>
      <point x="57" y="229"/>
      <point x="57" y="169" type="qcurve"/>
      <point x="57" y="99"/>
      <point x="113" y="27"/>
      <point x="177" y="10" type="qcurve"/>
      <point x="215" y="0"/>
      <point x="299" y="-8"/>
      <point x="337" y="-9" type="qcurve"/>
      <point x="251" y="-81"/>
      <point x="206" y="-138"/>
      <point x="206" y="-168" type="qcurve"/>
      <point x="206" y="-200"/>
      <point x="252" y="-229"/>
      <point x="304" y="-231" type="qcurve"/>
      <point x="377" y="-234" type="line"/>
      <point x="406" y="-160" type="line"/>
      <point x="348" y="-156" type="line"/>
      <point x="324" y="-155"/>
      <point x="305" y="-145"/>
      <point x="305" y="-133" type="qcurve"/>
      <point x="305" y="-115"/>
      <point x="346" y="-62"/>
      <point x="396" y="-10" type="qcurve"/>
    </contour>
    <contour>
      <point x="181" y="249" type="line"/>
      <point x="204" y="313"/>
      <point x="319" y="397"/>
      <point x="386" y="397" type="qcurve"/>
      <point x="422" y="397"/>
      <point x="465" y="368"/>
      <point x="465" y="343" type="qcurve"/>
      <point x="465" y="310"/>
      <point x="399" y="272"/>
      <point x="330" y="265" type="qcurve"/>
    </contour>
  </outline>
</glyph>
<glyph name="hbar" format="2">
  <advance width="614"/>
  <unicode hex="0127"/>
  <outline>
    <contour>
      <point x="470" y="589" type="line"/>
      <point x="451" y="523" type="line"/>
      <point x="296" y="523" type="line"/>
      <point x="235" y="311" type="line"/>
      <point x="315" y="380"/>
      <point x="401" y="428"/>
      <point x="447" y="428" type="qcurve"/>
      <point x="496" y="428"/>
      <point x="550" y="377"/>
      <point x="550" y="331" type="qcurve"/>
      <point x="550" y="317"/>
      <point x="544" y="281"/>
      <point x="538" y="259" type="qcurve"/>
      <point x="463" y="0" type="line"/>
      <point x="351" y="0" type="line"/>
      <point x="421" y="246" type="line"/>
      <point x="426" y="262"/>
      <point x="429" y="279"/>
      <point x="429" y="286" type="qcurve"/>
      <point x="429" y="304"/>
      <point x="410" y="323"/>
      <point x="393" y="323" type="qcurve"/>
      <point x="365" y="323"/>
      <point x="293" y="271"/>
      <point x="200" y="187" type="qcurve"/>
      <point x="146" y="0" type="line"/>
      <point x="34" y="0" type="line"/>
      <point x="184" y="523" type="line"/>
      <point x="103" y="523" type="line"/>
      <point x="122" y="589" type="line"/>
      <point x="203" y="589" type="line"/>
      <point x="238" y="710" type="line"/>
      <point x="350" y="710" type="line"/>
      <point x="315" y="589" type="line"/>
    </contour>
  </outline>
</glyph>
<glyph name="Lslash" format="2">
  <advance width="614"/>
  <unicode hex="0141"/>
  <outline>
    <contour>
      <point x="121" y="246" type="line"/>
      <point x="24" y="190" type="line"/>
      <point x="48" y="271" type="line"/>
      <point x="144" y="327" type="line"/>
      <point x="238" y="655" type="line"/>
      <point x="351" y="655" type="line"/>
      <point x="276" y="395" type="line"/>
      <point x="504" y="528" type="line"/>
      <point x="481" y="446" type="line"/>
      <point x="253" y="313" type="line"/>
      <point x="190" y="93" type="line"/>
      <point x="507" y="93" type="line"/>
      <point x="480" y="0" type="line"/>
      <point x="50" y="0" type="line"/>
    </contour>
  </outline>
</glyph>
<glyph name="lslash" format="2">
  <advance width="614"/>
  <unicode hex="0142"/>
  <outline>
    <contour>
      <point x="237" y="297" type="line"/>
      <point x="77" y="217" type="line"/>
      <point x="102" y="302" type="line"/>
      <point x="269" y="386" type="line"/>
      <point x="351" y="615" type="line"/>
      <point x="175" y="615" type="line"/>
      <point x="202" y="710" type="line"/>
      <point x="497" y="710" type="line"/>
      <point x="401" y="439" type="line"/>
      <point x="590" y="535" type="line"/>
      <point x="566" y="451" type="line"/>
      <point x="369" y="351" type="line"/>
      <point x="333" y="249" type="line"/>
      <point x="320" y="214"/>
      <point x="310" y="173"/>
      <point x="310" y="152" type="qcurve"/>
      <point x="310" y="121"/>
      <point x="345" y="94"/>
      <point x="387" y="92" type="qcurve"/>
      <point x="499" y="88" type="line"/>
      <point x="471" y="-8" type="line"/>
      <point x="359" y="-5" type="line"/>
      <point x="270" y="-1"/>
      <point x="194" y="60"/>
      <point x="194" y="127" type="qcurve"/>
      <point x="194" y="154"/>
      <point x="209" y="220"/>
      <point x="225" y="264" type="qcurve"/>
    </contour>
  </outline>
</glyph>
<glyph name="oe" format="2">
  <advance width="614"/>
  <unicode hex="0153"/>
  <outline>
    <contour>
      <point x="266" y="68" type="qcurve"/>
      <point x="236" y="28"/>
      <point x="165" y="-14"/>
      <point x="127" y="-14" type="qcurve"/>
      <point x="64" y="-14"/>
      <point x="4" y="61"/>
      <point x="4" y="140" type="qcurve"/>
      <point x="4" y="222"/>
      <point x="60" y="374"/>
      <point x="108" y="423" type="qcurve"/>
      <point x="139" y="454"/>
      <point x="200" y="482"/>
      <point x="236" y="482" type="qcurve"/>
      <point x="282" y="482"/>
      <point x="339" y="429"/>
      <point x="347" y="378" type="qcurve"/>
      <point x="382" y="428"/>
      <point x="470" y="482"/>
      <point x="516" y="482" type="qcurve"/>
      <point x="568" y="482"/>
      <point x="625" y="428"/>
      <point x="625" y="379" type="qcurve"/>
      <point x="625" y="293"/>
      <point x="496" y="215"/>
      <point x="349" y="201" type="qcurve"/>
      <point x="346" y="178"/>
      <point x="345" y="160"/>
      <point x="345" y="152" type="qcurve"/>
      <point x="345" y="107"/>
      <point x="408" y="74"/>
      <point x="493" y="74" type="qcurve"/>
      <point x="467" y="-5" type="line"/>
      <point x="377" y="-5"/>
      <point x="283" y="29"/>
    </contour>
    <contour>
      <point x="523" y="361" type="qcurve"/>
      <point x="523" y="381"/>
      <point x="504" y="401"/>
      <point x="484" y="401" type="qcurve"/>
      <point x="452" y="401"/>
      <point x="387" y="325"/>
      <point x="366" y="264" type="qcurve"/>
      <point x="446" y="273"/>
      <point x="523" y="320"/>
    </contour>
    <contour>
      <point x="193" y="374" type="qcurve"/>
      <point x="162" y="343"/>
      <point x="113" y="196"/>
      <point x="113" y="133" type="qcurve"/>
      <point x="113" y="102"/>
      <point x="133" y="72"/>
      <point x="153" y="72" type="qcurve"/>
      <point x="164" y="72"/>
      <point x="186" y="83"/>
      <point x="197" y="94" type="qcurve"/>
      <point x="229" y="125"/>
      <point x="278" y="272"/>
      <point x="278" y="337" type="qcurve"/>
      <point x="278" y="366"/>
      <point x="257" y="397"/>
      <point x="238" y="397" type="qcurve"/>
      <point x="226" y="397"/>
      <point x="204" y="385"/>
    </contour>
  </outline>
</glyph>
<glyph name="scedilla" format="2">
  <advance width="614"/>
  <unicode hex="015F"/>
  <outline>
    <contour>
      <point x="505" y="137" type="qcurve"/>
      <point x="505" y="68"/>
      <point x="378" y="-12"/>
      <point x="264" y="-12" type="qcurve"/>
      <point x="261" y="-12"/>
      <point x="255" y="-12"/>
      <point x="252" y="-12" type="qcurve"/>
      <point x="221" y="-64" type="line"/>
      <point x="288" y="-73"/>
      <point x="348" y="-109"/>
      <point x="348" y="-144" type="qcurve"/>
      <point x="348" y="-188"/>
      <point x="294" y="-232"/>
      <point x="230" y="-246" type="qcurve"/>
      <point x="198" y="-253"/>
      <point x="112" y="-265"/>
      <point x="57" y="-270" type="qcurve"/>
      <point x="56" y="-212" type="line"/>
      <point x="92" y="-209"/>
      <point x="149" y="-203"/>
      <point x="170" y="-200" type="qcurve"/>
      <point x="223" y="-192"/>
      <point x="265" y="-174"/>
      <point x="265" y="-155" type="qcurve"/>
      <point x="265" y="-139"/>
      <point x="209" y="-122"/>
      <point x="141" y="-117" type="qcurve"/>
      <point x="138" y="-107" type="line"/>
      <point x="198" y="-10" type="line"/>
      <point x="159" y="-8"/>
      <point x="78" y="3"/>
      <point x="22" y="14" type="qcurve"/>
      <point x="45" y="106" type="line"/>
      <point x="110" y="92"/>
      <point x="227" y="77"/>
      <point x="269" y="77" type="qcurve"/>
      <point x="330" y="77"/>
      <point x="392" y="102"/>
      <point x="392" y="127" type="qcurve"/>
      <point x="392" y="146"/>
      <point x="366" y="169"/>
      <point x="326" y="184" type="qcurve"/>
      <point x="260" y="208" type="line"/>
      <point x="181" y="237"/>
      <point x="122" y="293"/>
      <point x="122" y="343" type="qcurve"/>
      <point x="122" y="412"/>
      <point x="240" y="482"/>
      <point x="355" y="482" type="qcurve"/>
      <point x="399" y="482"/>
      <point x="511" y="470"/>
      <point x="565" y="460" type="qcurve"/>
      <point x="539" y="368" type="line"/>
      <point x="485" y="380"/>
      <point x="389" y="393"/>
      <point x="352" y="393" type="qcurve"/>
      <point x="292" y="393"/>
      <point x="236" y="373"/>
      <point x="236" y="351" type="qcurve"/>
      <point x="236" y="333"/>
      <point x="257" y="315"/>
      <point x="299" y="298" type="qcurve"/>
      <point x="363" y="273" type="line"/>
      <point x="448" y="242"/>
      <point x="505" y="188"/>
    </contour>
  </outline>
</glyph>
<glyph name="Tcedilla" format="2">
  <advance width="614"/>
  <unicode hex="0162"/>
  <outline>
    <contour>
      <point x="341" y="561" type="line"/>
      <point x="135" y="561" type="line"/>
      <point x="163" y="655" type="line"/>
      <point x="686" y="655" type="line"/>
      <point x="658" y="561" type="line"/>
      <point x="454" y="561" type="line"/>
      <point x="293" y="0" type="line"/>
      <point x="265" y="0" type="line"/>
      <point x="230" y="-58" type="line"/>
      <point x="298" y="-67"/>
      <point x="358" y="-104"/>
      <point x="358" y="-139" type="qcurve"/>
      <point x="358" y="-183"/>
      <point x="303" y="-226"/>
      <point x="239" y="-240" type="qcurve"/>
      <point x="207" y="-248"/>
      <point x="121" y="-259"/>
      <point x="66" y="-264" type="qcurve"/>
      <point x="65" y="-206" type="line"/>
      <point x="102" y="-203"/>
      <point x="158" y="-197"/>
      <point x="179" y="-194" type="qcurve"/>
      <point x="232" y="-186"/>
      <point x="274" y="-168"/>
      <point x="274" y="-149" type="qcurve"/>
      <point x="274" y="-133"/>
      <point x="218" y="-116"/>
      <point x="150" y="-111" type="qcurve"/>
      <point x="147" y="-101" type="line"/>
      <point x="209" y="0" type="line"/>
      <point x="180" y="0" type="line"/>
    </contour>
  </outline>
</glyph>
<glyph name="tcedilla" format="2">
  <advance width="614"/>
  <unicode hex="0163"/>
  <outline>
    <contour>
      <point x="161" y="-102" type="line"/>
      <point x="238" y="21" type="line"/>
      <point x="206" y="36"/>
      <point x="174" y="90"/>
      <point x="174" y="129" type="qcurve"/>
      <point x="174" y="155"/>
      <point x="187" y="209"/>
      <point x="202" y="246" type="qcurve"/>
      <point x="252" y="376" type="line"/>
      <point x="92" y="376" type="line"/>
      <point x="119" y="471" type="line"/>
      <point x="290" y="471" type="line"/>
      <point x="355" y="639" type="line"/>
      <point x="464" y="639" type="line"/>
      <point x="400" y="471" type="line"/>
      <point x="579" y="471" type="line"/>
      <point x="552" y="376" type="line"/>
      <point x="364" y="376" type="line"/>
      <point x="312" y="239" type="line"/>
      <point x="301" y="211"/>
      <point x="291" y="170"/>
      <point x="291" y="156" type="qcurve"/>
      <point x="291" y="128"/>
      <point x="325" y="100"/>
      <point x="362" y="98" type="qcurve"/>
      <point x="482" y="90" type="line"/>
      <point x="455" y="-6" type="line"/>
      <point x="348" y="-2" type="line"/>
      <point x="328" y="-1"/>
      <point x="296" y="2"/>
      <point x="283" y="5" type="qcurve"/>
      <point x="245" y="-59" type="line"/>
      <point x="312" y="-68"/>
      <point x="372" y="-104"/>
      <point x="372" y="-139" type="qcurve"/>
      <point x="372" y="-183"/>
      <point x="317" y="-227"/>
      <point x="253" y="-241" type="qcurve"/>
      <point x="221" y="-248"/>
      <point x="135" y="-260"/>
      <point x="80" y="-265" type="qcurve"/>
      <point x="80" y="-207" type="line"/>
      <point x="116" y="-204"/>
      <point x="172" y="-198"/>
      <point x="194" y="-195" type="qcurve"/>
      <point x="246" y="-187"/>
      <point x="288" y="-169"/>
      <point x="288" y="-150" type="qcurve"/>
      <point x="288" y="-134"/>
      <point x="232" y="-117"/>
      <point x="164" y="-112" type="qcurve"/>
    </contour>
  </outline>
</glyph>
<glyph name="Tbar" format="2">
  <advance width="614"/>
  <unicode hex="0166"/>
  <outline>
    <contour>
      <point x="260" y="279" type="line"/>
      <point x="123" y="279" type="line"/>
      <point x="141" y="343" type="line"/>
      <point x="278" y="343" type="line"/>
      <point x="341" y="561" type="line"/>
      <point x="135" y="561" type="line"/>
      <point x="163" y="655" type="line"/>
      <point x="686" y="655" type="line"/>
      <point x="658" y="561" type="line"/>
      <point x="454" y="561" type="line"/>
      <point x="391" y="343" type="line"/>
      <point x="534" y="343" type="line"/>
      <point x="516" y="279" type="line"/>
      <point x="373" y="279" type="line"/>
      <point x="293" y="0" type="line"/>
      <point x="180" y="0" type="line"/>
    </contour>
  </outline>
</glyph>
<glyph name="tbar" format="2">
  <advance width="614"/>
  <unicode hex="0167"/>
  <outline>
    <contour>
      <point x="190" y="212" type="qcurve"/>
      <point x="98" y="212" type="line"/>
      <point x="116" y="277" type="line"/>
      <point x="214" y="277" type="line"/>
      <point x="254" y="382" type="line"/>
      <point x="95" y="382" type="line"/>
      <point x="119" y="471" type="line"/>
      <point x="290" y="471" type="line"/>
      <point x="355" y="639" type="line"/>
      <point x="464" y="639" type="line"/>
      <point x="400" y="471" type="line"/>
      <point x="579" y="471" type="line"/>
      <point x="555" y="382" type="line"/>
      <point x="366" y="382" type="line"/>
      <point x="326" y="277" type="line"/>
      <point x="470" y="277" type="line"/>
      <point x="451" y="212" type="line"/>
      <point x="302" y="212" type="line"/>
      <point x="295" y="193"/>
      <point x="289" y="164"/>
      <point x="289" y="153" type="qcurve"/>
      <point x="289" y="123"/>
      <point x="323" y="94"/>
      <point x="360" y="92" type="qcurve"/>
      <point x="480" y="84" type="line"/>
      <point x="455" y="-6" type="line"/>
      <point x="348" y="-2" type="line"/>
      <point x="260" y="1"/>
      <point x="174" y="66"/>
      <point x="174" y="129" type="qcurve"/>
      <point x="174" y="151"/>
      <point x="182" y="188"/>
    </contour>
  </outline>
</glyph>
<glyph name="Uogonek" format="2">
  <advance width="614"/>
  <unicode hex="0172"/>
  <outline>
    <contour>
      <point x="84" y="-173" type="qcurve"/>
      <point x="84" y="-142"/>
      <point x="142" y="-72"/>
      <point x="214" y="-11" type="qcurve"/>
      <point x="141" y="0"/>
      <point x="64" y="91"/>
      <point x="64" y="167" type="qcurve"/>
      <point x="64" y="190"/>
      <point x="75" y="247"/>
      <point x="88" y="290" type="qcurve"/>
      <point x="193" y="655" type="line"/>
      <point x="306" y="655" type="line"/>
      <point x="190" y="249" type="line"/>
      <point x="184" y="229"/>
      <point x="178" y="195"/>
      <point x="178" y="178" type="qcurve"/>
      <point x="178" y="134"/>
      <point x="232" y="87"/>
      <point x="282" y="87" type="qcurve"/>
      <point x="336" y="87"/>
      <point x="405" y="150"/>
      <point x="423" y="215" type="qcurve"/>
      <point x="550" y="655" type="line"/>
      <point x="662" y="655" type="line"/>
      <point x="533" y="206" type="line"/>
      <point x="500" y="92"/>
      <point x="373" y="-15"/>
      <point x="271" y="-15" type="qcurve"/>
      <point x="224" y="-65"/>
      <point x="184" y="-119"/>
      <point x="184" y="-138" type="qcurve"/>
      <point x="184" y="-150"/>
      <point x="202" y="-160"/>
      <point x="226" y="-161" type="qcurve"/>
      <point x="284" y="-165" type="line"/>
      <point x="255" y="-239" type="line"/>
      <point x="182" y="-236" type="line"/>
      <point x="130" y="-234"/>
      <point x="84" y="-205"/>
    </contour>
  </outline>
</glyph>
<glyph name="ohorn" format="2">
  <advance width="614"/>
  <unicode hex="01A1"/>
  <outline>
    <contour>
      <point x="46" y="182" type="qcurve"/>
      <point x="46" y="239"/>
      <point x="90" y="342"/>
      <point x="129" y="380" type="qcurve"/>
      <point x="171" y="422"/>
      <point x="289" y="471"/>
      <point x="357" y="471" type="qcurve"/>
      <point x="491" y="471" type="line"/>
      <point x="544" y="471"/>
      <point x="584" y="511"/>
      <point x="606" y="583" type="qcurve"/>
      <point x="710" y="583" type="line"/>
      <point x="678" y="477"/>
      <point x="608" y="406"/>
      <point x="537" y="406" type="qcurve"/>
      <point x="528" y="406"/>
      <point x="507" y="408"/>
      <point x="494" y="411" type="qcurve"/>
      <point x="490" y="405" type="line"/>
      <point x="528" y="378"/>
      <point x="568" y="308"/>
      <point x="568" y="268" type="qcurve"/>
      <point x="568" y="207"/>
      <point x="519" y="102"/>
      <point x="476" y="64" type="qcurve"/>
      <point x="435" y="27"/>
      <point x="323" y="-15"/>
      <point x="258" y="-15" type="qcurve"/>
      <point x="163" y="-15"/>
      <point x="46" y="94"/>
    </contour>
    <contour>
      <point x="162" y="187" type="qcurve"/>
      <point x="162" y="138"/>
      <point x="225" y="77"/>
      <point x="276" y="77" type="qcurve"/>
      <point x="347" y="77"/>
      <point x="452" y="193"/>
      <point x="452" y="269" type="qcurve"/>
      <point x="452" y="318"/>
      <point x="389" y="378"/>
      <point x="339" y="378" type="qcurve"/>
      <point x="267" y="378"/>
      <point x="162" y="264"/>
    </contour>
  </outline>
</glyph>
<glyph name="Uhorn" format="2">
  <advance width="614"/>
  <unicode hex="01AF"/>
  <outline>
    <contour>
      <point x="282" y="87" type="qcurve"/>
      <point x="336" y="87"/>
      <point x="405" y="150"/>
      <point x="423" y="215" type="qcurve"/>
      <point x="550" y="655" type="line"/>
      <point x="596" y="655" type="line"/>
      <point x="659" y="655"/>
      <point x="707" y="692"/>
      <point x="731" y="768" type="qcurve"/>
      <point x="833" y="768" type="line"/>
      <point x="803" y="664"/>
      <point x="724" y="588"/>
      <point x="643" y="588" type="qcurve"/>
      <point x="533" y="206" type="line"/>
      <point x="500" y="91"/>
      <point x="372" y="-15"/>
      <point x="268" y="-15" type="qcurve"/>
      <point x="169" y="-15"/>
      <point x="64" y="78"/>
      <point x="64" y="167" type="qcurve"/>
      <point x="64" y="190"/>
      <point x="75" y="247"/>
      <point x="88" y="290" type="qcurve"/>
      <point x="193" y="655" type="line"/>
      <point x="306" y="655" type="line"/>
      <point x="190" y="249" type="line"/>
      <point x="184" y="226"/>
      <point x="178" y="192"/>
      <point x="178" y="178" type="qcurve"/>
      <point x="178" y="134"/>
      <point x="232" y="87"/>
    </contour>
  </outline>
</glyph>
<glyph name="Oogonek" format="2">
  <advance width="614"/>
  <unicode hex="01EA"/>
  <outline>
    <contour>
      <point x="86" y="-173" type="qcurve"/>
      <point x="86" y="-142"/>
      <point x="144" y="-72"/>
      <point x="216" y="-11" type="qcurve"/>
      <point x="138" y="1"/>
      <point x="57" y="108"/>
      <point x="57" y="197" type="qcurve"/>
      <point x="57" y="245"/>
      <point x="67" y="318"/>
      <point x="80" y="364" type="qcurve"/>
      <point x="122" y="509"/>
      <point x="294" y="670"/>
      <point x="407" y="670" type="qcurve"/>
      <point x="509" y="670"/>
      <point x="617" y="561"/>
      <point x="617" y="458" type="qcurve"/>
      <point x="617" y="412"/>
      <point x="606" y="339"/>
      <point x="593" y="291" type="qcurve"/>
      <point x="552" y="148"/>
      <point x="384" y="-13"/>
      <point x="273" y="-15" type="qcurve"/>
      <point x="226" y="-65"/>
      <point x="186" y="-119"/>
      <point x="186" y="-138" type="qcurve"/>
      <point x="186" y="-150"/>
      <point x="204" y="-160"/>
      <point x="228" y="-161" type="qcurve"/>
      <point x="286" y="-165" type="line"/>
      <point x="257" y="-239" type="line"/>
      <point x="184" y="-236" type="line"/>
      <point x="132" y="-234"/>
      <point x="86" y="-205"/>
    </contour>
    <contour>
      <point x="172" y="200" type="qcurve"/>
      <point x="172" y="141"/>
      <point x="223" y="79"/>
      <point x="273" y="79" type="qcurve"/>
      <point x="340" y="79"/>
      <point x="446" y="194"/>
      <point x="477" y="302" type="qcurve"/>
      <point x="490" y="346"/>
      <point x="502" y="422"/>
      <point x="502" y="455" type="qcurve"/>
      <point x="502" y="514"/>
      <point x="450" y="576"/>
      <point x="400" y="576" type="qcurve"/>
      <point x="333" y="576"/>
      <point x="228" y="461"/>
      <point x="196" y="353" type="qcurve"/>
      <point x="184" y="311"/>
      <point x="172" y="235"/>
    </contour>
  </outline>
</glyph>
<glyph name="oogonek" format="2">
  <advance width="614"/>
  <unicode hex="01EB"/>
  <outline>
    <contour>
      <point x="85" y="-173" type="qcurve"/>
      <point x="85" y="-142"/>
      <point x="142" y="-72"/>
      <point x="214" y="-11" type="qcurve"/>
      <point x="137" y="2"/>
      <point x="46" y="110"/>
      <point x="46" y="189" type="qcurve"/>
      <point x="46" y="253"/>
      <point x="97" y="364"/>
      <point x="140" y="404" type="qcurve"/>
      <point x="182" y="442"/>
      <point x="293" y="486"/>
      <point x="356" y="486" type="qcurve"/>
      <point x="451" y="486"/>
      <point x="568" y="372"/>
      <point x="568" y="281" type="qcurve"/>
      <point x="568" y="217"/>
      <point x="516" y="104"/>
      <point x="471" y="64" type="qcurve"/>
      <point x="432" y="29"/>
      <point x="330" y="-13"/>
      <point x="271" y="-15" type="qcurve"/>
      <point x="224" y="-65"/>
      <point x="184" y="-119"/>
      <point x="184" y="-138" type="qcurve"/>
      <point x="184" y="-150"/>
      <point x="202" y="-160"/>
      <point x="226" y="-161" type="qcurve"/>
      <point x="284" y="-165" type="line"/>
      <point x="255" y="-239" type="line"/>
      <point x="182" y="-236" type="line"/>
      <point x="131" y="-234"/>
      <point x="85" y="-205"/>
    </contour>
    <contour>
      <point x="162" y="194" type="qcurve"/>
      <point x="162" y="142"/>
      <point x="225" y="77"/>
      <point x="276" y="77" type="qcurve"/>
      <point x="347" y="77"/>
      <point x="452" y="197"/>
      <point x="452" y="276" type="qcurve"/>
      <point x="452" y="328"/>
      <point x="389" y="393"/>
      <point x="338" y="393" type="qcurve"/>
      <point x="266" y="393"/>
      <point x="162" y="273"/>
    </contour>
  </outline>
</glyph>
<glyph name="dotlessj" format="2">
  <advance width="614"/>
  <unicode hex="0237"/>
  <outline>
    <contour>
      <point x="512" y="471" type="line"/>
      <point x="385" y="26" type="line"/>
      <point x="362" y="-55"/>
      <point x="311" y="-148"/>
      <point x="277" y="-175" type="qcurve"/>
      <point x="243" y="-201"/>
      <point x="140" y="-228"/>
      <point x="55" y="-233" type="qcurve"/>
      <point x="-30" y="-237" type="line"/>
      <point x="-30" y="-141" type="line"/>
      <point x="58" y="-136" type="line"/>
      <point x="109" y="-133"/>
      <point x="180" y="-116"/>
      <point x="204" y="-97" type="qcurve"/>
      <point x="229" y="-78"/>
      <point x="262" y="-12"/>
      <point x="276" y="38" type="qcurve"/>
      <point x="373" y="376" type="line"/>
      <point x="158" y="376" type="line"/>
      <point x="185" y="471" type="line"/>
    </contour>
  </outline>
</glyph>
<glyph name="ringhalfright" format="2">
  <advance width="614"/>
  <unicode hex="02BE"/>
  <outline>
    <contour>
      <point x="474" y="396" type="qcurve"/>
      <point x="433" y="354"/>
      <point x="301" y="315"/>
      <point x="203" y="315" type="qcurve"/>
      <point x="228" y="401" type="line"/>
      <point x="331" y="401"/>
      <point x="432" y="478"/>
      <point x="432" y="558" type="qcurve"/>
      <point x="432" y="599"/>
      <point x="365" y="639"/>
      <point x="296" y="639" type="qcurve"/>
      <point x="321" y="725" type="line"/>
      <point x="426" y="725"/>
      <point x="536" y="640"/>
      <point x="536" y="559" type="qcurve"/>
      <point x="536" y="509"/>
      <point x="505" y="427"/>
    </contour>
  </outline>
</glyph>
<glyph name="verticallinemod" format="2">
  <advance width="614"/>
  <unicode hex="02C8"/>
  <outline>
    <contour>
      <point x="498" y="715" type="line"/>
      <point x="386" y="323" type="line"/>
      <point x="279" y="323" type="line"/>
      <point x="391" y="715" type="line"/>
    </contour>
  </outline>
</glyph>
<glyph name="circumflexcmb" format="2">
  <unicode hex="0302"/>
  <outline>
    <contour>
      <point x="-56" y="547" type="line"/>
      <point x="-88" y="594" type="line"/>
      <point x="112" y="752" type="line"/>
      <point x="164" y="752" type="line"/>
      <point x="284" y="583" type="line"/>
      <point x="235" y="547" type="line"/>
      <point x="124" y="666" type="line"/>
    </contour>
  </outline>
</glyph>
<glyph name="dotaccentcmb" format="2">
  <unicode hex="0307"/>
  <outline>
    <contour>
      <point x="188" y="652" type="qcurve"/>
      <point x="188" y="615"/>
      <point x="140" y="567"/>
      <point x="103" y="567" type="qcurve"/>
      <point x="72" y="567"/>
      <point x="42" y="590"/>
      <point x="42" y="613" type="qcurve"/>
      <point x="42" y="649"/>
      <point x="90" y="699"/>
      <point x="127" y="699" type="qcurve"/>
      <point x="157" y="699"/>
      <point x="188" y="675"/>
    </contour>
  </outline>
</glyph>
<glyph name="hookcmb" format="2">
  <unicode hex="0309"/>
  <outline>
    <contour>
      <point x="241" y="676" type="qcurve"/>
      <point x="241" y="622"/>
      <point x="119" y="560"/>
      <point x="-7" y="547" type="qcurve"/>
      <point x="-13" y="599" type="line"/>
      <point x="-13" y="601" type="line"/>
      <point x="66" y="614"/>
      <point x="141" y="647"/>
      <point x="141" y="669" type="qcurve"/>
      <point x="141" y="686"/>
      <point x="80" y="709"/>
      <point x="12" y="719" type="qcurve"/>
      <point x="12" y="722" type="line"/>
      <point x="69" y="773" type="line"/>
      <point x="156" y="762"/>
      <point x="241" y="714"/>
    </contour>
  </outline>
</glyph>
<glyph name="hungarumlautcmb" format="2">
  <unicode hex="030B"/>
  <outline>
    <contour>
      <point x="-49" y="547" type="line"/>
      <point x="-89" y="590" type="line"/>
      <point x="76" y="749" type="line"/>
      <point x="131" y="695" type="line"/>
    </contour>
    <contour>
      <point x="188" y="547" type="line"/>
      <point x="147" y="590" type="line"/>
      <point x="313" y="749" type="line"/>
      <point x="367" y="695" type="line"/>
    </contour>
  </outline>
</glyph>
<glyph name="caroncmb" format="2">
  <unicode hex="030C"/>
  <outline>
    <contour>
      <point x="65" y="547" type="line"/>
      <point x="-55" y="715" type="line"/>
      <point x="-6" y="752" type="line"/>
      <point x="105" y="632" type="line"/>
      <point x="285" y="752" type="line"/>
      <point x="317" y="704" type="line"/>
      <point x="117" y="547" type="line"/>
    </contour>
  </outline>
</glyph>
<glyph name="commaturnedabovecmb" format="2">
  <unicode hex="0312"/>
  <outline>
    <contour>
      <point x="-1" y="644" type="qcurve"/>
      <point x="-1" y="698"/>
      <point x="121" y="760"/>
      <point x="247" y="773" type="qcurve"/>
      <point x="253" y="720" type="line"/>
      <point x="253" y="719" type="line"/>
      <point x="173" y="705"/>
      <point x="99" y="673"/>
      <point x="99" y="651" type="qcurve"/>
      <point x="99" y="634"/>
      <point x="161" y="610"/>
      <point x="228" y="600" type="qcurve"/>
      <point x="228" y="598" type="line"/>
      <point x="171" y="547" type="line"/>
      <point x="84" y="558"/>
      <point x="-1" y="606"/>
    </contour>
  </outline>
</glyph>
<glyph name="commaaboverightcmb" format="2">
  <unicode hex="0315"/>
  <outline>
    <contour>
      <point x="146" y="486" type="line"/>
      <point x="72" y="486" type="line"/>
      <point x="136" y="710" type="line"/>
      <point x="237" y="710" type="line"/>
    </contour>
  </outline>
</glyph>
<glyph name="dotbelowcmb" format="2">
  <unicode hex="0323"/>
  <outline>
    <contour>
      <point x="-40" y="-143" type="qcurve"/>
      <point x="-40" y="-180"/>
      <point x="-88" y="-228"/>
      <point x="-125" y="-228" type="qcurve"/>
      <point x="-157" y="-228"/>
      <point x="-187" y="-205"/>
      <point x="-187" y="-182" type="qcurve"/>
      <point x="-187" y="-147"/>
      <point x="-138" y="-96"/>
      <point x="-102" y="-96" type="qcurve"/>
      <point x="-72" y="-96"/>
      <point x="-40" y="-120"/>
    </contour>
  </outline>
</glyph>
<glyph name="uni0326" format="2">
  <unicode hex="0326"/>
  <outline>
    <contour>
      <point x="0" y="-173" type="qcurve"/>
      <point x="0" y="-226"/>
      <point x="-123" y="-289"/>
      <point x="-248" y="-302" type="qcurve"/>
      <point x="-255" y="-249" type="line"/>
      <point x="-254" y="-247" type="line"/>
      <point x="-175" y="-234"/>
      <point x="-101" y="-202"/>
      <point x="-101" y="-179" type="qcurve"/>
      <point x="-101" y="-162"/>
      <point x="-162" y="-139"/>
      <point x="-229" y="-129" type="qcurve"/>
      <point x="-229" y="-126" type="line"/>
      <point x="-173" y="-75" type="line"/>
      <point x="-85" y="-86"/>
      <point x="0" y="-134"/>
    </contour>
  </outline>
</glyph>
<glyph name="cedillacmb" format="2">
  <unicode hex="0327"/>
  <outline>
    <contour>
      <point x="-159" y="-102" type="line"/>
      <point x="-83" y="21" type="line"/>
      <point x="-28" y="21" type="line"/>
      <point x="-76" y="-59" type="line"/>
      <point x="-9" y="-68"/>
      <point x="51" y="-104"/>
      <point x="51" y="-139" type="qcurve"/>
      <point x="51" y="-183"/>
      <point x="-3" y="-227"/>
      <point x="-67" y="-241" type="qcurve"/>
      <point x="-99" y="-248"/>
      <point x="-185" y="-260"/>
      <point x="-240" y="-265" type="qcurve"/>
      <point x="-241" y="-207" type="line"/>
      <point x="-205" y="-204"/>
      <point x="-148" y="-198"/>
      <point x="-127" y="-195" type="qcurve"/>
      <point x="-74" y="-187"/>
      <point x="-32" y="-169"/>
      <point x="-32" y="-150" type="qcurve"/>
      <point x="-32" y="-134"/>
      <point x="-88" y="-117"/>
      <point x="-156" y="-112" type="qcurve"/>
    </contour>
  </outline>
</glyph>
<glyph name="circumflexbelowcmb" format="2">
  <unicode hex="032D"/>
  <outline>
    <contour>
      <point x="-75" y="-76" type="line"/>
      <point x="45" y="-244" type="line"/>
      <point x="-4" y="-281" type="line"/>
      <point x="-116" y="-161" type="line"/>
      <point x="-295" y="-281" type="line"/>
      <point x="-328" y="-234" type="line"/>
      <point x="-127" y="-76" type="line"/>
    </contour>
  </outline>
</glyph>
<glyph name="hcedilla" format="2">
  <advance width="614"/>
  <unicode hex="1E29"/>
  <outline>
    <contour>
      <point x="224" y="710" type="line"/>
      <point x="336" y="710" type="line"/>
      <point x="236" y="361" type="line"/>
      <point x="315" y="429"/>
      <point x="407" y="479"/>
      <point x="458" y="479" type="qcurve"/>
      <point x="509" y="479"/>
      <point x="565" y="428"/>
      <point x="565" y="383" type="qcurve"/>
      <point x="565" y="368"/>
      <point x="559" y="333"/>
      <point x="553" y="311" type="qcurve"/>
      <point x="463" y="0" type="line"/>
      <point x="351" y="0" type="line"/>
      <point x="436" y="297" type="line"/>
      <point x="440" y="311"/>
      <point x="444" y="330"/>
      <point x="444" y="338" type="qcurve"/>
      <point x="444" y="356"/>
      <point x="422" y="375"/>
      <point x="403" y="375" type="qcurve"/>
      <point x="372" y="375"/>
      <point x="289" y="317"/>
      <point x="201" y="238" type="qcurve"/>
      <point x="133" y="0" type="line"/>
      <point x="102" y="0" type="line"/>
      <point x="67" y="-59" type="line"/>
      <point x="134" y="-68"/>
      <point x="194" y="-104"/>
      <point x="194" y="-139" type="qcurve"/>
      <point x="194" y="-183"/>
      <point x="140" y="-227"/>
      <point x="76" y="-241" type="qcurve"/>
      <point x="44" y="-248"/>
      <point x="-42" y="-260"/>
      <point x="-97" y="-265" type="qcurve"/>
      <point x="-98" y="-207" type="line"/>
      <point x="-62" y="-204"/>
      <point x="-5" y="-198"/>
      <point x="16" y="-195" type="qcurve"/>
      <point x="69" y="-187"/>
      <point x="111" y="-169"/>
      <point x="111" y="-150" type="qcurve"/>
      <point x="111" y="-134"/>
      <point x="55" y="-117"/>
      <point x="-13" y="-112" type="qcurve"/>
      <point x="-16" y="-102" type="line"/>
      <point x="47" y="0" type="line"/>
      <point x="20" y="0" type="line"/>
    </contour>
  </outline>
</glyph>
<glyph name="emdash" format="2">
  <advance width="614"/>
  <unicode hex="2014"/>
  <outline>
    <contour>
      <point x="61" y="274" type="line"/>
      <point x="93" y="384" type="line"/>
      <point x="607" y="384" type="line"/>
      <point x="575" y="274" type="line"/>
    </contour>
  </outline>
</glyph>
<glyph name="quoteleft" format="2">
  <advance width="614"/>
  <unicode hex="2018"/>
  <outline>
    <contour>
      <point x="496" y="710" type="qcurve"/>
      <point x="601" y="710" type="line"/>
      <point x="600" y="708" type="line"/>
      <point x="520" y="632"/>
      <point x="434" y="507"/>
      <point x="399" y="410" type="qcurve"/>
      <point x="229" y="410" type="line"/>
      <point x="273" y="512"/>
      <point x="393" y="647"/>
    </contour>
  </outline>
</glyph>
<glyph name="quoteright" format="2">
  <advance width="614"/>
  <unicode hex="2019"/>
  <outline>
    <contour>
      <point x="299" y="410" type="qcurve"/>
      <point x="194" y="410" type="line"/>
      <point x="194" y="412" type="line"/>
      <point x="281" y="494"/>
      <point x="369" y="619"/>
      <point x="402" y="710" type="qcurve"/>
      <point x="571" y="710" type="line"/>
      <point x="529" y="611"/>
      <point x="406" y="475"/>
    </contour>
  </outline>
</glyph>
<glyph name="quotedblleft" format="2">
  <advance width="614"/>
  <unicode hex="201C"/>
  <outline>
    <contour>
      <point x="360" y="710" type="qcurve"/>
      <point x="451" y="710" type="line"/>
      <point x="451" y="708" type="line"/>
      <point x="370" y="626"/>
      <point x="293" y="514"/>
      <point x="250" y="405" type="qcurve"/>
      <point x="104" y="405" type="line"/>
      <point x="159" y="524"/>
      <point x="266" y="648"/>
    </contour>
    <contour>
      <point x="617" y="710" type="qcurve"/>
      <point x="707" y="710" type="line"/>
      <point x="707" y="708" type="line"/>
      <point x="627" y="628"/>
      <point x="550" y="516"/>
      <point x="507" y="405" type="qcurve"/>
      <point x="361" y="405" type="line"/>
      <point x="417" y="525"/>
      <point x="523" y="649"/>
    </contour>
  </outline>
</glyph>
<glyph name="dagger" format="2">
  <advance width="614"/>
  <unicode hex="2020"/>
  <outline>
    <contour>
      <point x="621" y="527" type="qcurve"/>
      <point x="592" y="425" type="line"/>
      <point x="572" y="425"/>
      <point x="526" y="432"/>
      <point x="482" y="443" type="qcurve"/>
      <point x="446" y="451"/>
      <point x="411" y="458"/>
      <point x="395" y="459" type="qcurve"/>
      <point x="384" y="420"/>
      <point x="364" y="327"/>
      <point x="346" y="234" type="qcurve"/>
      <point x="327" y="137"/>
      <point x="306" y="41"/>
      <point x="294" y="0" type="qcurve"/>
      <point x="182" y="0" type="line"/>
      <point x="194" y="41"/>
      <point x="228" y="138"/>
      <point x="266" y="235" type="qcurve"/>
      <point x="302" y="327"/>
      <point x="334" y="420"/>
      <point x="346" y="459" type="qcurve"/>
      <point x="329" y="458"/>
      <point x="287" y="451"/>
      <point x="245" y="442" type="qcurve"/>
      <point x="194" y="431"/>
      <point x="147" y="425"/>
      <point x="128" y="425" type="qcurve"/>
      <point x="157" y="527" type="line"/>
      <point x="176" y="527"/>
      <point x="220" y="521"/>
      <point x="265" y="511" type="qcurve"/>
      <point x="302" y="503"/>
      <point x="340" y="497"/>
      <point x="356" y="496" type="qcurve"/>
      <point x="360" y="513"/>
      <point x="365" y="554"/>
      <point x="369" y="594" type="qcurve"/>
      <point x="373" y="642"/>
      <point x="380" y="690"/>
      <point x="386" y="710" type="qcurve"/>
      <point x="498" y="710" type="line"/>
      <point x="492" y="690"/>
      <point x="472" y="643"/>
      <point x="449" y="595" type="qcurve"/>
      <point x="430" y="554"/>
      <point x="412" y="513"/>
      <point x="406" y="496" type="qcurve"/>
      <point x="422" y="497"/>
      <point x="460" y="503"/>
      <point x="499" y="511" type="qcurve"/>
      <point x="551" y="521"/>
      <point x="601" y="527"/>
    </contour>
  </outline>
</glyph>
<glyph name="daggerdbl" format="2">
  <advance width="614"/>
  <unicode hex="2021"/>
  <outline>
    <contour>
      <point x="537" y="287" type="qcurve"/>
      <point x="508" y="185" type="line"/>
      <point x="489" y="185"/>
      <point x="445" y="192"/>
      <point x="403" y="203" type="qcurve"/>
      <point x="372" y="211"/>
      <point x="340" y="217"/>
      <point x="326" y="219" type="qcurve"/>
      <point x="322" y="201"/>
      <point x="315" y="159"/>
      <point x="311" y="118" type="qcurve"/>
      <point x="305" y="69"/>
      <point x="297" y="21"/>
      <point x="291" y="0" type="qcurve"/>
      <point x="185" y="0" type="line"/>
      <point x="191" y="21"/>
      <point x="210" y="69"/>
      <point x="234" y="118" type="qcurve"/>
      <point x="254" y="160"/>
      <point x="271" y="201"/>
      <point x="277" y="219" type="qcurve"/>
      <point x="262" y="218"/>
      <point x="226" y="211"/>
      <point x="190" y="203" type="qcurve"/>
      <point x="142" y="192"/>
      <point x="95" y="185"/>
      <point x="75" y="185" type="qcurve"/>
      <point x="104" y="287" type="line"/>
      <point x="124" y="287"/>
      <point x="168" y="281"/>
      <point x="211" y="271" type="qcurve"/>
      <point x="242" y="263"/>
      <point x="274" y="257"/>
      <point x="288" y="256" type="qcurve"/>
      <point x="346" y="459" type="line"/>
      <point x="330" y="458"/>
      <point x="290" y="451"/>
      <point x="250" y="443" type="qcurve"/>
      <point x="198" y="432"/>
      <point x="148" y="425"/>
      <point x="128" y="425" type="qcurve"/>
      <point x="157" y="527" type="line"/>
      <point x="178" y="527"/>
      <point x="224" y="521"/>
      <point x="269" y="511" type="qcurve"/>
      <point x="305" y="503"/>
      <point x="340" y="497"/>
      <point x="356" y="496" type="qcurve"/>
      <point x="360" y="513"/>
      <point x="365" y="553"/>
      <point x="368" y="593" type="qcurve"/>
      <point x="372" y="641"/>
      <point x="380" y="689"/>
      <point x="386" y="710" type="qcurve"/>
      <point x="498" y="710" type="line"/>
      <point x="492" y="690"/>
      <point x="472" y="642"/>
      <point x="449" y="593" type="qcurve"/>
      <point x="429" y="553"/>
      <point x="412" y="513"/>
      <point x="406" y="496" type="qcurve"/>
      <point x="422" y="497"/>
      <point x="461" y="503"/>
      <point x="500" y="511" type="qcurve"/>
      <point x="551" y="521"/>
      <point x="601" y="527"/>
      <point x="621" y="527" type="qcurve"/>
      <point x="592" y="425" type="line"/>
      <point x="573" y="425"/>
      <point x="529" y="432"/>
      <point x="484" y="442" type="qcurve"/>
      <point x="447" y="451"/>
      <point x="410" y="458"/>
      <point x="394" y="459" type="qcurve"/>
      <point x="336" y="256" type="line"/>
      <point x="351" y="257"/>
      <point x="387" y="263"/>
      <point x="424" y="271" type="qcurve"/>
      <point x="471" y="281"/>
      <point x="518" y="287"/>
    </contour>
  </outline>
</glyph>
<glyph name="guilsinglright" format="2">
  <advance width="614"/>
  <unicode hex="203A"/>
  <outline>
    <contour>
      <point x="482" y="280" type="line"/>
      <point x="456" y="188" type="line"/>
      <point x="92" y="-15" type="line"/>
      <point x="126" y="105" type="line"/>
      <point x="338" y="243" type="line"/>
      <point x="207" y="385" type="line"/>
      <point x="236" y="484" type="line"/>
    </contour>
  </outline>
</glyph>
<glyph name="Euro" format="2">
  <advance width="614"/>
  <unicode hex="20AC"/>
  <outline>
    <contour>
      <point x="123" y="216" type="qcurve"/>
      <point x="32" y="216" type="line"/>
      <point x="52" y="283" type="line"/>
      <point x="139" y="283" type="line"/>
      <point x="164" y="372" type="line"/>
      <point x="76" y="372" type="line"/>
      <point x="96" y="439" type="line"/>
      <point x="183" y="439" type="line"/>
      <point x="217" y="549"/>
      <point x="366" y="668"/>
      <point x="469" y="668" type="qcurve"/>
      <point x="521" y="668"/>
      <point x="607" y="652"/>
      <point x="659" y="633" type="qcurve"/>
      <point x="628" y="539" type="line"/>
      <point x="577" y="558"/>
      <point x="501" y="575"/>
      <point x="466" y="575" type="qcurve"/>
      <point x="405" y="575"/>
      <point x="321" y="507"/>
      <point x="295" y="436" type="qcurve"/>
      <point x="484" y="436" type="line"/>
      <point x="466" y="372" type="line"/>
      <point x="276" y="372" type="line"/>
      <point x="251" y="283" type="line"/>
      <point x="440" y="283" type="line"/>
      <point x="422" y="219" type="line"/>
      <point x="234" y="219" type="line"/>
      <point x="231" y="203"/>
      <point x="228" y="179"/>
      <point x="228" y="168" type="qcurve"/>
      <point x="228" y="123"/>
      <point x="279" y="78"/>
      <point x="330" y="78" type="qcurve"/>
      <point x="366" y="78"/>
      <point x="453" y="96"/>
      <point x="509" y="115" type="qcurve"/>
      <point x="497" y="19" type="line"/>
      <point x="448" y="1"/>
      <point x="357" y="-15"/>
      <point x="309" y="-15" type="qcurve"/>
      <point x="218" y="-15"/>
      <point x="119" y="80"/>
      <point x="119" y="166" type="qcurve"/>
      <point x="119" y="179"/>
      <point x="121" y="204"/>
    </contour>
  </outline>
</glyph>
<glyph name="uni20B9" format="2">
  <advance width="614"/>
  <unicode hex="20B9"/>
  <outline>
    <contour>
      <point x="396" y="409" type="qcurve"/>
      <point x="114" y="409" type="line"/>
      <point x="134" y="480" type="line"/>
      <point x="417" y="480" type="line"/>
      <point x="448" y="590" type="line"/>
      <point x="166" y="590" type="line"/>
      <point x="185" y="655" type="line"/>
      <point x="676" y="655" type="line"/>
      <point x="657" y="590" type="line"/>
      <point x="561" y="590" type="line"/>
      <point x="530" y="480" type="line"/>
      <point x="625" y="480" type="line"/>
      <point x="605" y="409" type="line"/>
      <point x="509" y="409" type="line"/>
      <point x="473" y="290"/>
      <point x="356" y="207"/>
      <point x="226" y="207" type="qcurve"/>
      <point x="217" y="207" type="line"/>
      <point x="217" y="205" type="line"/>
      <point x="472" y="2" type="line"/>
      <point x="472" y="0" type="line"/>
      <point x="320" y="0" type="line"/>
      <point x="58" y="214" type="line"/>
      <point x="81" y="293" type="line"/>
      <point x="254" y="293" type="line"/>
      <point x="309" y="293"/>
      <point x="376" y="347"/>
    </contour>
  </outline>
</glyph>
<glyph name="uni20BA" format="2">
  <advance width="614"/>
  <unicode hex="20BA"/>
  <outline>
    <contour>
      <point x="95" y="183" type="line"/>
      <point x="-5" y="132" type="line"/>
      <point x="16" y="205" type="line"/>
      <point x="116" y="255" type="line"/>
      <point x="144" y="350" type="line"/>
      <point x="44" y="300" type="line"/>
      <point x="66" y="375" type="line"/>
      <point x="165" y="425" type="line"/>
      <point x="231" y="655" type="line"/>
      <point x="344" y="655" type="line"/>
      <point x="294" y="482" type="line"/>
      <point x="511" y="589" type="line"/>
      <point x="489" y="514" type="line"/>
      <point x="273" y="408" type="line"/>
      <point x="246" y="312" type="line"/>
      <point x="462" y="419" type="line"/>
      <point x="440" y="345" type="line"/>
      <point x="225" y="241" type="line"/>
      <point x="183" y="93" type="line"/>
      <point x="240" y="93" type="line"/>
      <point x="332" y="93"/>
      <point x="451" y="185"/>
      <point x="483" y="281" type="qcurve"/>
      <point x="577" y="256" type="line"/>
      <point x="531" y="119"/>
      <point x="365" y="0"/>
      <point x="223" y="0" type="qcurve"/>
      <point x="43" y="0" type="line"/>
    </contour>
  </outline>
</glyph>
<glyph name="published" format="2">
  <advance width="614"/>
  <unicode hex="2117"/>
  <outline>
    <contour>
      <point x="622" y="545" type="qcurve"/>
      <point x="622" y="499"/>
      <point x="602" y="382"/>
      <point x="581" y="311" type="qcurve"/>
      <point x="524" y="115"/>
      <point x="358" y="-70"/>
      <point x="235" y="-70" type="qcurve"/>
      <point x="137" y="-70"/>
      <point x="46" y="18"/>
      <point x="46" y="111" type="qcurve"/>
      <point x="46" y="157"/>
      <point x="67" y="274"/>
      <point x="87" y="344" type="qcurve"/>
      <point x="143" y="540"/>
      <point x="309" y="725"/>
      <point x="433" y="725" type="qcurve"/>
      <point x="531" y="725"/>
      <point x="622" y="638"/>
    </contour>
    <contour>
      <point x="430" y="680" type="qcurve"/>
      <point x="325" y="680"/>
      <point x="186" y="512"/>
      <point x="133" y="327" type="qcurve"/>
      <point x="113" y="257"/>
      <point x="94" y="149"/>
      <point x="94" y="109" type="qcurve"/>
      <point x="94" y="40"/>
      <point x="163" y="-25"/>
      <point x="238" y="-25" type="qcurve"/>
      <point x="342" y="-25"/>
      <point x="481" y="143"/>
      <point x="534" y="328" type="qcurve"/>
      <point x="554" y="398"/>
      <point x="573" y="505"/>
      <point x="573" y="547" type="qcurve"/>
      <point x="573" y="615"/>
      <point x="504" y="680"/>
    </contour>
    <contour>
      <point x="172" y="105" type="line"/>
      <point x="300" y="550" type="line"/>
      <point x="396" y="550" type="line"/>
      <point x="447" y="550"/>
      <point x="497" y="506"/>
      <point x="497" y="462" type="qcurve"/>
      <point x="497" y="413"/>
      <point x="466" y="323"/>
      <point x="440" y="297" type="qcurve"/>
      <point x="417" y="274"/>
      <point x="354" y="251"/>
      <point x="315" y="251" type="qcurve"/>
      <point x="285" y="251" type="line"/>
      <point x="243" y="105" type="line"/>
    </contour>
    <contour>
      <point x="425" y="449" type="qcurve"/>
      <point x="425" y="469"/>
      <point x="404" y="485"/>
      <point x="378" y="485" type="qcurve"/>
      <point x="352" y="485" type="line"/>
      <point x="304" y="318" type="line"/>
      <point x="328" y="318" type="line"/>
      <point x="348" y="318"/>
      <point x="376" y="327"/>
      <point x="386" y="337" type="qcurve"/>
      <point x="401" y="352"/>
      <point x="425" y="424"/>
    </contour>
  </outline>
</glyph>
<glyph name="servicemark" format="2">
  <advance width="614"/>
  <unicode hex="2120"/>
  <outline>
    <contour>
      <point x="215" y="448" type="qcurve"/>
      <point x="241" y="448"/>
      <point x="268" y="468"/>
      <point x="268" y="489" type="qcurve"/>
      <point x="268" y="502"/>
      <point x="253" y="519"/>
      <point x="232" y="531" type="qcurve"/>
      <point x="201" y="548" type="line"/>
      <point x="172" y="563"/>
      <point x="148" y="599"/>
      <point x="148" y="626" type="qcurve"/>
      <point x="148" y="667"/>
      <point x="207" y="717"/>
      <point x="258" y="717" type="qcurve"/>
      <point x="282" y="717"/>
      <point x="326" y="709"/>
      <point x="363" y="697" type="qcurve"/>
      <point x="348" y="648" type="line"/>
      <point x="320" y="657"/>
      <point x="277" y="666"/>
      <point x="257" y="666" type="qcurve"/>
      <point x="232" y="666"/>
      <point x="205" y="647"/>
      <point x="205" y="630" type="qcurve"/>
      <point x="205" y="619"/>
      <point x="217" y="604"/>
      <point x="233" y="595" type="qcurve"/>
      <point x="265" y="578" type="line"/>
      <point x="300" y="558"/>
      <point x="326" y="521"/>
      <point x="326" y="492" type="qcurve"/>
      <point x="326" y="448"/>
      <point x="268" y="397"/>
      <point x="216" y="397" type="qcurve"/>
      <point x="185" y="397"/>
      <point x="123" y="411"/>
      <point x="87" y="427" type="qcurve"/>
      <point x="104" y="476" type="line"/>
      <point x="137" y="462"/>
      <point x="191" y="448"/>
    </contour>
    <contour>
      <point x="616" y="710" type="line"/>
      <point x="692" y="710" type="line"/>
      <point x="615" y="404" type="line"/>
      <point x="562" y="404" type="line"/>
      <point x="634" y="666" type="line"/>
      <point x="518" y="496" type="line"/>
      <point x="501" y="496" type="line"/>
      <point x="479" y="661" type="line"/>
      <point x="403" y="404" type="line"/>
      <point x="348" y="404" type="line"/>
      <point x="448" y="710" type="line"/>
      <point x="515" y="710" type="line"/>
      <point x="533" y="593" type="line"/>
    </contour>
  </outline>
</glyph>
<glyph name="lighthorzbxd" format="2">
  <advance width="614"/>
  <unicode hex="2500"/>
  <outline>
    <contour>
      <point x="634" y="274" type="line"/>
      <point x="-20" y="274" type="line"/>
      <point x="-20" y="386" type="line"/>
      <point x="634" y="386" type="line"/>
    </contour>
  </outline>
</glyph>
<glyph name="heavydnrightbxd" format="2">
  <advance width="614"/>
  <unicode hex="250F"/>
  <outline>
    <contour>
      <point x="403" y="-420" type="line"/>
      <point x="211" y="-420" type="line"/>
      <point x="211" y="426" type="line"/>
      <point x="634" y="426" type="line"/>
      <point x="634" y="234" type="line"/>
      <point x="403" y="234" type="line"/>
    </contour>
  </outline>
</glyph>
<glyph name="heavydnleftbxd" format="2">
  <advance width="614"/>
  <unicode hex="2513"/>
  <outline>
    <contour>
      <point x="211" y="234" type="line"/>
      <point x="-20" y="234" type="line"/>
      <point x="-20" y="426" type="line"/>
      <point x="403" y="426" type="line"/>
      <point x="403" y="-420" type="line"/>
      <point x="211" y="-420" type="line"/>
    </contour>
  </outline>
</glyph>
<glyph name="heavyupleftbxd" format="2">
  <advance width="614"/>
  <unicode hex="251B"/>
  <outline>
    <contour>
      <point x="403" y="234" type="line"/>
      <point x="-20" y="234" type="line"/>
      <point x="-20" y="426" type="line"/>
      <point x="211" y="426" type="line"/>
      <point x="211" y="1080" type="line"/>
      <point x="403" y="1080" type="line"/>
    </contour>
  </outline>
</glyph>
<glyph name="vertheavyleftlightbxd" format="2">
  <advance width="614"/>
  <unicode hex="2528"/>
  <outline>
    <contour>
      <point x="211" y="274" type="line"/>
      <point x="-20" y="274" type="line"/>
      <point x="-20" y="386" type="line"/>
      <point x="211" y="386" type="line"/>
      <point x="211" y="1080" type="line"/>
      <point x="403" y="1080" type="line"/>
      <point x="403" y="-420" type="line"/>
      <point x="211" y="-420" type="line"/>
    </contour>
  </outline>
</glyph>
<glyph name="leftheavyrightvertlightbxd" format="2">
  <advance width="614"/>
  <unicode hex="253D"/>
  <outline>
    <contour>
      <point x="251" y="234" type="line"/>
      <point x="-20" y="234" type="line"/>
      <point x="-20" y="426" type="line"/>
      <point x="251" y="426" type="line"/>
      <point x="251" y="1080" type="line"/>
      <point x="363" y="1080" type="line"/>
      <point x="363" y="386" type="line"/>
      <point x="634" y="386" type="line"/>
      <point x="634" y="274" type="line"/>
      <point x="363" y="274" type="line"/>
      <point x="363" y="-420" type="line"/>
      <point x="251" y="-420" type="line"/>
    </contour>
  </outline>
</glyph>
<glyph name="rightupheavyleftdnlightbxd" format="2">
  <advance width="614"/>
  <unicode hex="2544"/>
  <outline>
    <contour>
      <point x="211" y="274" type="line"/>
      <point x="-20" y="274" type="line"/>
      <point x="-20" y="386" type="line"/>
      <point x="211" y="386" type="line"/>
      <point x="211" y="1080" type="line"/>
      <point x="403" y="1080" type="line"/>
      <point x="403" y="426" type="line"/>
      <point x="634" y="426" type="line"/>
      <point x="634" y="234" type="line"/>
      <point x="363" y="234" type="line"/>
      <point x="363" y="-420" type="line"/>
      <point x="251" y="-420" type="line"/>
      <point x="251" y="234" type="line"/>
      <point x="211" y="234" type="line"/>
    </contour>
  </outline>
</glyph>
<glyph name="rightdnheavyleftuplightbxd" format="2">
  <advance width="614"/>
  <unicode hex="2546"/>
  <outline>
    <contour>
      <point x="211" y="274" type="line"/>
      <point x="-20" y="274" type="line"/>
      <point x="-20" y="386" type="line"/>
      <point x="211" y="386" type="line"/>
      <point x="211" y="426" type="line"/>
      <point x="251" y="426" type="line"/>
      <point x="251" y="1080" type="line"/>
      <point x="363" y="1080" type="line"/>
      <point x="363" y="426" type="line"/>
      <point x="634" y="426" type="line"/>
      <point x="634" y="234" type="line"/>
      <point x="403" y="234" type="line"/>
      <point x="403" y="-420" type="line"/>
      <point x="211" y="-420" type="line"/>
    </contour>
  </outline>
</glyph>
<glyph name="lightarcdnrightbxd" format="2">
  <advance width="614"/>
  <unicode hex="256D"/>
  <outline>
    <contour>
      <point x="363" y="-420" type="line"/>
      <point x="251" y="-420" type="line"/>
      <point x="251" y="23" type="line" smooth="yes"/>
      <point x="251" y="211"/>
      <point x="426" y="386"/>
      <point x="614" y="386" type="qcurve"/>
      <point x="634" y="386" type="line"/>
      <point x="634" y="274" type="line"/>
      <point x="614" y="274" type="line" smooth="yes"/>
      <point x="484" y="274"/>
      <point x="363" y="153"/>
      <point x="363" y="23" type="qcurve"/>
    </contour>
  </outline>
</glyph>
<glyph name="lightarcdnleftbxd" format="2">
  <advance width="614"/>
  <unicode hex="256E"/>
  <outline>
    <contour>
      <point x="363" y="23" type="qcurve"/>
      <point x="363" y="-420" type="line"/>
      <point x="251" y="-420" type="line"/>
      <point x="251" y="23" type="line" smooth="yes"/>
      <point x="251" y="153"/>
      <point x="130" y="274"/>
      <point x="0" y="274" type="qcurve"/>
      <point x="-20" y="274" type="line"/>
      <point x="-20" y="386" type="line"/>
      <point x="0" y="386" type="line" smooth="yes"/>
      <point x="188" y="386"/>
      <point x="363" y="211"/>
    </contour>
  </outline>
</glyph>
<glyph name="lightarcupleftbxd" format="2">
  <advance width="614"/>
  <unicode hex="256F"/>
  <outline>
    <contour>
      <point x="251" y="1080" type="line"/>
      <point x="363" y="1080" type="line"/>
      <point x="363" y="637" type="line" smooth="yes"/>
      <point x="363" y="449"/>
      <point x="188" y="274"/>
      <point x="0" y="274" type="qcurve"/>
      <point x="-20" y="274" type="line"/>
      <point x="-20" y="386" type="line"/>
      <point x="0" y="386" type="line" smooth="yes"/>
      <point x="130" y="386"/>
      <point x="251" y="507"/>
      <point x="251" y="637" type="qcurve"/>
    </contour>
  </outline>
</glyph>
<glyph name="lightarcuprightbxd" format="2">
  <advance width="614"/>
  <unicode hex="2570"/>
  <outline>
    <contour>
      <point x="251" y="637" type="qcurve"/>
      <point x="251" y="1080" type="line"/>
      <point x="363" y="1080" type="line"/>
      <point x="363" y="637" type="line" smooth="yes"/>
      <point x="363" y="507"/>
      <point x="484" y="386"/>
      <point x="614" y="386" type="qcurve"/>
      <point x="634" y="386" type="line"/>
      <point x="634" y="274" type="line"/>
      <point x="614" y="274" type="line" smooth="yes"/>
      <point x="426" y="274"/>
      <point x="251" y="449"/>
    </contour>
  </outline>
</glyph>
<glyph name="lightdiaguprightdnleftbxd" format="2">
  <advance width="614"/>
  <unicode hex="2571"/>
  <outline>
    <contour>
      <point x="0" y="-290" type="line"/>
      <point x="532" y="1020" type="line"/>
      <point x="614" y="1020" type="line"/>
      <point x="614" y="950" type="line"/>
      <point x="82" y="-360" type="line"/>
      <point x="0" y="-360" type="line"/>
    </contour>
  </outline>
</glyph>
<glyph name="heavyleftlightrightbxd" format="2">
  <advance width="614"/>
  <unicode hex="257E"/>
  <outline>
    <contour>
      <point x="363" y="234" type="line"/>
      <point x="-20" y="234" type="line"/>
      <point x="-20" y="426" type="line"/>
      <point x="363" y="426" type="line"/>
      <point x="363" y="386" type="line"/>
      <point x="634" y="386" type="line"/>
      <point x="634" y="274" type="line"/>
      <point x="363" y="274" type="line"/>
    </contour>
  </outline>
</glyph>
<glyph name="uni2611" format="2">
  <advance width="614"/>
  <unicode hex="2611"/>
  <outline>
    <contour>
      <point x="602" y="732" type="line"/>
      <point x="681" y="732" type="line"/>
      <point x="586" y="585" type="line"/>
      <point x="665" y="585" type="line"/>
      <point x="517" y="70" type="line"/>
      <point x="3" y="70" type="line"/>
      <point x="151" y="585" type="line"/>
      <point x="511" y="585" type="line"/>
    </contour>
    <contour>
      <point x="546" y="524" type="line"/>
      <point x="332" y="194" type="line"/>
      <point x="268" y="194" type="line"/>
      <point x="229" y="433" type="line"/>
      <point x="297" y="433" type="line"/>
      <point x="318" y="274" type="line"/>
      <point x="473" y="524" type="line"/>
      <point x="204" y="524" type="line"/>
      <point x="92" y="131" type="line"/>
      <point x="463" y="131" type="line"/>
      <point x="575" y="524" type="line"/>
    </contour>
  </outline>
</glyph>
<glyph name="uni2612" format="2">
  <advance width="614"/>
  <unicode hex="2612"/>
  <outline>
    <contour>
      <point x="517" y="70" type="line"/>
      <point x="3" y="70" type="line"/>
      <point x="151" y="585" type="line"/>
      <point x="665" y="585" type="line"/>
    </contour>
    <contour>
      <point x="540" y="524" type="line"/>
      <point x="240" y="524" type="line"/>
      <point x="343" y="362" type="line"/>
    </contour>
    <contour>
      <point x="300" y="331" type="line"/>
      <point x="195" y="490" type="line"/>
      <point x="104" y="173" type="line"/>
    </contour>
    <contour>
      <point x="563" y="480" type="line"/>
      <point x="372" y="323" type="line"/>
      <point x="473" y="167" type="line"/>
    </contour>
    <contour>
      <point x="328" y="292" type="line"/>
      <point x="128" y="131" type="line"/>
      <point x="429" y="131" type="line"/>
    </contour>
  </outline>
</glyph>
<glyph name="uni2713" format="2">
  <advance width="614"/>
  <unicode hex="2713"/>
  <outline>
    <contour>
      <point x="513" y="598" type="line"/>
      <point x="638" y="598" type="line"/>
      <point x="319" y="55" type="line"/>
      <point x="149" y="55" type="line"/>
      <point x="104" y="359" type="line"/>
      <point x="218" y="359" type="line"/>
      <point x="246" y="130" type="line"/>
    </contour>
  </outline>
</glyph>
<glyph name="uniE0A0" format="2">
  <advance width="614"/>
  <unicode hex="E0A0"/>
  <outline>
    <contour>
      <point x="34" y="226" type="line"/>
      <point x="262" y="1020" type="line"/>
      <point x="360" y="1020" type="line"/>
      <point x="155" y="305" type="line"/>
    </contour>
    <contour>
      <point x="-131" y="-360" type="line"/>
      <point x="-84" y="-198" type="line" smooth="yes"/>
      <point x="-34" y="-23"/>
      <point x="73" y="112"/>
      <point x="239" y="194" type="qcurve" smooth="yes"/>
      <point x="320" y="233"/>
      <point x="382" y="302"/>
      <point x="409" y="396" type="qcurve"/>
      <point x="446" y="525" type="line"/>
      <point x="294" y="525" type="line"/>
      <point x="295" y="529" type="line"/>
      <point x="557" y="747" type="line"/>
      <point x="561" y="747" type="line"/>
      <point x="697" y="529" type="line"/>
      <point x="696" y="525" type="line"/>
      <point x="544" y="525" type="line"/>
      <point x="505" y="389" type="line" smooth="yes"/>
      <point x="469" y="264"/>
      <point x="375" y="168"/>
      <point x="243" y="102" type="qcurve" smooth="yes"/>
      <point x="132" y="47"/>
      <point x="56" y="-49"/>
      <point x="11" y="-209" type="qcurve"/>
      <point x="-33" y="-360" type="line"/>
    </contour>
  </outline>
</glyph>
<glyph name="uniE0A2" format="2">
  <advance width="614"/>
  <unicode hex="E0A2"/>
  <outline>
    <contour>
      <point x="374" y="-7" type="qcurve"/>
      <point x="120" y="-7" type="line" smooth="yes"/>
      <point x="74" y="-7"/>
      <point x="24" y="26"/>
      <point x="24" y="57" type="qcurve" smooth="yes"/>
      <point x="24" y="68"/>
      <point x="29" y="93"/>
      <point x="33" y="107" type="qcurve"/>
      <point x="91" y="311" type="line" smooth="yes"/>
      <point x="109" y="374"/>
      <point x="169" y="425"/>
      <point x="224" y="425" type="qcurve"/>
      <point x="238" y="425" type="line"/>
      <point x="277" y="560" type="line" smooth="yes"/>
      <point x="294" y="620"/>
      <point x="357" y="670"/>
      <point x="414" y="670" type="qcurve"/>
      <point x="431" y="670" type="line" smooth="yes"/>
      <point x="478" y="670"/>
      <point x="528" y="636"/>
      <point x="528" y="603" type="qcurve" smooth="yes"/>
      <point x="528" y="591"/>
      <point x="522" y="561"/>
      <point x="514" y="533" type="qcurve"/>
      <point x="483" y="425" type="line"/>
      <point x="527" y="424"/>
      <point x="573" y="391"/>
      <point x="573" y="361" type="qcurve" smooth="yes"/>
      <point x="573" y="349"/>
      <point x="569" y="324"/>
      <point x="565" y="311" type="qcurve"/>
      <point x="507" y="107" type="line" smooth="yes"/>
      <point x="489" y="44"/>
      <point x="429" y="-7"/>
    </contour>
    <contour>
      <point x="377" y="624"/>
      <point x="341" y="593"/>
      <point x="330" y="556" type="qcurve"/>
      <point x="293" y="425" type="line"/>
      <point x="428" y="425" type="line"/>
      <point x="465" y="556" type="line" smooth="yes"/>
      <point x="468" y="565"/>
      <point x="471" y="583"/>
      <point x="471" y="590" type="qcurve" smooth="yes"/>
      <point x="471" y="608"/>
      <point x="450" y="624"/>
      <point x="427" y="624" type="qcurve"/>
      <point x="408" y="624" type="line" smooth="yes"/>
    </contour>
    <contour>
      <point x="382" y="289" type="qcurve" smooth="yes"/>
      <point x="382" y="306"/>
      <point x="356" y="325"/>
      <point x="332" y="325" type="qcurve" smooth="yes"/>
      <point x="299" y="325"/>
      <point x="254" y="287"/>
      <point x="254" y="257" type="qcurve" smooth="yes"/>
      <point x="254" y="246"/>
      <point x="267" y="227"/>
      <point x="278" y="223" type="qcurve"/>
      <point x="209" y="99" type="line"/>
      <point x="328" y="99" type="line"/>
      <point x="330" y="222" type="line"/>
      <point x="352" y="228"/>
      <point x="382" y="268"/>
    </contour>
  </outline>
</glyph>
<glyph name="uniE0B2" format="2">
  <advance width="614"/>
  <unicode hex="E0B2"/>
  <outline>
    <contour>
      <point x="417" y="0" type="line"/>
      <point x="80" y="325" type="line"/>
      <point x="81" y="329" type="line"/>
      <point x="605" y="655" type="line"/>
      <point x="609" y="655" type="line"/>
      <point x="519" y="342" type="line"/>
      <point x="519" y="342" type="line"/>
      <point x="421" y="0" type="line"/>
    </contour>
  </outline>
</glyph>
<glyph name="uniE0B3" format="2">
  <advance width="614"/>
  <unicode hex="E0B3"/>
  <outline>
    <contour>
      <point x="351" y="0" type="line"/>
      <point x="76" y="326" type="line"/>
      <point x="77" y="329" type="line"/>
      <point x="77" y="330" type="line"/>
      <point x="506" y="655" type="line"/>
      <point x="665" y="655" type="line"/>
      <point x="664" y="651" type="line"/>
      <point x="219" y="314" type="line"/>
      <point x="478" y="4" type="line"/>
      <point x="477" y="0" type="line"/>
    </contour>
  </outline>
</glyph>
<glyph name="acutecmb.cap" format="2">
  <outline>
    <contour>
      <point x="85" y="731" type="line"/>
      <point x="58" y="791" type="line"/>
      <point x="326" y="924" type="line"/>
      <point x="357" y="849" type="line"/>
    </contour>
  </outline>
</glyph>
<glyph name="ampersand_ampersand.liga" format="2">
  <advance width="614"/>
  <outline>
    <contour>
      <point x="-564" y="132" type="qcurve" smooth="yes"/>
      <point x="-564" y="185"/>
      <point x="-538" y="258"/>
      <point x="-510" y="286" type="qcurve" smooth="yes"/>
      <point x="-485" y="311"/>
      <point x="-398" y="349"/>
      <point x="-321" y="369" type="qcurve"/>
      <point x="-343" y="430"/>
      <point x="-355" y="478"/>
      <point x="-355" y="498" type="qcurve" smooth="yes"/>
      <point x="-355" y="573"/>
      <point x="-246" y="669"/>
      <point x="-159" y="669" type="qcurve" smooth="yes"/>
      <point x="-122" y="669"/>
      <point x="-46" y="661"/>
      <point x="4" y="652" type="qcurve"/>
      <point x="-16" y="566" type="line"/>
      <point x="-58" y="574"/>
      <point x="-118" y="581"/>
      <point x="-146" y="581" type="qcurve" smooth="yes"/>
      <point x="-192" y="581"/>
      <point x="-247" y="534"/>
      <point x="-247" y="495" type="qcurve" smooth="yes"/>
      <point x="-247" y="483"/>
      <point x="-241" y="455"/>
      <point x="-233" y="435" type="qcurve"/>
      <point x="-173" y="272" type="line"/>
      <point x="-74" y="428" type="line"/>
      <point x="3" y="384" type="line"/>
      <point x="-135" y="183" type="line"/>
      <point x="-66" y="-1" type="line"/>
      <point x="-178" y="-1" type="line"/>
      <point x="-212" y="96" type="line"/>
      <point x="-265" y="37"/>
      <point x="-354" y="-11"/>
      <point x="-414" y="-11" type="qcurve" smooth="yes"/>
      <point x="-485" y="-11"/>
      <point x="-564" y="64"/>
    </contour>
    <contour>
      <point x="-425" y="238" type="qcurve" smooth="yes"/>
      <point x="-440" y="224"/>
      <point x="-454" y="181"/>
      <point x="-454" y="150" type="qcurve" smooth="yes"/>
      <point x="-454" y="117"/>
      <point x="-420" y="83"/>
      <point x="-387" y="83" type="qcurve" smooth="yes"/>
      <point x="-346" y="83"/>
      <point x="-286" y="123"/>
      <point x="-247" y="173" type="qcurve"/>
      <point x="-294" y="298" type="line"/>
      <point x="-355" y="279"/>
      <point x="-409" y="255"/>
    </contour>
    <contour>
      <point x="2" y="132" type="qcurve" smooth="yes"/>
      <point x="2" y="186"/>
      <point x="27" y="258"/>
      <point x="55" y="286" type="qcurve" smooth="yes"/>
      <point x="79" y="310"/>
      <point x="165" y="347"/>
      <point x="245" y="368" type="qcurve"/>
      <point x="225" y="418"/>
      <point x="211" y="474"/>
      <point x="211" y="498" type="qcurve" smooth="yes"/>
      <point x="211" y="573"/>
      <point x="320" y="669"/>
      <point x="407" y="669" type="qcurve" smooth="yes"/>
      <point x="444" y="669"/>
      <point x="520" y="661"/>
      <point x="570" y="652" type="qcurve"/>
      <point x="549" y="566" type="line"/>
      <point x="508" y="574"/>
      <point x="447" y="581"/>
      <point x="419" y="581" type="qcurve" smooth="yes"/>
      <point x="373" y="581"/>
      <point x="319" y="534"/>
      <point x="319" y="495" type="qcurve" smooth="yes"/>
      <point x="319" y="481"/>
      <point x="326" y="453"/>
      <point x="333" y="435" type="qcurve"/>
      <point x="396" y="269" type="line"/>
      <point x="512" y="428" type="line"/>
      <point x="584" y="376" type="line"/>
      <point x="435" y="183" type="line"/>
      <point x="508" y="-1" type="line"/>
      <point x="395" y="-1" type="line"/>
      <point x="357" y="100" type="line"/>
      <point x="303" y="39"/>
      <point x="213" y="-11"/>
      <point x="151" y="-11" type="qcurve" smooth="yes"/>
      <point x="80" y="-11"/>
      <point x="2" y="65"/>
    </contour>
    <contour>
      <point x="140" y="238" type="qcurve" smooth="yes"/>
      <point x="125" y="223"/>
      <point x="111" y="180"/>
      <point x="111" y="150" type="qcurve" smooth="yes"/>
      <point x="111" y="117"/>
      <point x="145" y="83"/>
      <point x="178" y="83" type="qcurve" smooth="yes"/>
      <point x="221" y="83"/>
      <point x="282" y="124"/>
      <point x="321" y="176" type="qcurve"/>
      <point x="273" y="297" type="line"/>
      <point x="209" y="277"/>
      <point x="156" y="254"/>
    </contour>
  </outline>
</glyph>
<glyph name="asciitilde_asciitilde.liga" format="2">
  <advance width="614"/>
  <outline>
    <contour>
      <point x="211" y="284" type="qcurve" smooth="yes"/>
      <point x="173" y="318"/>
      <point x="137" y="343"/>
      <point x="124" y="343" type="qcurve" smooth="yes"/>
      <point x="108" y="343"/>
      <point x="68" y="316"/>
      <point x="34" y="284" type="qcurve" smooth="yes"/>
      <point x="-6" y="247"/>
      <point x="-58" y="215"/>
      <point x="-84" y="215" type="qcurve" smooth="yes"/>
      <point x="-111" y="215"/>
      <point x="-156" y="241"/>
      <point x="-205" y="284" type="qcurve" smooth="yes"/>
      <point x="-248" y="322"/>
      <point x="-277" y="343"/>
      <point x="-288" y="343" type="qcurve" smooth="yes"/>
      <point x="-303" y="343"/>
      <point x="-339" y="297"/>
      <point x="-395" y="207" type="qcurve"/>
      <point x="-475" y="254" type="line"/>
      <point x="-412" y="364"/>
      <point x="-332" y="449"/>
      <point x="-284" y="449" type="qcurve" smooth="yes"/>
      <point x="-258" y="449"/>
      <point x="-215" y="423"/>
      <point x="-167" y="380" type="qcurve" smooth="yes"/>
      <point x="-129" y="347"/>
      <point x="-93" y="322"/>
      <point x="-80" y="322" type="qcurve" smooth="yes"/>
      <point x="-63" y="322"/>
      <point x="-24" y="348"/>
      <point x="10" y="380" type="qcurve" smooth="yes"/>
      <point x="49" y="417"/>
      <point x="101" y="449"/>
      <point x="129" y="449" type="qcurve" smooth="yes"/>
      <point x="156" y="449"/>
      <point x="202" y="422"/>
      <point x="249" y="380" type="qcurve" smooth="yes"/>
      <point x="293" y="342"/>
      <point x="321" y="322"/>
      <point x="332" y="322" type="qcurve" smooth="yes"/>
      <point x="347" y="322"/>
      <point x="386" y="372"/>
      <point x="439" y="458" type="qcurve"/>
      <point x="519" y="410" type="line"/>
      <point x="455" y="299"/>
      <point x="376" y="215"/>
      <point x="328" y="215" type="qcurve" smooth="yes"/>
      <point x="303" y="215"/>
      <point x="261" y="240"/>
    </contour>
  </outline>
</glyph>
<glyph name="asciitilde_asciitilde_greater" format="2">
  <advance width="614"/>
  <outline>
    <contour>
      <point x="2" y="453" type="qcurve" smooth="yes"/>
      <point x="30" y="453"/>
      <point x="77" y="426"/>
      <point x="121" y="385" type="qcurve" smooth="yes"/>
      <point x="152" y="358"/>
      <point x="180" y="342"/>
      <point x="195" y="342" type="qcurve" smooth="yes"/>
      <point x="215" y="342"/>
      <point x="304" y="360"/>
      <point x="384" y="380" type="qcurve"/>
      <point x="196" y="612" type="line"/>
      <point x="269" y="665" type="line"/>
      <point x="556" y="312" type="line"/>
      <point x="555" y="308" type="line"/>
      <point x="125" y="-11" type="line"/>
      <point x="68" y="60" type="line"/>
      <point x="401" y="307" type="line"/>
      <point x="291" y="272"/>
      <point x="191" y="245"/>
      <point x="171" y="245" type="qcurve" smooth="yes"/>
      <point x="146" y="245"/>
      <point x="107" y="266"/>
      <point x="74" y="296" type="qcurve" smooth="yes"/>
      <point x="40" y="327"/>
      <point x="11" y="347"/>
      <point x="-3" y="347" type="qcurve" smooth="yes"/>
      <point x="-19" y="347"/>
      <point x="-59" y="320"/>
      <point x="-93" y="288" type="qcurve" smooth="yes"/>
      <point x="-133" y="251"/>
      <point x="-185" y="219"/>
      <point x="-211" y="219" type="qcurve" smooth="yes"/>
      <point x="-238" y="219"/>
      <point x="-283" y="245"/>
      <point x="-332" y="288" type="qcurve" smooth="yes"/>
      <point x="-379" y="329"/>
      <point x="-405" y="347"/>
      <point x="-415" y="347" type="qcurve" smooth="yes"/>
      <point x="-432" y="347"/>
      <point x="-470" y="321"/>
      <point x="-505" y="288" type="qcurve" smooth="yes"/>
      <point x="-545" y="250"/>
      <point x="-597" y="219"/>
      <point x="-624" y="219" type="qcurve" smooth="yes"/>
      <point x="-650" y="219"/>
      <point x="-695" y="245"/>
      <point x="-744" y="288" type="qcurve" smooth="yes"/>
      <point x="-788" y="326"/>
      <point x="-817" y="347"/>
      <point x="-827" y="347" type="qcurve" smooth="yes"/>
      <point x="-842" y="347"/>
      <point x="-880" y="298"/>
      <point x="-934" y="210" type="qcurve"/>
      <point x="-1014" y="258" type="line"/>
      <point x="-951" y="368"/>
      <point x="-871" y="453"/>
      <point x="-823" y="453" type="qcurve" smooth="yes"/>
      <point x="-799" y="453"/>
      <point x="-758" y="429"/>
      <point x="-706" y="384" type="qcurve" smooth="yes"/>
      <point x="-667" y="349"/>
      <point x="-632" y="325"/>
      <point x="-619" y="325" type="qcurve" smooth="yes"/>
      <point x="-603" y="325"/>
      <point x="-564" y="352"/>
      <point x="-530" y="384" type="qcurve" smooth="yes"/>
      <point x="-490" y="421"/>
      <point x="-438" y="453"/>
      <point x="-411" y="453" type="qcurve" smooth="yes"/>
      <point x="-386" y="453"/>
      <point x="-344" y="428"/>
      <point x="-294" y="384" type="qcurve" smooth="yes"/>
      <point x="-256" y="350"/>
      <point x="-220" y="325"/>
      <point x="-207" y="325" type="qcurve" smooth="yes"/>
      <point x="-190" y="325"/>
      <point x="-152" y="351"/>
      <point x="-117" y="384" type="qcurve" smooth="yes"/>
      <point x="-77" y="422"/>
      <point x="-25" y="453"/>
    </contour>
  </outline>
</glyph>
<glyph name="asciitilde_at.liga" format="2">
  <advance width="614"/>
  <outline>
    <contour>
      <point x="533" y="564" type="qcurve" smooth="yes"/>
      <point x="533" y="623"/>
      <point x="476" y="674"/>
      <point x="407" y="674" type="qcurve" smooth="yes"/>
      <point x="294" y="674"/>
      <point x="172" y="591"/>
      <point x="64" y="430" type="qcurve" smooth="yes"/>
      <point x="-22" y="301"/>
      <point x="-106" y="213"/>
      <point x="-148" y="213" type="qcurve" smooth="yes"/>
      <point x="-171" y="213"/>
      <point x="-212" y="236"/>
      <point x="-266" y="284" type="qcurve" smooth="yes"/>
      <point x="-307" y="321"/>
      <point x="-337" y="343"/>
      <point x="-349" y="343" type="qcurve" smooth="yes"/>
      <point x="-362" y="343"/>
      <point x="-395" y="301"/>
      <point x="-452" y="207" type="qcurve"/>
      <point x="-533" y="254" type="line"/>
      <point x="-468" y="366"/>
      <point x="-391" y="449"/>
      <point x="-345" y="449" type="qcurve" smooth="yes"/>
      <point x="-319" y="449"/>
      <point x="-276" y="423"/>
      <point x="-228" y="380" type="qcurve" smooth="yes"/>
      <point x="-182" y="340"/>
      <point x="-139" y="312"/>
      <point x="-119" y="312" type="qcurve" smooth="yes"/>
      <point x="-96" y="312"/>
      <point x="-42" y="371"/>
      <point x="17" y="456" type="qcurve" smooth="yes"/>
      <point x="129" y="619"/>
      <point x="282" y="725"/>
      <point x="409" y="725" type="qcurve" smooth="yes"/>
      <point x="508" y="725"/>
      <point x="589" y="655"/>
      <point x="589" y="574" type="qcurve" smooth="yes"/>
      <point x="589" y="486"/>
      <point x="515" y="229"/>
      <point x="470" y="184" type="qcurve" smooth="yes"/>
      <point x="441" y="155"/>
      <point x="370" y="129"/>
      <point x="318" y="129" type="qcurve" smooth="yes"/>
      <point x="241" y="129"/>
      <point x="166" y="188"/>
      <point x="166" y="248" type="qcurve" smooth="yes"/>
      <point x="166" y="302"/>
      <point x="210" y="423"/>
      <point x="243" y="457" type="qcurve" smooth="yes"/>
      <point x="272" y="487"/>
      <point x="357" y="515"/>
      <point x="420" y="515" type="qcurve"/>
      <point x="529" y="515" type="line"/>
      <point x="531" y="527"/>
      <point x="533" y="552"/>
    </contour>
    <contour>
      <point x="245" y="260" type="qcurve" smooth="yes"/>
      <point x="245" y="228"/>
      <point x="281" y="200"/>
      <point x="323" y="200" type="qcurve" smooth="yes"/>
      <point x="361" y="200"/>
      <point x="414" y="217"/>
      <point x="433" y="236" type="qcurve" smooth="yes"/>
      <point x="455" y="258"/>
      <point x="500" y="373"/>
      <point x="516" y="444" type="qcurve"/>
      <point x="396" y="444" type="line" smooth="yes"/>
      <point x="365" y="444"/>
      <point x="317" y="427"/>
      <point x="300" y="410" type="qcurve" smooth="yes"/>
      <point x="276" y="386"/>
      <point x="245" y="299"/>
    </contour>
  </outline>
</glyph>
<glyph name="asciitilde_greater.liga" format="2">
  <advance width="614"/>
  <outline>
    <contour>
      <point x="-52" y="384" type="qcurve" smooth="yes"/>
      <point x="-12" y="422"/>
      <point x="38" y="453"/>
      <point x="63" y="453" type="qcurve" smooth="yes"/>
      <point x="90" y="453"/>
      <point x="131" y="432"/>
      <point x="158" y="406" type="qcurve" smooth="yes"/>
      <point x="201" y="368"/>
      <point x="225" y="355"/>
      <point x="239" y="355" type="qcurve" smooth="yes"/>
      <point x="256" y="355"/>
      <point x="328" y="365"/>
      <point x="388" y="375" type="qcurve"/>
      <point x="196" y="612" type="line"/>
      <point x="269" y="665" type="line"/>
      <point x="556" y="312" type="line"/>
      <point x="555" y="308" type="line"/>
      <point x="125" y="-11" type="line"/>
      <point x="68" y="60" type="line"/>
      <point x="387" y="296" type="line"/>
      <point x="317" y="277"/>
      <point x="232" y="259"/>
      <point x="211" y="259" type="qcurve" smooth="yes"/>
      <point x="189" y="259"/>
      <point x="152" y="280"/>
      <point x="112" y="317" type="qcurve" smooth="yes"/>
      <point x="94" y="333"/>
      <point x="72" y="347"/>
      <point x="59" y="347" type="qcurve" smooth="yes"/>
      <point x="44" y="347"/>
      <point x="8" y="321"/>
      <point x="-27" y="288" type="qcurve" smooth="yes"/>
      <point x="-67" y="251"/>
      <point x="-119" y="219"/>
      <point x="-146" y="219" type="qcurve" smooth="yes"/>
      <point x="-173" y="219"/>
      <point x="-218" y="245"/>
      <point x="-266" y="288" type="qcurve" smooth="yes"/>
      <point x="-310" y="326"/>
      <point x="-339" y="347"/>
      <point x="-349" y="347" type="qcurve" smooth="yes"/>
      <point x="-364" y="347"/>
      <point x="-402" y="298"/>
      <point x="-456" y="210" type="qcurve"/>
      <point x="-536" y="258" type="line"/>
      <point x="-473" y="368"/>
      <point x="-393" y="453"/>
      <point x="-345" y="453" type="qcurve" smooth="yes"/>
      <point x="-321" y="453"/>
      <point x="-280" y="429"/>
      <point x="-228" y="384" type="qcurve" smooth="yes"/>
      <point x="-189" y="350"/>
      <point x="-155" y="325"/>
      <point x="-142" y="325" type="qcurve" smooth="yes"/>
      <point x="-125" y="325"/>
      <point x="-86" y="352"/>
    </contour>
  </outline>
</glyph>
<glyph name="asciitilde_hyphen.liga" format="2">
  <advance width="614"/>
  <outline>
    <contour>
      <point x="-106" y="235" type="qcurve" smooth="yes"/>
      <point x="-131" y="235"/>
      <point x="-176" y="258"/>
      <point x="-206" y="284" type="qcurve" smooth="yes"/>
      <point x="-249" y="322"/>
      <point x="-278" y="343"/>
      <point x="-289" y="343" type="qcurve" smooth="yes"/>
      <point x="-302" y="343"/>
      <point x="-334" y="302"/>
      <point x="-393" y="207" type="qcurve"/>
      <point x="-473" y="254" type="line"/>
      <point x="-408" y="366"/>
      <point x="-331" y="449"/>
      <point x="-285" y="449" type="qcurve" smooth="yes"/>
      <point x="-259" y="449"/>
      <point x="-216" y="423"/>
      <point x="-168" y="380" type="qcurve" smooth="yes"/>
      <point x="-135" y="352"/>
      <point x="-99" y="333"/>
      <point x="-77" y="333" type="qcurve" smooth="yes"/>
      <point x="-70" y="333"/>
      <point x="-51" y="338"/>
      <point x="-31" y="347" type="qcurve" smooth="yes"/>
      <point x="6" y="363"/>
      <point x="54" y="374"/>
      <point x="78" y="374" type="qcurve"/>
      <point x="483" y="374" type="line"/>
      <point x="457" y="283" type="line"/>
      <point x="67" y="283" type="line" smooth="yes"/>
      <point x="45" y="283"/>
      <point x="2" y="272"/>
      <point x="-34" y="256" type="qcurve" smooth="yes"/>
      <point x="-63" y="243"/>
      <point x="-92" y="235"/>
    </contour>
  </outline>
</glyph>
<glyph name="backslash_slash.liga" format="2">
  <advance width="614"/>
  <outline>
    <contour>
      <point x="-129" y="0" type="line"/>
      <point x="-323" y="655" type="line"/>
      <point x="-223" y="655" type="line"/>
      <point x="-52" y="82" type="line"/>
      <point x="447" y="655" type="line"/>
      <point x="564" y="655" type="line"/>
      <point x="-6" y="0" type="line"/>
    </contour>
  </outline>
</glyph>
<glyph name="bar_bar_equal.start" format="2">
  <advance width="614"/>
  <outline>
    <contour>
      <point x="634" y="270" type="line"/>
      <point x="608" y="179" type="line"/>
      <point x="-569" y="179" type="line"/>
      <point x="-649" y="-100" type="line"/>
      <point x="-752" y="-100" type="line"/>
      <point x="-507" y="755" type="line"/>
      <point x="-404" y="755" type="line"/>
      <point x="-483" y="478" type="line"/>
      <point x="694" y="478" type="line"/>
      <point x="668" y="387" type="line"/>
      <point x="-509" y="387" type="line"/>
      <point x="-543" y="270" type="line"/>
    </contour>
    <contour>
      <point x="-1068" y="-100" type="line"/>
      <point x="-823" y="755" type="line"/>
      <point x="-720" y="755" type="line"/>
      <point x="-966" y="-100" type="line"/>
    </contour>
  </outline>
</glyph>
<glyph name="bar_braceright.liga" format="2">
  <advance width="614"/>
  <outline>
    <contour>
      <point x="270" y="57"/>
      <point x="283" y="23"/>
      <point x="283" y="7" type="qcurve" smooth="yes"/>
      <point x="283" y="-43"/>
      <point x="213" y="-100"/>
      <point x="145" y="-105" type="qcurve"/>
      <point x="-170" y="-130" type="line"/>
      <point x="-143" y="-36" type="line"/>
      <point x="116" y="-18" type="line" smooth="yes"/>
      <point x="140" y="-16"/>
      <point x="164" y="-1"/>
      <point x="164" y="13" type="qcurve" smooth="yes"/>
      <point x="164" y="21"/>
      <point x="157" y="38"/>
      <point x="148" y="52" type="qcurve"/>
      <point x="114" y="106" type="line" smooth="yes"/>
      <point x="93" y="139"/>
      <point x="79" y="172"/>
      <point x="79" y="186" type="qcurve" smooth="yes"/>
      <point x="79" y="232"/>
      <point x="222" y="291"/>
      <point x="391" y="326" type="qcurve"/>
      <point x="396" y="345" type="line"/>
      <point x="269" y="377"/>
      <point x="167" y="425"/>
      <point x="167" y="462" type="qcurve" smooth="yes"/>
      <point x="167" y="483"/>
      <point x="200" y="525"/>
      <point x="245" y="563" type="qcurve"/>
      <point x="304" y="612" type="line" smooth="yes"/>
      <point x="327" y="630"/>
      <point x="343" y="649"/>
      <point x="343" y="660" type="qcurve" smooth="yes"/>
      <point x="343" y="669"/>
      <point x="330" y="680"/>
      <point x="317" y="681" type="qcurve"/>
      <point x="73" y="696" type="line"/>
      <point x="99" y="789" type="line"/>
      <point x="351" y="773" type="line" smooth="yes"/>
      <point x="411" y="770"/>
      <point x="471" y="728"/>
      <point x="471" y="689" type="qcurve" smooth="yes"/>
      <point x="471" y="659"/>
      <point x="438" y="611"/>
      <point x="395" y="574" type="qcurve"/>
      <point x="335" y="522" type="line" smooth="yes"/>
      <point x="308" y="499"/>
      <point x="291" y="479"/>
      <point x="291" y="469" type="qcurve" smooth="yes"/>
      <point x="291" y="450"/>
      <point x="390" y="411"/>
      <point x="508" y="380" type="qcurve"/>
      <point x="480" y="282" type="line"/>
      <point x="319" y="241"/>
      <point x="204" y="201"/>
      <point x="204" y="178" type="qcurve" smooth="yes"/>
      <point x="204" y="171"/>
      <point x="212" y="151"/>
      <point x="222" y="136" type="qcurve"/>
      <point x="255" y="82" type="line" smooth="yes"/>
    </contour>
    <contour>
      <point x="-360" y="-129" type="line"/>
      <point x="-462" y="-129" type="line"/>
      <point x="-200" y="783" type="line"/>
      <point x="-98" y="783" type="line"/>
    </contour>
  </outline>
</glyph>
<glyph name="bar_equal.liga" format="2">
  <advance width="614"/>
  <outline>
    <contour>
      <point x="537" y="270" type="line"/>
      <point x="511" y="179" type="line"/>
      <point x="-272" y="179" type="line"/>
      <point x="-352" y="-100" type="line"/>
      <point x="-454" y="-100" type="line"/>
      <point x="-209" y="755" type="line"/>
      <point x="-106" y="755" type="line"/>
      <point x="-186" y="478" type="line"/>
      <point x="596" y="478" type="line"/>
      <point x="570" y="387" type="line"/>
      <point x="-212" y="387" type="line"/>
      <point x="-246" y="270" type="line"/>
    </contour>
  </outline>
</glyph>
<glyph name="bar_equal.start" format="2">
  <advance width="614"/>
  <outline>
    <contour>
      <point x="634" y="270" type="line"/>
      <point x="608" y="179" type="line"/>
      <point x="-272" y="179" type="line"/>
      <point x="-352" y="-100" type="line"/>
      <point x="-454" y="-100" type="line"/>
      <point x="-209" y="755" type="line"/>
      <point x="-106" y="755" type="line"/>
      <point x="-186" y="478" type="line"/>
      <point x="694" y="478" type="line"/>
      <point x="668" y="387" type="line"/>
      <point x="-212" y="387" type="line"/>
      <point x="-246" y="270" type="line"/>
    </contour>
  </outline>
</glyph>
<glyph name="bar_greater.liga" format="2">
  <advance width="614"/>
  <outline>
    <contour>
      <point x="441" y="382" type="line"/>
      <point x="412" y="280" type="line"/>
      <point x="-361" y="-129" type="line"/>
      <point x="-446" y="-129" type="line"/>
      <point x="-184" y="783" type="line"/>
      <point x="-99" y="783" type="line"/>
    </contour>
    <contour>
      <point x="331" y="339" type="line"/>
      <point x="-116" y="661" type="line"/>
      <point x="-303" y="10" type="line"/>
    </contour>
  </outline>
</glyph>
<glyph name="braceleft_bar.liga" format="2">
  <advance width="614"/>
  <outline>
    <contour>
      <point x="-354" y="-107"/>
      <point x="-414" y="-65"/>
      <point x="-414" y="-27" type="qcurve" smooth="yes"/>
      <point x="-414" y="2"/>
      <point x="-382" y="50"/>
      <point x="-338" y="88" type="qcurve"/>
      <point x="-278" y="140" type="line" smooth="yes"/>
      <point x="-251" y="163"/>
      <point x="-234" y="183"/>
      <point x="-234" y="193" type="qcurve" smooth="yes"/>
      <point x="-234" y="212"/>
      <point x="-333" y="251"/>
      <point x="-451" y="282" type="qcurve"/>
      <point x="-423" y="380" type="line"/>
      <point x="-261" y="421"/>
      <point x="-146" y="461"/>
      <point x="-146" y="484" type="qcurve" smooth="yes"/>
      <point x="-146" y="490"/>
      <point x="-154" y="509"/>
      <point x="-165" y="526" type="qcurve"/>
      <point x="-198" y="580" type="line" smooth="yes"/>
      <point x="-213" y="605"/>
      <point x="-226" y="639"/>
      <point x="-226" y="655" type="qcurve" smooth="yes"/>
      <point x="-226" y="705"/>
      <point x="-156" y="763"/>
      <point x="-88" y="767" type="qcurve"/>
      <point x="228" y="789" type="line"/>
      <point x="201" y="695" type="line"/>
      <point x="-59" y="680" type="line" smooth="yes"/>
      <point x="-83" y="679"/>
      <point x="-107" y="663"/>
      <point x="-107" y="649" type="qcurve" smooth="yes"/>
      <point x="-107" y="642"/>
      <point x="-100" y="626"/>
      <point x="-91" y="610" type="qcurve"/>
      <point x="-57" y="556" type="line" smooth="yes"/>
      <point x="-36" y="523"/>
      <point x="-22" y="490"/>
      <point x="-22" y="476" type="qcurve" smooth="yes"/>
      <point x="-22" y="430"/>
      <point x="-165" y="371"/>
      <point x="-334" y="336" type="qcurve"/>
      <point x="-339" y="317" type="line"/>
      <point x="-212" y="285"/>
      <point x="-110" y="237"/>
      <point x="-110" y="200" type="qcurve" smooth="yes"/>
      <point x="-110" y="179"/>
      <point x="-143" y="137"/>
      <point x="-188" y="99" type="qcurve"/>
      <point x="-247" y="50" type="line" smooth="yes"/>
      <point x="-270" y="32"/>
      <point x="-286" y="13"/>
      <point x="-286" y="2" type="qcurve" smooth="yes"/>
      <point x="-286" y="-7"/>
      <point x="-273" y="-18"/>
      <point x="-260" y="-19" type="qcurve"/>
      <point x="-16" y="-36" type="line"/>
      <point x="-42" y="-129" type="line"/>
      <point x="-294" y="-111" type="line" smooth="yes"/>
    </contour>
    <contour>
      <point x="413" y="783" type="line"/>
      <point x="516" y="783" type="line"/>
      <point x="254" y="-129" type="line"/>
      <point x="151" y="-129" type="line"/>
    </contour>
  </outline>
</glyph>
<glyph name="bracketright_numbersign.liga" format="2">
  <advance width="614"/>
  <outline>
    <contour>
      <point x="208" y="503" type="line"/>
      <point x="271" y="666" type="line"/>
      <point x="346" y="666" type="line"/>
      <point x="282" y="502" type="line"/>
      <point x="392" y="502" type="line"/>
      <point x="456" y="666" type="line"/>
      <point x="531" y="666" type="line"/>
      <point x="468" y="503" type="line"/>
      <point x="562" y="503" type="line"/>
      <point x="562" y="398" type="line"/>
      <point x="427" y="398" type="line"/>
      <point x="374" y="263" type="line"/>
      <point x="485" y="263" type="line"/>
      <point x="485" y="158" type="line"/>
      <point x="333" y="158" type="line"/>
      <point x="267" y="-12" type="line"/>
      <point x="191" y="-12" type="line"/>
      <point x="258" y="159" type="line"/>
      <point x="148" y="159" type="line"/>
      <point x="81" y="-12" type="line"/>
      <point x="7" y="-12" type="line"/>
      <point x="73" y="158" type="line"/>
      <point x="-177" y="158" type="line"/>
      <point x="-263" y="-141" type="line"/>
      <point x="-623" y="-141" type="line"/>
      <point x="-596" y="-47" type="line"/>
      <point x="-349" y="-47" type="line"/>
      <point x="-136" y="699" type="line"/>
      <point x="-383" y="699" type="line"/>
      <point x="-355" y="792" type="line"/>
      <point x="4" y="792" type="line"/>
      <point x="-79" y="503" type="line"/>
    </contour>
    <contour>
      <point x="162" y="225" type="line"/>
      <point x="295" y="225" type="line"/>
      <point x="377" y="434" type="line"/>
      <point x="244" y="434" type="line"/>
    </contour>
    <contour>
      <point x="-107" y="404" type="line"/>
      <point x="-149" y="256" type="line"/>
      <point x="111" y="256" type="line"/>
      <point x="169" y="404" type="line"/>
    </contour>
  </outline>
</glyph>
<glyph name="breveacute.cap" format="2">
  <outline>
    <contour>
      <point x="421" y="996" type="line"/>
      <point x="146" y="901" type="line"/>
      <point x="124" y="961" type="line"/>
      <point x="396" y="1071" type="line"/>
    </contour>
    <contour>
      <point x="157" y="809" type="qcurve"/>
      <point x="203" y="809"/>
      <point x="277" y="854"/>
      <point x="306" y="900" type="qcurve"/>
      <point x="372" y="867" type="line"/>
      <point x="335" y="800"/>
      <point x="225" y="731"/>
      <point x="156" y="731" type="qcurve"/>
      <point x="77" y="731"/>
      <point x="-1" y="807"/>
      <point x="-1" y="884" type="qcurve"/>
      <point x="62" y="906" type="line"/>
      <point x="65" y="857"/>
      <point x="112" y="809"/>
    </contour>
  </outline>
</glyph>
<glyph name="breveacute" format="2">
  <outline>
    <contour>
      <point x="96" y="737" type="line"/>
      <point x="70" y="795" type="line"/>
      <point x="339" y="916" type="line"/>
      <point x="367" y="843" type="line"/>
    </contour>
    <contour>
      <point x="104" y="624" type="qcurve"/>
      <point x="147" y="624"/>
      <point x="223" y="679"/>
      <point x="259" y="735" type="qcurve"/>
      <point x="328" y="707" type="line"/>
      <point x="283" y="627"/>
      <point x="167" y="547"/>
      <point x="96" y="547" type="qcurve"/>
      <point x="21" y="547"/>
      <point x="-51" y="631"/>
      <point x="-51" y="718" type="qcurve"/>
      <point x="13" y="735" type="line"/>
      <point x="16" y="678"/>
      <point x="61" y="624"/>
    </contour>
  </outline>
</glyph>
<glyph name="brevecmb.cap" format="2">
  <outline>
    <contour>
      <point x="157" y="809" type="qcurve"/>
      <point x="201" y="809"/>
      <point x="277" y="863"/>
      <point x="311" y="918" type="qcurve"/>
      <point x="378" y="890" type="line"/>
      <point x="335" y="811"/>
      <point x="222" y="731"/>
      <point x="153" y="731" type="qcurve"/>
      <point x="76" y="731"/>
      <point x="0" y="814"/>
      <point x="0" y="899" type="qcurve"/>
      <point x="66" y="918" type="line"/>
      <point x="69" y="863"/>
      <point x="114" y="809"/>
    </contour>
  </outline>
</glyph>
<glyph name="brevegrave.cap" format="2">
  <outline>
    <contour>
      <point x="43" y="1073" type="line"/>
      <point x="254" y="961" type="line"/>
      <point x="222" y="903" type="line"/>
      <point x="2" y="998" type="line"/>
    </contour>
    <contour>
      <point x="157" y="809" type="qcurve"/>
      <point x="203" y="809"/>
      <point x="277" y="854"/>
      <point x="306" y="900" type="qcurve"/>
      <point x="372" y="867" type="line"/>
      <point x="335" y="800"/>
      <point x="225" y="731"/>
      <point x="156" y="731" type="qcurve"/>
      <point x="77" y="731"/>
      <point x="-1" y="807"/>
      <point x="-1" y="884" type="qcurve"/>
      <point x="62" y="906" type="line"/>
      <point x="65" y="857"/>
      <point x="112" y="809"/>
    </contour>
  </outline>
</glyph>
<glyph name="brevegrave" format="2">
  <outline>
    <contour>
      <point x="17" y="913" type="line"/>
      <point x="217" y="792" type="line"/>
      <point x="183" y="739" type="line"/>
      <point x="-28" y="846" type="line"/>
    </contour>
    <contour>
      <point x="104" y="624" type="qcurve"/>
      <point x="147" y="624"/>
      <point x="223" y="679"/>
      <point x="258" y="735" type="qcurve"/>
      <point x="328" y="707" type="line"/>
      <point x="283" y="627"/>
      <point x="167" y="547"/>
      <point x="96" y="547" type="qcurve"/>
      <point x="21" y="547"/>
      <point x="-51" y="631"/>
      <point x="-51" y="718" type="qcurve"/>
      <point x="13" y="735" type="line"/>
      <point x="16" y="678"/>
      <point x="61" y="624"/>
    </contour>
  </outline>
</glyph>
<glyph name="brevehook.cap" format="2">
  <outline>
    <contour>
      <point x="339" y="1006" type="qcurve"/>
      <point x="339" y="965"/>
      <point x="239" y="915"/>
      <point x="125" y="899" type="qcurve"/>
      <point x="114" y="946" type="line"/>
      <point x="115" y="948" type="line"/>
      <point x="181" y="960"/>
      <point x="235" y="980"/>
      <point x="235" y="993" type="qcurve"/>
      <point x="235" y="1003"/>
      <point x="177" y="1020"/>
      <point x="95" y="1033" type="qcurve"/>
      <point x="95" y="1035" type="line"/>
      <point x="156" y="1091" type="line"/>
      <point x="251" y="1078"/>
      <point x="339" y="1038"/>
    </contour>
    <contour>
      <point x="157" y="809" type="qcurve"/>
      <point x="203" y="809"/>
      <point x="277" y="854"/>
      <point x="306" y="900" type="qcurve"/>
      <point x="372" y="867" type="line"/>
      <point x="335" y="800"/>
      <point x="225" y="731"/>
      <point x="156" y="731" type="qcurve"/>
      <point x="77" y="731"/>
      <point x="-1" y="807"/>
      <point x="-1" y="884" type="qcurve"/>
      <point x="62" y="906" type="line"/>
      <point x="65" y="857"/>
      <point x="112" y="809"/>
    </contour>
  </outline>
</glyph>
<glyph name="brevehook" format="2">
  <outline>
    <contour>
      <point x="300" y="851" type="qcurve"/>
      <point x="300" y="808"/>
      <point x="191" y="754"/>
      <point x="74" y="737" type="qcurve"/>
      <point x="63" y="785" type="line"/>
      <point x="64" y="787" type="line"/>
      <point x="136" y="802"/>
      <point x="196" y="826"/>
      <point x="196" y="842" type="qcurve"/>
      <point x="196" y="854"/>
      <point x="136" y="873"/>
      <point x="65" y="884" type="qcurve"/>
      <point x="65" y="887" type="line"/>
      <point x="125" y="939" type="line"/>
      <point x="218" y="924"/>
      <point x="300" y="884"/>
    </contour>
    <contour>
      <point x="104" y="624" type="qcurve"/>
      <point x="147" y="624"/>
      <point x="223" y="679"/>
      <point x="258" y="735" type="qcurve"/>
      <point x="328" y="707" type="line"/>
      <point x="283" y="627"/>
      <point x="167" y="547"/>
      <point x="96" y="547" type="qcurve"/>
      <point x="21" y="547"/>
      <point x="-51" y="631"/>
      <point x="-51" y="718" type="qcurve"/>
      <point x="13" y="735" type="line"/>
      <point x="16" y="678"/>
      <point x="61" y="624"/>
    </contour>
  </outline>
</glyph>
<glyph name="circumflexacute.cap" format="2">
  <outline>
    <contour>
      <point x="308" y="892" type="line"/>
      <point x="279" y="950" type="line"/>
      <point x="456" y="1040" type="line"/>
      <point x="490" y="969" type="line"/>
    </contour>
    <contour>
      <point x="-14" y="731" type="line"/>
      <point x="-36" y="790" type="line"/>
      <point x="163" y="907" type="line"/>
      <point x="203" y="907" type="line"/>
      <point x="346" y="780" type="line"/>
      <point x="299" y="731" type="line"/>
      <point x="168" y="821" type="line"/>
    </contour>
  </outline>
</glyph>
<glyph name="circumflexcmb.cap" format="2">
  <outline>
    <contour>
      <point x="-14" y="731" type="line"/>
      <point x="-42" y="786" type="line"/>
      <point x="163" y="920" type="line"/>
      <point x="203" y="920" type="line"/>
      <point x="344" y="782" type="line"/>
      <point x="300" y="731" type="line"/>
      <point x="172" y="834" type="line"/>
    </contour>
  </outline>
</glyph>
<glyph name="circumflexhook.cap" format="2">
  <outline>
    <contour>
      <point x="499" y="1006" type="qcurve"/>
      <point x="499" y="965"/>
      <point x="399" y="915"/>
      <point x="284" y="899" type="qcurve"/>
      <point x="274" y="946" type="line"/>
      <point x="275" y="948" type="line"/>
      <point x="341" y="960"/>
      <point x="394" y="980"/>
      <point x="394" y="993" type="qcurve"/>
      <point x="394" y="1004"/>
      <point x="336" y="1020"/>
      <point x="255" y="1033" type="qcurve"/>
      <point x="255" y="1035" type="line"/>
      <point x="315" y="1091" type="line"/>
      <point x="411" y="1078"/>
      <point x="499" y="1038"/>
    </contour>
    <contour>
      <point x="-14" y="731" type="line"/>
      <point x="-37" y="790" type="line"/>
      <point x="163" y="907" type="line"/>
      <point x="203" y="907" type="line"/>
      <point x="346" y="780" type="line"/>
      <point x="299" y="731" type="line"/>
      <point x="168" y="821" type="line"/>
    </contour>
  </outline>
</glyph>
<glyph name="circumflexhook" format="2">
  <outline>
    <contour>
      <point x="469" y="835" type="qcurve"/>
      <point x="469" y="792"/>
      <point x="359" y="738"/>
      <point x="243" y="721" type="qcurve"/>
      <point x="232" y="771" type="line"/>
      <point x="233" y="773" type="line"/>
      <point x="306" y="788"/>
      <point x="365" y="811"/>
      <point x="365" y="826" type="qcurve"/>
      <point x="365" y="838"/>
      <point x="305" y="857"/>
      <point x="234" y="868" type="qcurve"/>
      <point x="234" y="871" type="line"/>
      <point x="294" y="923" type="line"/>
      <point x="387" y="908"/>
      <point x="469" y="868"/>
    </contour>
    <contour>
      <point x="-56" y="547" type="line"/>
      <point x="-86" y="597" type="line"/>
      <point x="108" y="735" type="line"/>
      <point x="160" y="735" type="line"/>
      <point x="284" y="586" type="line"/>
      <point x="235" y="547" type="line"/>
      <point x="119" y="651" type="line"/>
    </contour>
  </outline>
</glyph>
<glyph name="circumflextilde" format="2">
  <outline>
    <contour>
      <point x="113" y="926" type="qcurve"/>
      <point x="132" y="926"/>
      <point x="162" y="908"/>
      <point x="189" y="881" type="qcurve"/>
      <point x="219" y="852"/>
      <point x="233" y="843"/>
      <point x="240" y="843" type="qcurve"/>
      <point x="255" y="843"/>
      <point x="294" y="886"/>
      <point x="323" y="932" type="qcurve"/>
      <point x="382" y="903" type="line"/>
      <point x="333" y="827"/>
      <point x="269" y="765"/>
      <point x="237" y="765" type="qcurve"/>
      <point x="220" y="765"/>
      <point x="189" y="783"/>
      <point x="161" y="811" type="qcurve"/>
      <point x="128" y="841"/>
      <point x="116" y="848"/>
      <point x="110" y="848" type="qcurve"/>
      <point x="96" y="848"/>
      <point x="58" y="808"/>
      <point x="31" y="765" type="qcurve"/>
      <point x="-26" y="794" type="line"/>
      <point x="21" y="867"/>
      <point x="83" y="926"/>
    </contour>
    <contour>
      <point x="-56" y="547" type="line"/>
      <point x="-86" y="597" type="line"/>
      <point x="108" y="735" type="line"/>
      <point x="160" y="735" type="line"/>
      <point x="284" y="586" type="line"/>
      <point x="235" y="547" type="line"/>
      <point x="119" y="651" type="line"/>
    </contour>
  </outline>
</glyph>
<glyph name="colon_colon_equal.liga" format="2">
  <advance width="614"/>
  <outline>
    <contour>
      <point x="-679" y="512" type="qcurve" smooth="yes"/>
      <point x="-679" y="463"/>
      <point x="-748" y="401"/>
      <point x="-804" y="401" type="qcurve" smooth="yes"/>
      <point x="-849" y="401"/>
      <point x="-896" y="435"/>
      <point x="-896" y="467" type="qcurve" smooth="yes"/>
      <point x="-896" y="515"/>
      <point x="-827" y="577"/>
      <point x="-772" y="577" type="qcurve" smooth="yes"/>
      <point x="-726" y="577"/>
      <point x="-679" y="544"/>
    </contour>
    <contour>
      <point x="-226" y="512" type="qcurve" smooth="yes"/>
      <point x="-226" y="463"/>
      <point x="-295" y="401"/>
      <point x="-351" y="401" type="qcurve" smooth="yes"/>
      <point x="-396" y="401"/>
      <point x="-443" y="435"/>
      <point x="-443" y="467" type="qcurve" smooth="yes"/>
      <point x="-443" y="515"/>
      <point x="-374" y="577"/>
      <point x="-319" y="577" type="qcurve" smooth="yes"/>
      <point x="-273" y="577"/>
      <point x="-226" y="544"/>
    </contour>
    <contour>
      <point x="440" y="387" type="line"/>
      <point x="1" y="387" type="line"/>
      <point x="27" y="478" type="line"/>
      <point x="466" y="478" type="line"/>
    </contour>
    <contour>
      <point x="380" y="179" type="line"/>
      <point x="-58" y="179" type="line"/>
      <point x="-32" y="270" type="line"/>
      <point x="406" y="270" type="line"/>
    </contour>
    <contour>
      <point x="-771" y="189" type="qcurve" smooth="yes"/>
      <point x="-771" y="140"/>
      <point x="-840" y="78"/>
      <point x="-896" y="78" type="qcurve" smooth="yes"/>
      <point x="-941" y="78"/>
      <point x="-988" y="111"/>
      <point x="-988" y="143" type="qcurve" smooth="yes"/>
      <point x="-988" y="191"/>
      <point x="-919" y="253"/>
      <point x="-864" y="253" type="qcurve" smooth="yes"/>
      <point x="-818" y="253"/>
      <point x="-771" y="220"/>
    </contour>
    <contour>
      <point x="-318" y="189" type="qcurve" smooth="yes"/>
      <point x="-318" y="140"/>
      <point x="-387" y="78"/>
      <point x="-443" y="78" type="qcurve" smooth="yes"/>
      <point x="-488" y="78"/>
      <point x="-535" y="111"/>
      <point x="-535" y="143" type="qcurve" smooth="yes"/>
      <point x="-535" y="191"/>
      <point x="-466" y="253"/>
      <point x="-411" y="253" type="qcurve" smooth="yes"/>
      <point x="-365" y="253"/>
      <point x="-318" y="220"/>
    </contour>
  </outline>
</glyph>
<glyph name="colon_equal.liga" format="2">
  <advance width="614"/>
  <outline>
    <contour>
      <point x="-171" y="512" type="qcurve" smooth="yes"/>
      <point x="-171" y="463"/>
      <point x="-240" y="401"/>
      <point x="-296" y="401" type="qcurve" smooth="yes"/>
      <point x="-341" y="401"/>
      <point x="-388" y="435"/>
      <point x="-388" y="467" type="qcurve" smooth="yes"/>
      <point x="-388" y="515"/>
      <point x="-319" y="577"/>
      <point x="-264" y="577" type="qcurve" smooth="yes"/>
      <point x="-218" y="577"/>
      <point x="-171" y="544"/>
    </contour>
    <contour>
      <point x="482" y="387" type="line"/>
      <point x="-3" y="387" type="line"/>
      <point x="23" y="478" type="line"/>
      <point x="508" y="478" type="line"/>
    </contour>
    <contour>
      <point x="423" y="179" type="line"/>
      <point x="-63" y="179" type="line"/>
      <point x="-36" y="270" type="line"/>
      <point x="449" y="270" type="line"/>
    </contour>
    <contour>
      <point x="-263" y="189" type="qcurve" smooth="yes"/>
      <point x="-263" y="140"/>
      <point x="-332" y="78"/>
      <point x="-388" y="78" type="qcurve" smooth="yes"/>
      <point x="-433" y="78"/>
      <point x="-480" y="111"/>
      <point x="-480" y="143" type="qcurve" smooth="yes"/>
      <point x="-480" y="191"/>
      <point x="-411" y="253"/>
      <point x="-356" y="253" type="qcurve" smooth="yes"/>
      <point x="-310" y="253"/>
      <point x="-263" y="220"/>
    </contour>
  </outline>
</glyph>
<glyph name="colon_greater.liga" format="2">
  <advance width="614"/>
  <outline>
    <contour>
      <point x="516" y="371" type="line"/>
      <point x="487" y="269" type="line"/>
      <point x="-48" y="67" type="line"/>
      <point x="-16" y="178" type="line"/>
      <point x="400" y="327" type="line"/>
      <point x="69" y="477" type="line"/>
      <point x="97" y="575" type="line"/>
    </contour>
    <contour>
      <point x="-114" y="512" type="qcurve" smooth="yes"/>
      <point x="-114" y="463"/>
      <point x="-183" y="401"/>
      <point x="-239" y="401" type="qcurve" smooth="yes"/>
      <point x="-284" y="401"/>
      <point x="-331" y="435"/>
      <point x="-331" y="467" type="qcurve" smooth="yes"/>
      <point x="-331" y="515"/>
      <point x="-262" y="577"/>
      <point x="-207" y="577" type="qcurve" smooth="yes"/>
      <point x="-161" y="577"/>
      <point x="-114" y="544"/>
    </contour>
    <contour>
      <point x="-206" y="189" type="qcurve" smooth="yes"/>
      <point x="-206" y="140"/>
      <point x="-275" y="78"/>
      <point x="-331" y="78" type="qcurve" smooth="yes"/>
      <point x="-376" y="78"/>
      <point x="-423" y="111"/>
      <point x="-423" y="143" type="qcurve" smooth="yes"/>
      <point x="-423" y="191"/>
      <point x="-354" y="253"/>
      <point x="-299" y="253" type="qcurve" smooth="yes"/>
      <point x="-253" y="253"/>
      <point x="-206" y="220"/>
    </contour>
  </outline>
</glyph>
<glyph name="colon_less.liga" format="2">
  <advance width="614"/>
  <outline>
    <contour>
      <point x="-41" y="270" type="line"/>
      <point x="-12" y="373" type="line"/>
      <point x="524" y="575" type="line"/>
      <point x="491" y="464" type="line"/>
      <point x="77" y="315" type="line"/>
      <point x="406" y="165" type="line"/>
      <point x="378" y="67" type="line"/>
    </contour>
    <contour>
      <point x="-115" y="512" type="qcurve" smooth="yes"/>
      <point x="-115" y="463"/>
      <point x="-184" y="401"/>
      <point x="-240" y="401" type="qcurve" smooth="yes"/>
      <point x="-285" y="401"/>
      <point x="-332" y="435"/>
      <point x="-332" y="467" type="qcurve" smooth="yes"/>
      <point x="-332" y="515"/>
      <point x="-263" y="577"/>
      <point x="-208" y="577" type="qcurve" smooth="yes"/>
      <point x="-162" y="577"/>
      <point x="-115" y="544"/>
    </contour>
    <contour>
      <point x="-207" y="189" type="qcurve" smooth="yes"/>
      <point x="-207" y="140"/>
      <point x="-276" y="78"/>
      <point x="-332" y="78" type="qcurve" smooth="yes"/>
      <point x="-377" y="78"/>
      <point x="-424" y="111"/>
      <point x="-424" y="143" type="qcurve" smooth="yes"/>
      <point x="-424" y="191"/>
      <point x="-355" y="253"/>
      <point x="-300" y="253" type="qcurve" smooth="yes"/>
      <point x="-254" y="253"/>
      <point x="-207" y="220"/>
    </contour>
  </outline>
</glyph>
<glyph name="dieresisacute" format="2">
  <outline>
    <contour>
      <point x="343" y="817" type="line"/>
      <point x="73" y="711" type="line"/>
      <point x="47" y="769" type="line"/>
      <point x="317" y="890" type="line"/>
    </contour>
    <contour>
      <point x="65" y="636" type="qcurve"/>
      <point x="65" y="606"/>
      <point x="21" y="567"/>
      <point x="-14" y="567" type="qcurve"/>
      <point x="-43" y="567"/>
      <point x="-71" y="587"/>
      <point x="-71" y="607" type="qcurve"/>
      <point x="-71" y="635"/>
      <point x="-25" y="677"/>
      <point x="9" y="677" type="qcurve"/>
      <point x="36" y="677"/>
      <point x="65" y="656"/>
    </contour>
    <contour>
      <point x="297" y="636" type="qcurve"/>
      <point x="297" y="606"/>
      <point x="253" y="567"/>
      <point x="218" y="567" type="qcurve"/>
      <point x="191" y="567"/>
      <point x="162" y="588"/>
      <point x="162" y="607" type="qcurve"/>
      <point x="162" y="637"/>
      <point x="208" y="677"/>
      <point x="242" y="677" type="qcurve"/>
      <point x="268" y="677"/>
      <point x="297" y="656"/>
    </contour>
  </outline>
</glyph>
<glyph name="dieresiscaron.cap" format="2">
  <outline>
    <contour>
      <point x="169" y="899" type="line"/>
      <point x="33" y="1033" type="line"/>
      <point x="73" y="1077" type="line"/>
      <point x="202" y="982" type="line"/>
      <point x="387" y="1077" type="line"/>
      <point x="411" y="1026" type="line"/>
      <point x="209" y="899" type="line"/>
    </contour>
    <contour>
      <point x="107" y="827" type="qcurve"/>
      <point x="107" y="794"/>
      <point x="62" y="751"/>
      <point x="27" y="751" type="qcurve"/>
      <point x="-1" y="751"/>
      <point x="-32" y="773"/>
      <point x="-32" y="793" type="qcurve"/>
      <point x="-32" y="825"/>
      <point x="14" y="871"/>
      <point x="49" y="871" type="qcurve"/>
      <point x="78" y="871"/>
      <point x="107" y="849"/>
    </contour>
    <contour>
      <point x="363" y="827" type="qcurve"/>
      <point x="363" y="794"/>
      <point x="319" y="751"/>
      <point x="284" y="751" type="qcurve"/>
      <point x="255" y="751"/>
      <point x="225" y="773"/>
      <point x="225" y="793" type="qcurve"/>
      <point x="225" y="825"/>
      <point x="271" y="871"/>
      <point x="306" y="871" type="qcurve"/>
      <point x="334" y="871"/>
      <point x="363" y="849"/>
    </contour>
  </outline>
</glyph>
<glyph name="dieresiscmb.cap" format="2">
  <outline>
    <contour>
      <point x="109" y="834" type="qcurve"/>
      <point x="109" y="797"/>
      <point x="63" y="751"/>
      <point x="27" y="751" type="qcurve"/>
      <point x="-1" y="751"/>
      <point x="-32" y="775"/>
      <point x="-32" y="797" type="qcurve"/>
      <point x="-32" y="832"/>
      <point x="16" y="880"/>
      <point x="51" y="880" type="qcurve"/>
      <point x="80" y="880"/>
      <point x="109" y="857"/>
    </contour>
    <contour>
      <point x="365" y="834" type="qcurve"/>
      <point x="365" y="798"/>
      <point x="318" y="751"/>
      <point x="283" y="751" type="qcurve"/>
      <point x="255" y="751"/>
      <point x="225" y="775"/>
      <point x="225" y="797" type="qcurve"/>
      <point x="225" y="831"/>
      <point x="272" y="880"/>
      <point x="307" y="880" type="qcurve"/>
      <point x="336" y="880"/>
      <point x="365" y="857"/>
    </contour>
  </outline>
</glyph>
<glyph name="dieresisgrave.cap" format="2">
  <outline>
    <contour>
      <point x="54" y="1074" type="line"/>
      <point x="266" y="962" type="line"/>
      <point x="233" y="904" type="line"/>
      <point x="14" y="999" type="line"/>
    </contour>
    <contour>
      <point x="107" y="827" type="qcurve"/>
      <point x="107" y="794"/>
      <point x="62" y="751"/>
      <point x="27" y="751" type="qcurve"/>
      <point x="-1" y="751"/>
      <point x="-32" y="773"/>
      <point x="-32" y="793" type="qcurve"/>
      <point x="-32" y="825"/>
      <point x="14" y="871"/>
      <point x="49" y="871" type="qcurve"/>
      <point x="78" y="871"/>
      <point x="107" y="849"/>
    </contour>
    <contour>
      <point x="363" y="827" type="qcurve"/>
      <point x="363" y="794"/>
      <point x="319" y="751"/>
      <point x="284" y="751" type="qcurve"/>
      <point x="255" y="751"/>
      <point x="225" y="773"/>
      <point x="225" y="793" type="qcurve"/>
      <point x="225" y="825"/>
      <point x="271" y="871"/>
      <point x="306" y="871" type="qcurve"/>
      <point x="334" y="871"/>
      <point x="363" y="849"/>
    </contour>
  </outline>
</glyph>
<glyph name="dollar_greater.liga" format="2">
  <advance width="614"/>
  <outline>
    <contour>
      <point x="-94" y="188" type="qcurve" smooth="yes"/>
      <point x="-94" y="100"/>
      <point x="-220" y="-1"/>
      <point x="-331" y="-1" type="qcurve" smooth="yes"/>
      <point x="-340" y="-1"/>
      <point x="-361" y="0"/>
      <point x="-382" y="1" type="qcurve"/>
      <point x="-430" y="-142" type="line"/>
      <point x="-507" y="-142" type="line"/>
      <point x="-455" y="11" type="line"/>
      <point x="-490" y="18"/>
      <point x="-565" y="42"/>
      <point x="-610" y="61" type="qcurve"/>
      <point x="-575" y="153" type="line"/>
      <point x="-499" y="121"/>
      <point x="-381" y="92"/>
      <point x="-332" y="92" type="qcurve" smooth="yes"/>
      <point x="-271" y="92"/>
      <point x="-209" y="136"/>
      <point x="-209" y="178" type="qcurve" smooth="yes"/>
      <point x="-209" y="208"/>
      <point x="-247" y="250"/>
      <point x="-292" y="275" type="qcurve"/>
      <point x="-358" y="310" type="line" smooth="yes"/>
      <point x="-423" y="345"/>
      <point x="-478" y="421"/>
      <point x="-478" y="475" type="qcurve" smooth="yes"/>
      <point x="-478" y="555"/>
      <point x="-348" y="655"/>
      <point x="-239" y="655" type="qcurve" smooth="yes"/>
      <point x="-224" y="655"/>
      <point x="-209" y="655"/>
      <point x="-203" y="654" type="qcurve"/>
      <point x="-154" y="797" type="line"/>
      <point x="-78" y="797" type="line"/>
      <point x="-129" y="646" type="line"/>
      <point x="-67" y="637"/>
      <point x="63" y="597"/>
      <point x="130" y="566" type="qcurve"/>
      <point x="571" y="371" type="line"/>
      <point x="541" y="269" type="line"/>
      <point x="25" y="67" type="line"/>
      <point x="57" y="178" type="line"/>
      <point x="453" y="325" type="line"/>
      <point x="93" y="476" type="line" smooth="yes"/>
      <point x="-14" y="520"/>
      <point x="-178" y="563"/>
      <point x="-241" y="563" type="qcurve" smooth="yes"/>
      <point x="-301" y="563"/>
      <point x="-364" y="521"/>
      <point x="-364" y="482" type="qcurve" smooth="yes"/>
      <point x="-364" y="456"/>
      <point x="-332" y="417"/>
      <point x="-294" y="397" type="qcurve"/>
      <point x="-229" y="362" type="line" smooth="yes"/>
      <point x="-151" y="320"/>
      <point x="-94" y="248"/>
    </contour>
  </outline>
</glyph>
<glyph name="eight.den" format="2">
  <advance width="614"/>
  <outline>
    <contour>
      <point x="434" y="107" type="qcurve"/>
      <point x="434" y="55"/>
      <point x="342" y="-15"/>
      <point x="273" y="-15" type="qcurve"/>
      <point x="207" y="-15"/>
      <point x="127" y="40"/>
      <point x="127" y="87" type="qcurve"/>
      <point x="127" y="129"/>
      <point x="193" y="191"/>
      <point x="247" y="201" type="qcurve"/>
      <point x="247" y="203" type="line"/>
      <point x="221" y="215"/>
      <point x="193" y="254"/>
      <point x="193" y="278" type="qcurve"/>
      <point x="193" y="325"/>
      <point x="277" y="395"/>
      <point x="340" y="395" type="qcurve"/>
      <point x="403" y="395"/>
      <point x="477" y="341"/>
      <point x="477" y="297" type="qcurve"/>
      <point x="477" y="256"/>
      <point x="420" y="199"/>
      <point x="370" y="191" type="qcurve"/>
      <point x="370" y="189" type="line"/>
      <point x="400" y="176"/>
      <point x="434" y="133"/>
    </contour>
    <contour>
      <point x="342" y="335" type="qcurve"/>
      <point x="309" y="335"/>
      <point x="264" y="296"/>
      <point x="264" y="267" type="qcurve"/>
      <point x="264" y="246"/>
      <point x="295" y="220"/>
      <point x="321" y="220" type="qcurve"/>
      <point x="354" y="220"/>
      <point x="401" y="261"/>
      <point x="401" y="289" type="qcurve"/>
      <point x="401" y="311"/>
      <point x="370" y="335"/>
    </contour>
    <contour>
      <point x="293" y="169" type="qcurve"/>
      <point x="255" y="169"/>
      <point x="204" y="126"/>
      <point x="204" y="96" type="qcurve"/>
      <point x="204" y="72"/>
      <point x="240" y="45"/>
      <point x="272" y="45" type="qcurve"/>
      <point x="310" y="45"/>
      <point x="362" y="87"/>
      <point x="362" y="118" type="qcurve"/>
      <point x="362" y="141"/>
      <point x="324" y="169"/>
    </contour>
  </outline>
</glyph>
<glyph name="equal.middle" format="2">
  <advance width="614"/>
  <outline>
    <contour>
      <point x="668" y="387" type="line"/>
      <point x="34" y="387" type="line"/>
      <point x="60" y="478" type="line"/>
      <point x="694" y="478" type="line"/>
    </contour>
    <contour>
      <point x="608" y="179" type="line"/>
      <point x="-26" y="179" type="line"/>
      <point x="0" y="270" type="line"/>
      <point x="634" y="270" type="line"/>
    </contour>
  </outline>
</glyph>
